%FSLAX45Y45*%
G04 Gerber Fmt 4.5, Leading zero omitted, Abs format (unit mm)*
G04 Created by KiCad (PCBNEW (5.1.10-1-10_14)) date 2021-12-03 14:09:28*
%MOMM*%
%LPD*%
G01*
G04 APERTURE LIST*
%TA.AperFunction,Profile*%
%ADD10C,0.050000*%
%TD*%
%ADD11C,0.200000*%
%ADD12C,0.300000*%
G04 APERTURE END LIST*
D10*
X12827000Y-2667000D02*
X12827000Y-9144000D01*
X16891000Y-2667000D02*
X16891000Y-9144000D01*
X12827000Y-2667000D02*
X16891000Y-2667000D01*
X16891000Y-9144000D02*
X12827000Y-9144000D01*
D11*
X16335000Y-6259500D02*
X16745000Y-6669500D01*
X16745000Y-6259500D02*
X16335000Y-6669500D01*
X16360000Y-8259500D02*
X16770000Y-8669500D01*
X16770000Y-8259500D02*
X16360000Y-8669500D01*
D12*
X13110928Y-9612214D02*
X13110928Y-9312214D01*
X13182357Y-9312214D01*
X13225214Y-9326500D01*
X13253786Y-9355072D01*
X13268071Y-9383643D01*
X13282357Y-9440786D01*
X13282357Y-9483643D01*
X13268071Y-9540786D01*
X13253786Y-9569357D01*
X13225214Y-9597929D01*
X13182357Y-9612214D01*
X13110928Y-9612214D01*
X13410928Y-9612214D02*
X13410928Y-9412214D01*
X13410928Y-9469357D02*
X13425214Y-9440786D01*
X13439500Y-9426500D01*
X13468071Y-9412214D01*
X13496643Y-9412214D01*
X13596643Y-9612214D02*
X13596643Y-9412214D01*
X13596643Y-9312214D02*
X13582357Y-9326500D01*
X13596643Y-9340786D01*
X13610928Y-9326500D01*
X13596643Y-9312214D01*
X13596643Y-9340786D01*
X13782357Y-9612214D02*
X13753786Y-9597929D01*
X13739500Y-9569357D01*
X13739500Y-9312214D01*
X13939500Y-9612214D02*
X13910928Y-9597929D01*
X13896643Y-9569357D01*
X13896643Y-9312214D01*
X14282357Y-9612214D02*
X14282357Y-9312214D01*
X14382357Y-9526500D01*
X14482357Y-9312214D01*
X14482357Y-9612214D01*
X14753786Y-9612214D02*
X14753786Y-9455072D01*
X14739500Y-9426500D01*
X14710928Y-9412214D01*
X14653786Y-9412214D01*
X14625214Y-9426500D01*
X14753786Y-9597929D02*
X14725214Y-9612214D01*
X14653786Y-9612214D01*
X14625214Y-9597929D01*
X14610928Y-9569357D01*
X14610928Y-9540786D01*
X14625214Y-9512214D01*
X14653786Y-9497929D01*
X14725214Y-9497929D01*
X14753786Y-9483643D01*
X14896643Y-9412214D02*
X14896643Y-9712214D01*
X14896643Y-9426500D02*
X14925214Y-9412214D01*
X14982357Y-9412214D01*
X15010928Y-9426500D01*
X15025214Y-9440786D01*
X15039500Y-9469357D01*
X15039500Y-9555072D01*
X15025214Y-9583643D01*
X15010928Y-9597929D01*
X14982357Y-9612214D01*
X14925214Y-9612214D01*
X14896643Y-9597929D01*
X15168071Y-9583643D02*
X15182357Y-9597929D01*
X15168071Y-9612214D01*
X15153786Y-9597929D01*
X15168071Y-9583643D01*
X15168071Y-9612214D01*
X15168071Y-9426500D02*
X15182357Y-9440786D01*
X15168071Y-9455072D01*
X15153786Y-9440786D01*
X15168071Y-9426500D01*
X15168071Y-9455072D01*
X12414500Y-9901500D02*
X12824500Y-10311500D01*
X12824500Y-9901500D02*
X12414500Y-10311500D01*
X13239500Y-10042214D02*
X13239500Y-10242214D01*
X13168071Y-9927929D02*
X13096643Y-10142214D01*
X13282357Y-10142214D01*
X13396643Y-10213643D02*
X13410928Y-10227929D01*
X13396643Y-10242214D01*
X13382357Y-10227929D01*
X13396643Y-10213643D01*
X13396643Y-10242214D01*
X13696643Y-10242214D02*
X13525214Y-10242214D01*
X13610928Y-10242214D02*
X13610928Y-9942214D01*
X13582357Y-9985072D01*
X13553786Y-10013643D01*
X13525214Y-10027929D01*
X13882357Y-9942214D02*
X13910928Y-9942214D01*
X13939500Y-9956500D01*
X13953786Y-9970786D01*
X13968071Y-9999357D01*
X13982357Y-10056500D01*
X13982357Y-10127929D01*
X13968071Y-10185072D01*
X13953786Y-10213643D01*
X13939500Y-10227929D01*
X13910928Y-10242214D01*
X13882357Y-10242214D01*
X13853786Y-10227929D01*
X13839500Y-10213643D01*
X13825214Y-10185072D01*
X13810928Y-10127929D01*
X13810928Y-10056500D01*
X13825214Y-9999357D01*
X13839500Y-9970786D01*
X13853786Y-9956500D01*
X13882357Y-9942214D01*
X14168071Y-9942214D02*
X14196643Y-9942214D01*
X14225214Y-9956500D01*
X14239500Y-9970786D01*
X14253786Y-9999357D01*
X14268071Y-10056500D01*
X14268071Y-10127929D01*
X14253786Y-10185072D01*
X14239500Y-10213643D01*
X14225214Y-10227929D01*
X14196643Y-10242214D01*
X14168071Y-10242214D01*
X14139500Y-10227929D01*
X14125214Y-10213643D01*
X14110928Y-10185072D01*
X14096643Y-10127929D01*
X14096643Y-10056500D01*
X14110928Y-9999357D01*
X14125214Y-9970786D01*
X14139500Y-9956500D01*
X14168071Y-9942214D01*
X14396643Y-10242214D02*
X14396643Y-10042214D01*
X14396643Y-10070786D02*
X14410928Y-10056500D01*
X14439500Y-10042214D01*
X14482357Y-10042214D01*
X14510928Y-10056500D01*
X14525214Y-10085072D01*
X14525214Y-10242214D01*
X14525214Y-10085072D02*
X14539500Y-10056500D01*
X14568071Y-10042214D01*
X14610928Y-10042214D01*
X14639500Y-10056500D01*
X14653786Y-10085072D01*
X14653786Y-10242214D01*
X14796643Y-10242214D02*
X14796643Y-10042214D01*
X14796643Y-10070786D02*
X14810928Y-10056500D01*
X14839500Y-10042214D01*
X14882357Y-10042214D01*
X14910928Y-10056500D01*
X14925214Y-10085072D01*
X14925214Y-10242214D01*
X14925214Y-10085072D02*
X14939500Y-10056500D01*
X14968071Y-10042214D01*
X15010928Y-10042214D01*
X15039500Y-10056500D01*
X15053786Y-10085072D01*
X15053786Y-10242214D01*
X15639500Y-9927929D02*
X15382357Y-10313643D01*
X16025214Y-9942214D02*
X16053786Y-9942214D01*
X16082357Y-9956500D01*
X16096643Y-9970786D01*
X16110928Y-9999357D01*
X16125214Y-10056500D01*
X16125214Y-10127929D01*
X16110928Y-10185072D01*
X16096643Y-10213643D01*
X16082357Y-10227929D01*
X16053786Y-10242214D01*
X16025214Y-10242214D01*
X15996643Y-10227929D01*
X15982357Y-10213643D01*
X15968071Y-10185072D01*
X15953786Y-10127929D01*
X15953786Y-10056500D01*
X15968071Y-9999357D01*
X15982357Y-9970786D01*
X15996643Y-9956500D01*
X16025214Y-9942214D01*
X16253786Y-10213643D02*
X16268071Y-10227929D01*
X16253786Y-10242214D01*
X16239500Y-10227929D01*
X16253786Y-10213643D01*
X16253786Y-10242214D01*
X16553786Y-10242214D02*
X16382357Y-10242214D01*
X16468071Y-10242214D02*
X16468071Y-9942214D01*
X16439500Y-9985072D01*
X16410928Y-10013643D01*
X16382357Y-10027929D01*
X16810928Y-9942214D02*
X16753786Y-9942214D01*
X16725214Y-9956500D01*
X16710928Y-9970786D01*
X16682357Y-10013643D01*
X16668071Y-10070786D01*
X16668071Y-10185072D01*
X16682357Y-10213643D01*
X16696643Y-10227929D01*
X16725214Y-10242214D01*
X16782357Y-10242214D01*
X16810928Y-10227929D01*
X16825214Y-10213643D01*
X16839500Y-10185072D01*
X16839500Y-10113643D01*
X16825214Y-10085072D01*
X16810928Y-10070786D01*
X16782357Y-10056500D01*
X16725214Y-10056500D01*
X16696643Y-10070786D01*
X16682357Y-10085072D01*
X16668071Y-10113643D01*
X17125214Y-10242214D02*
X16953786Y-10242214D01*
X17039500Y-10242214D02*
X17039500Y-9942214D01*
X17010928Y-9985072D01*
X16982357Y-10013643D01*
X16953786Y-10027929D01*
X17382357Y-10042214D02*
X17382357Y-10242214D01*
X17310928Y-9927929D02*
X17239500Y-10142214D01*
X17425214Y-10142214D01*
X17525214Y-9942214D02*
X17525214Y-9999357D01*
X17639500Y-9942214D02*
X17639500Y-9999357D01*
X18082357Y-10356500D02*
X18068071Y-10342214D01*
X18039500Y-10299357D01*
X18025214Y-10270786D01*
X18010928Y-10227929D01*
X17996643Y-10156500D01*
X17996643Y-10099357D01*
X18010928Y-10027929D01*
X18025214Y-9985072D01*
X18039500Y-9956500D01*
X18068071Y-9913643D01*
X18082357Y-9899357D01*
X18182357Y-9970786D02*
X18196643Y-9956500D01*
X18225214Y-9942214D01*
X18296643Y-9942214D01*
X18325214Y-9956500D01*
X18339500Y-9970786D01*
X18353786Y-9999357D01*
X18353786Y-10027929D01*
X18339500Y-10070786D01*
X18168071Y-10242214D01*
X18353786Y-10242214D01*
X18710928Y-10242214D02*
X18710928Y-9942214D01*
X18839500Y-10242214D02*
X18839500Y-10085072D01*
X18825214Y-10056500D01*
X18796643Y-10042214D01*
X18753786Y-10042214D01*
X18725214Y-10056500D01*
X18710928Y-10070786D01*
X19025214Y-10242214D02*
X18996643Y-10227929D01*
X18982357Y-10213643D01*
X18968071Y-10185072D01*
X18968071Y-10099357D01*
X18982357Y-10070786D01*
X18996643Y-10056500D01*
X19025214Y-10042214D01*
X19068071Y-10042214D01*
X19096643Y-10056500D01*
X19110928Y-10070786D01*
X19125214Y-10099357D01*
X19125214Y-10185072D01*
X19110928Y-10213643D01*
X19096643Y-10227929D01*
X19068071Y-10242214D01*
X19025214Y-10242214D01*
X19296643Y-10242214D02*
X19268071Y-10227929D01*
X19253786Y-10199357D01*
X19253786Y-9942214D01*
X19525214Y-10227929D02*
X19496643Y-10242214D01*
X19439500Y-10242214D01*
X19410928Y-10227929D01*
X19396643Y-10199357D01*
X19396643Y-10085072D01*
X19410928Y-10056500D01*
X19439500Y-10042214D01*
X19496643Y-10042214D01*
X19525214Y-10056500D01*
X19539500Y-10085072D01*
X19539500Y-10113643D01*
X19396643Y-10142214D01*
X19653786Y-10227929D02*
X19682357Y-10242214D01*
X19739500Y-10242214D01*
X19768071Y-10227929D01*
X19782357Y-10199357D01*
X19782357Y-10185072D01*
X19768071Y-10156500D01*
X19739500Y-10142214D01*
X19696643Y-10142214D01*
X19668071Y-10127929D01*
X19653786Y-10099357D01*
X19653786Y-10085072D01*
X19668071Y-10056500D01*
X19696643Y-10042214D01*
X19739500Y-10042214D01*
X19768071Y-10056500D01*
X19882357Y-10356500D02*
X19896643Y-10342214D01*
X19925214Y-10299357D01*
X19939500Y-10270786D01*
X19953786Y-10227929D01*
X19968071Y-10156500D01*
X19968071Y-10099357D01*
X19953786Y-10027929D01*
X19939500Y-9985072D01*
X19925214Y-9956500D01*
X19896643Y-9913643D01*
X19882357Y-9899357D01*
X20425214Y-10356500D02*
X20410928Y-10342214D01*
X20382357Y-10299357D01*
X20368071Y-10270786D01*
X20353786Y-10227929D01*
X20339500Y-10156500D01*
X20339500Y-10099357D01*
X20353786Y-10027929D01*
X20368071Y-9985072D01*
X20382357Y-9956500D01*
X20410928Y-9913643D01*
X20425214Y-9899357D01*
X20539500Y-10042214D02*
X20539500Y-10242214D01*
X20539500Y-10070786D02*
X20553786Y-10056500D01*
X20582357Y-10042214D01*
X20625214Y-10042214D01*
X20653786Y-10056500D01*
X20668071Y-10085072D01*
X20668071Y-10242214D01*
X20853786Y-10242214D02*
X20825214Y-10227929D01*
X20810928Y-10213643D01*
X20796643Y-10185072D01*
X20796643Y-10099357D01*
X20810928Y-10070786D01*
X20825214Y-10056500D01*
X20853786Y-10042214D01*
X20896643Y-10042214D01*
X20925214Y-10056500D01*
X20939500Y-10070786D01*
X20953786Y-10099357D01*
X20953786Y-10185072D01*
X20939500Y-10213643D01*
X20925214Y-10227929D01*
X20896643Y-10242214D01*
X20853786Y-10242214D01*
X21039500Y-10042214D02*
X21153786Y-10042214D01*
X21082357Y-9942214D02*
X21082357Y-10199357D01*
X21096643Y-10227929D01*
X21125214Y-10242214D01*
X21153786Y-10242214D01*
X21482357Y-10042214D02*
X21482357Y-10342214D01*
X21482357Y-10056500D02*
X21510928Y-10042214D01*
X21568071Y-10042214D01*
X21596643Y-10056500D01*
X21610928Y-10070786D01*
X21625214Y-10099357D01*
X21625214Y-10185072D01*
X21610928Y-10213643D01*
X21596643Y-10227929D01*
X21568071Y-10242214D01*
X21510928Y-10242214D01*
X21482357Y-10227929D01*
X21796643Y-10242214D02*
X21768071Y-10227929D01*
X21753786Y-10199357D01*
X21753786Y-9942214D01*
X22039500Y-10242214D02*
X22039500Y-10085072D01*
X22025214Y-10056500D01*
X21996643Y-10042214D01*
X21939500Y-10042214D01*
X21910928Y-10056500D01*
X22039500Y-10227929D02*
X22010928Y-10242214D01*
X21939500Y-10242214D01*
X21910928Y-10227929D01*
X21896643Y-10199357D01*
X21896643Y-10170786D01*
X21910928Y-10142214D01*
X21939500Y-10127929D01*
X22010928Y-10127929D01*
X22039500Y-10113643D01*
X22139500Y-10042214D02*
X22253786Y-10042214D01*
X22182357Y-9942214D02*
X22182357Y-10199357D01*
X22196643Y-10227929D01*
X22225214Y-10242214D01*
X22253786Y-10242214D01*
X22468071Y-10227929D02*
X22439500Y-10242214D01*
X22382357Y-10242214D01*
X22353786Y-10227929D01*
X22339500Y-10199357D01*
X22339500Y-10085072D01*
X22353786Y-10056500D01*
X22382357Y-10042214D01*
X22439500Y-10042214D01*
X22468071Y-10056500D01*
X22482357Y-10085072D01*
X22482357Y-10113643D01*
X22339500Y-10142214D01*
X22739500Y-10242214D02*
X22739500Y-9942214D01*
X22739500Y-10227929D02*
X22710928Y-10242214D01*
X22653786Y-10242214D01*
X22625214Y-10227929D01*
X22610928Y-10213643D01*
X22596643Y-10185072D01*
X22596643Y-10099357D01*
X22610928Y-10070786D01*
X22625214Y-10056500D01*
X22653786Y-10042214D01*
X22710928Y-10042214D01*
X22739500Y-10056500D01*
X22853786Y-10356500D02*
X22868071Y-10342214D01*
X22896643Y-10299357D01*
X22910928Y-10270786D01*
X22925214Y-10227929D01*
X22939500Y-10156500D01*
X22939500Y-10099357D01*
X22925214Y-10027929D01*
X22910928Y-9985072D01*
X22896643Y-9956500D01*
X22868071Y-9913643D01*
X22853786Y-9899357D01*
M02*
