%TF.GenerationSoftware,KiCad,Pcbnew,(5.1.10-1-10_14)*%
%TF.CreationDate,2021-12-03T14:09:27-05:00*%
%TF.ProjectId,Triple Controller V2,54726970-6c65-4204-936f-6e74726f6c6c,rev?*%
%TF.SameCoordinates,Original*%
%TF.FileFunction,Legend,Top*%
%TF.FilePolarity,Positive*%
%FSLAX46Y46*%
G04 Gerber Fmt 4.6, Leading zero omitted, Abs format (unit mm)*
G04 Created by KiCad (PCBNEW (5.1.10-1-10_14)) date 2021-12-03 14:09:27*
%MOMM*%
%LPD*%
G01*
G04 APERTURE LIST*
%ADD10C,0.150000*%
%ADD11C,0.120000*%
G04 APERTURE END LIST*
D10*
X148202190Y-88035380D02*
X148773619Y-88035380D01*
X148487904Y-89035380D02*
X148487904Y-88035380D01*
X149106952Y-89035380D02*
X149106952Y-88368714D01*
X149106952Y-88559190D02*
X149154571Y-88463952D01*
X149202190Y-88416333D01*
X149297428Y-88368714D01*
X149392666Y-88368714D01*
X149726000Y-89035380D02*
X149726000Y-88368714D01*
X149726000Y-88035380D02*
X149678380Y-88083000D01*
X149726000Y-88130619D01*
X149773619Y-88083000D01*
X149726000Y-88035380D01*
X149726000Y-88130619D01*
X150202190Y-88368714D02*
X150202190Y-89368714D01*
X150202190Y-88416333D02*
X150297428Y-88368714D01*
X150487904Y-88368714D01*
X150583142Y-88416333D01*
X150630761Y-88463952D01*
X150678380Y-88559190D01*
X150678380Y-88844904D01*
X150630761Y-88940142D01*
X150583142Y-88987761D01*
X150487904Y-89035380D01*
X150297428Y-89035380D01*
X150202190Y-88987761D01*
X151249809Y-89035380D02*
X151154571Y-88987761D01*
X151106952Y-88892523D01*
X151106952Y-88035380D01*
X152011714Y-88987761D02*
X151916476Y-89035380D01*
X151726000Y-89035380D01*
X151630761Y-88987761D01*
X151583142Y-88892523D01*
X151583142Y-88511571D01*
X151630761Y-88416333D01*
X151726000Y-88368714D01*
X151916476Y-88368714D01*
X152011714Y-88416333D01*
X152059333Y-88511571D01*
X152059333Y-88606809D01*
X151583142Y-88702047D01*
X153821238Y-88940142D02*
X153773619Y-88987761D01*
X153630761Y-89035380D01*
X153535523Y-89035380D01*
X153392666Y-88987761D01*
X153297428Y-88892523D01*
X153249809Y-88797285D01*
X153202190Y-88606809D01*
X153202190Y-88463952D01*
X153249809Y-88273476D01*
X153297428Y-88178238D01*
X153392666Y-88083000D01*
X153535523Y-88035380D01*
X153630761Y-88035380D01*
X153773619Y-88083000D01*
X153821238Y-88130619D01*
X154392666Y-89035380D02*
X154297428Y-88987761D01*
X154249809Y-88940142D01*
X154202190Y-88844904D01*
X154202190Y-88559190D01*
X154249809Y-88463952D01*
X154297428Y-88416333D01*
X154392666Y-88368714D01*
X154535523Y-88368714D01*
X154630761Y-88416333D01*
X154678380Y-88463952D01*
X154726000Y-88559190D01*
X154726000Y-88844904D01*
X154678380Y-88940142D01*
X154630761Y-88987761D01*
X154535523Y-89035380D01*
X154392666Y-89035380D01*
X155154571Y-88368714D02*
X155154571Y-89035380D01*
X155154571Y-88463952D02*
X155202190Y-88416333D01*
X155297428Y-88368714D01*
X155440285Y-88368714D01*
X155535523Y-88416333D01*
X155583142Y-88511571D01*
X155583142Y-89035380D01*
X155916476Y-88368714D02*
X156297428Y-88368714D01*
X156059333Y-88035380D02*
X156059333Y-88892523D01*
X156106952Y-88987761D01*
X156202190Y-89035380D01*
X156297428Y-89035380D01*
X156630761Y-89035380D02*
X156630761Y-88368714D01*
X156630761Y-88559190D02*
X156678380Y-88463952D01*
X156726000Y-88416333D01*
X156821238Y-88368714D01*
X156916476Y-88368714D01*
X157392666Y-89035380D02*
X157297428Y-88987761D01*
X157249809Y-88940142D01*
X157202190Y-88844904D01*
X157202190Y-88559190D01*
X157249809Y-88463952D01*
X157297428Y-88416333D01*
X157392666Y-88368714D01*
X157535523Y-88368714D01*
X157630761Y-88416333D01*
X157678380Y-88463952D01*
X157726000Y-88559190D01*
X157726000Y-88844904D01*
X157678380Y-88940142D01*
X157630761Y-88987761D01*
X157535523Y-89035380D01*
X157392666Y-89035380D01*
X158297428Y-89035380D02*
X158202190Y-88987761D01*
X158154571Y-88892523D01*
X158154571Y-88035380D01*
X158821238Y-89035380D02*
X158726000Y-88987761D01*
X158678380Y-88892523D01*
X158678380Y-88035380D01*
X159583142Y-88987761D02*
X159487904Y-89035380D01*
X159297428Y-89035380D01*
X159202190Y-88987761D01*
X159154571Y-88892523D01*
X159154571Y-88511571D01*
X159202190Y-88416333D01*
X159297428Y-88368714D01*
X159487904Y-88368714D01*
X159583142Y-88416333D01*
X159630761Y-88511571D01*
X159630761Y-88606809D01*
X159154571Y-88702047D01*
X160059333Y-89035380D02*
X160059333Y-88368714D01*
X160059333Y-88559190D02*
X160106952Y-88463952D01*
X160154571Y-88416333D01*
X160249809Y-88368714D01*
X160345047Y-88368714D01*
X161440285Y-88654428D02*
X162202190Y-88654428D01*
X163345047Y-88368714D02*
X163583142Y-89035380D01*
X163821238Y-88368714D01*
X164154571Y-88130619D02*
X164202190Y-88083000D01*
X164297428Y-88035380D01*
X164535523Y-88035380D01*
X164630761Y-88083000D01*
X164678380Y-88130619D01*
X164726000Y-88225857D01*
X164726000Y-88321095D01*
X164678380Y-88463952D01*
X164106952Y-89035380D01*
X164726000Y-89035380D01*
X165154571Y-88940142D02*
X165202190Y-88987761D01*
X165154571Y-89035380D01*
X165106952Y-88987761D01*
X165154571Y-88940142D01*
X165154571Y-89035380D01*
X165821238Y-88035380D02*
X165916476Y-88035380D01*
X166011714Y-88083000D01*
X166059333Y-88130619D01*
X166106952Y-88225857D01*
X166154571Y-88416333D01*
X166154571Y-88654428D01*
X166106952Y-88844904D01*
X166059333Y-88940142D01*
X166011714Y-88987761D01*
X165916476Y-89035380D01*
X165821238Y-89035380D01*
X165726000Y-88987761D01*
X165678380Y-88940142D01*
X165630761Y-88844904D01*
X165583142Y-88654428D01*
X165583142Y-88416333D01*
X165630761Y-88225857D01*
X165678380Y-88130619D01*
X165726000Y-88083000D01*
X165821238Y-88035380D01*
X153892666Y-90685380D02*
X153321238Y-90685380D01*
X153606952Y-90685380D02*
X153606952Y-89685380D01*
X153511714Y-89828238D01*
X153416476Y-89923476D01*
X153321238Y-89971095D01*
X154845047Y-90685380D02*
X154273619Y-90685380D01*
X154559333Y-90685380D02*
X154559333Y-89685380D01*
X154464095Y-89828238D01*
X154368857Y-89923476D01*
X154273619Y-89971095D01*
X155273619Y-90304428D02*
X156035523Y-90304428D01*
X157035523Y-90685380D02*
X156464095Y-90685380D01*
X156749809Y-90685380D02*
X156749809Y-89685380D01*
X156654571Y-89828238D01*
X156559333Y-89923476D01*
X156464095Y-89971095D01*
X157987904Y-90685380D02*
X157416476Y-90685380D01*
X157702190Y-90685380D02*
X157702190Y-89685380D01*
X157606952Y-89828238D01*
X157511714Y-89923476D01*
X157416476Y-89971095D01*
X158416476Y-90304428D02*
X159178380Y-90304428D01*
X159606952Y-89780619D02*
X159654571Y-89733000D01*
X159749809Y-89685380D01*
X159987904Y-89685380D01*
X160083142Y-89733000D01*
X160130761Y-89780619D01*
X160178380Y-89875857D01*
X160178380Y-89971095D01*
X160130761Y-90113952D01*
X159559333Y-90685380D01*
X160178380Y-90685380D01*
X161130761Y-90685380D02*
X160559333Y-90685380D01*
X160845047Y-90685380D02*
X160845047Y-89685380D01*
X160749809Y-89828238D01*
X160654571Y-89923476D01*
X160559333Y-89971095D01*
%TO.C,J2*%
X136725000Y-28490000D02*
X136725000Y-60790000D01*
X149025000Y-28490000D02*
X149025000Y-60790000D01*
X136725000Y-28490000D02*
X149025000Y-28490000D01*
X142875000Y-66990203D02*
G75*
G03*
X149025000Y-60790000I0J6150203D01*
G01*
X136725203Y-60790002D02*
G75*
G03*
X142875000Y-66990000I6149797J-49998D01*
G01*
%TO.C,U1*%
X166370000Y-59055000D02*
X148590000Y-59055000D01*
X166370000Y-28575000D02*
X166370000Y-59055000D01*
X161290000Y-28575000D02*
X166370000Y-28575000D01*
X161290000Y-26035000D02*
X161290000Y-28575000D01*
X153670000Y-26035000D02*
X161290000Y-26035000D01*
X153670000Y-28575000D02*
X153670000Y-26035000D01*
X148590000Y-28575000D02*
X153670000Y-28575000D01*
X148590000Y-28575000D02*
X148590000Y-59055000D01*
%TO.C,J1*%
X158400000Y-66645000D02*
X152900000Y-66645000D01*
X158400000Y-62145000D02*
X158400000Y-66645000D01*
X167400000Y-62145000D02*
X158400000Y-62145000D01*
X167400000Y-59645000D02*
X167400000Y-62145000D01*
X169400000Y-59645000D02*
X167400000Y-59645000D01*
X169400000Y-62145000D02*
X169400000Y-59645000D01*
X172400000Y-62145000D02*
X169400000Y-62145000D01*
X172400000Y-87145000D02*
X172400000Y-62145000D01*
X169400000Y-87145000D02*
X172400000Y-87145000D01*
X169400000Y-89645000D02*
X169400000Y-87145000D01*
X167400000Y-89645000D02*
X169400000Y-89645000D01*
X167400000Y-87145000D02*
X167400000Y-89645000D01*
X158400000Y-87145000D02*
X167400000Y-87145000D01*
X158400000Y-82645000D02*
X158400000Y-87145000D01*
X152900000Y-82645000D02*
X158400000Y-82645000D01*
D11*
%TO.C,J3*%
X133350000Y-71703675D02*
X133100000Y-71270662D01*
X133600000Y-71270662D02*
X133350000Y-71703675D01*
X133100000Y-71270662D02*
X133600000Y-71270662D01*
X147500000Y-80805000D02*
X147500000Y-84905000D01*
X145490000Y-80805000D02*
X147500000Y-80805000D01*
X145490000Y-71965000D02*
X145490000Y-80805000D01*
X132290000Y-71965000D02*
X145490000Y-71965000D01*
X132290000Y-80805000D02*
X132290000Y-71965000D01*
X130280000Y-80805000D02*
X132290000Y-80805000D01*
X130280000Y-84905000D02*
X130280000Y-80805000D01*
%TO.C,J2*%
D10*
X139342761Y-49386666D02*
X139390380Y-49243809D01*
X139390380Y-49005714D01*
X139342761Y-48910476D01*
X139295142Y-48862857D01*
X139199904Y-48815238D01*
X139104666Y-48815238D01*
X139009428Y-48862857D01*
X138961809Y-48910476D01*
X138914190Y-49005714D01*
X138866571Y-49196190D01*
X138818952Y-49291428D01*
X138771333Y-49339047D01*
X138676095Y-49386666D01*
X138580857Y-49386666D01*
X138485619Y-49339047D01*
X138438000Y-49291428D01*
X138390380Y-49196190D01*
X138390380Y-48958095D01*
X138438000Y-48815238D01*
X139390380Y-48386666D02*
X138390380Y-48386666D01*
X139390380Y-47815238D01*
X138390380Y-47815238D01*
X138866571Y-47339047D02*
X138866571Y-47005714D01*
X139390380Y-46862857D02*
X139390380Y-47339047D01*
X138390380Y-47339047D01*
X138390380Y-46862857D01*
X139342761Y-46481904D02*
X139390380Y-46339047D01*
X139390380Y-46100952D01*
X139342761Y-46005714D01*
X139295142Y-45958095D01*
X139199904Y-45910476D01*
X139104666Y-45910476D01*
X139009428Y-45958095D01*
X138961809Y-46005714D01*
X138914190Y-46100952D01*
X138866571Y-46291428D01*
X138818952Y-46386666D01*
X138771333Y-46434285D01*
X138676095Y-46481904D01*
X138580857Y-46481904D01*
X138485619Y-46434285D01*
X138438000Y-46386666D01*
X138390380Y-46291428D01*
X138390380Y-46053333D01*
X138438000Y-45910476D01*
X139390380Y-44720000D02*
X138390380Y-44720000D01*
X138390380Y-44339047D01*
X138438000Y-44243809D01*
X138485619Y-44196190D01*
X138580857Y-44148571D01*
X138723714Y-44148571D01*
X138818952Y-44196190D01*
X138866571Y-44243809D01*
X138914190Y-44339047D01*
X138914190Y-44720000D01*
X139390380Y-43577142D02*
X139342761Y-43672380D01*
X139295142Y-43720000D01*
X139199904Y-43767619D01*
X138914190Y-43767619D01*
X138818952Y-43720000D01*
X138771333Y-43672380D01*
X138723714Y-43577142D01*
X138723714Y-43434285D01*
X138771333Y-43339047D01*
X138818952Y-43291428D01*
X138914190Y-43243809D01*
X139199904Y-43243809D01*
X139295142Y-43291428D01*
X139342761Y-43339047D01*
X139390380Y-43434285D01*
X139390380Y-43577142D01*
X139390380Y-42815238D02*
X138723714Y-42815238D01*
X138914190Y-42815238D02*
X138818952Y-42767619D01*
X138771333Y-42720000D01*
X138723714Y-42624761D01*
X138723714Y-42529523D01*
X138723714Y-42339047D02*
X138723714Y-41958095D01*
X138390380Y-42196190D02*
X139247523Y-42196190D01*
X139342761Y-42148571D01*
X139390380Y-42053333D01*
X139390380Y-41958095D01*
%TO.C,U1*%
X147772380Y-46838809D02*
X146772380Y-46838809D01*
X146772380Y-46457857D01*
X146820000Y-46362619D01*
X146867619Y-46315000D01*
X146962857Y-46267380D01*
X147105714Y-46267380D01*
X147200952Y-46315000D01*
X147248571Y-46362619D01*
X147296190Y-46457857D01*
X147296190Y-46838809D01*
X147772380Y-45838809D02*
X147105714Y-45838809D01*
X147296190Y-45838809D02*
X147200952Y-45791190D01*
X147153333Y-45743571D01*
X147105714Y-45648333D01*
X147105714Y-45553095D01*
X147772380Y-45076904D02*
X147724761Y-45172142D01*
X147677142Y-45219761D01*
X147581904Y-45267380D01*
X147296190Y-45267380D01*
X147200952Y-45219761D01*
X147153333Y-45172142D01*
X147105714Y-45076904D01*
X147105714Y-44934047D01*
X147153333Y-44838809D01*
X147200952Y-44791190D01*
X147296190Y-44743571D01*
X147581904Y-44743571D01*
X147677142Y-44791190D01*
X147724761Y-44838809D01*
X147772380Y-44934047D01*
X147772380Y-45076904D01*
X147772380Y-44315000D02*
X146772380Y-44315000D01*
X147486666Y-43981666D01*
X146772380Y-43648333D01*
X147772380Y-43648333D01*
X147772380Y-43172142D02*
X147105714Y-43172142D01*
X146772380Y-43172142D02*
X146820000Y-43219761D01*
X146867619Y-43172142D01*
X146820000Y-43124523D01*
X146772380Y-43172142D01*
X146867619Y-43172142D01*
X147724761Y-42267380D02*
X147772380Y-42362619D01*
X147772380Y-42553095D01*
X147724761Y-42648333D01*
X147677142Y-42695952D01*
X147581904Y-42743571D01*
X147296190Y-42743571D01*
X147200952Y-42695952D01*
X147153333Y-42648333D01*
X147105714Y-42553095D01*
X147105714Y-42362619D01*
X147153333Y-42267380D01*
X147772380Y-41838809D02*
X147105714Y-41838809D01*
X147296190Y-41838809D02*
X147200952Y-41791190D01*
X147153333Y-41743571D01*
X147105714Y-41648333D01*
X147105714Y-41553095D01*
X147772380Y-41076904D02*
X147724761Y-41172142D01*
X147677142Y-41219761D01*
X147581904Y-41267380D01*
X147296190Y-41267380D01*
X147200952Y-41219761D01*
X147153333Y-41172142D01*
X147105714Y-41076904D01*
X147105714Y-40934047D01*
X147153333Y-40838809D01*
X147200952Y-40791190D01*
X147296190Y-40743571D01*
X147581904Y-40743571D01*
X147677142Y-40791190D01*
X147724761Y-40838809D01*
X147772380Y-40934047D01*
X147772380Y-41076904D01*
%TO.C,J1*%
X149852380Y-78707857D02*
X148852380Y-78707857D01*
X149852380Y-78136428D01*
X148852380Y-78136428D01*
X149328571Y-77660238D02*
X149328571Y-77326904D01*
X149852380Y-77184047D02*
X149852380Y-77660238D01*
X148852380Y-77660238D01*
X148852380Y-77184047D01*
X149804761Y-76803095D02*
X149852380Y-76660238D01*
X149852380Y-76422142D01*
X149804761Y-76326904D01*
X149757142Y-76279285D01*
X149661904Y-76231666D01*
X149566666Y-76231666D01*
X149471428Y-76279285D01*
X149423809Y-76326904D01*
X149376190Y-76422142D01*
X149328571Y-76612619D01*
X149280952Y-76707857D01*
X149233333Y-76755476D01*
X149138095Y-76803095D01*
X149042857Y-76803095D01*
X148947619Y-76755476D01*
X148900000Y-76707857D01*
X148852380Y-76612619D01*
X148852380Y-76374523D01*
X148900000Y-76231666D01*
X149852380Y-75041190D02*
X148852380Y-75041190D01*
X148852380Y-74660238D01*
X148900000Y-74565000D01*
X148947619Y-74517380D01*
X149042857Y-74469761D01*
X149185714Y-74469761D01*
X149280952Y-74517380D01*
X149328571Y-74565000D01*
X149376190Y-74660238D01*
X149376190Y-75041190D01*
X149852380Y-73898333D02*
X149804761Y-73993571D01*
X149757142Y-74041190D01*
X149661904Y-74088809D01*
X149376190Y-74088809D01*
X149280952Y-74041190D01*
X149233333Y-73993571D01*
X149185714Y-73898333D01*
X149185714Y-73755476D01*
X149233333Y-73660238D01*
X149280952Y-73612619D01*
X149376190Y-73565000D01*
X149661904Y-73565000D01*
X149757142Y-73612619D01*
X149804761Y-73660238D01*
X149852380Y-73755476D01*
X149852380Y-73898333D01*
X149852380Y-73136428D02*
X149185714Y-73136428D01*
X149376190Y-73136428D02*
X149280952Y-73088809D01*
X149233333Y-73041190D01*
X149185714Y-72945952D01*
X149185714Y-72850714D01*
X149185714Y-72660238D02*
X149185714Y-72279285D01*
X148852380Y-72517380D02*
X149709523Y-72517380D01*
X149804761Y-72469761D01*
X149852380Y-72374523D01*
X149852380Y-72279285D01*
%TO.C,J3*%
X132342380Y-77605000D02*
X132247142Y-77557380D01*
X132104285Y-77557380D01*
X131961428Y-77605000D01*
X131866190Y-77700238D01*
X131818571Y-77795476D01*
X131770952Y-77985952D01*
X131770952Y-78128809D01*
X131818571Y-78319285D01*
X131866190Y-78414523D01*
X131961428Y-78509761D01*
X132104285Y-78557380D01*
X132199523Y-78557380D01*
X132342380Y-78509761D01*
X132390000Y-78462142D01*
X132390000Y-78128809D01*
X132199523Y-78128809D01*
X133199523Y-78509761D02*
X133104285Y-78557380D01*
X132913809Y-78557380D01*
X132818571Y-78509761D01*
X132770952Y-78414523D01*
X132770952Y-78033571D01*
X132818571Y-77938333D01*
X132913809Y-77890714D01*
X133104285Y-77890714D01*
X133199523Y-77938333D01*
X133247142Y-78033571D01*
X133247142Y-78128809D01*
X132770952Y-78224047D01*
X133675714Y-77890714D02*
X133675714Y-78557380D01*
X133675714Y-77985952D02*
X133723333Y-77938333D01*
X133818571Y-77890714D01*
X133961428Y-77890714D01*
X134056666Y-77938333D01*
X134104285Y-78033571D01*
X134104285Y-78557380D01*
X134961428Y-78509761D02*
X134866190Y-78557380D01*
X134675714Y-78557380D01*
X134580476Y-78509761D01*
X134532857Y-78414523D01*
X134532857Y-78033571D01*
X134580476Y-77938333D01*
X134675714Y-77890714D01*
X134866190Y-77890714D01*
X134961428Y-77938333D01*
X135009047Y-78033571D01*
X135009047Y-78128809D01*
X134532857Y-78224047D01*
X135390000Y-78509761D02*
X135485238Y-78557380D01*
X135675714Y-78557380D01*
X135770952Y-78509761D01*
X135818571Y-78414523D01*
X135818571Y-78366904D01*
X135770952Y-78271666D01*
X135675714Y-78224047D01*
X135532857Y-78224047D01*
X135437619Y-78176428D01*
X135390000Y-78081190D01*
X135390000Y-78033571D01*
X135437619Y-77938333D01*
X135532857Y-77890714D01*
X135675714Y-77890714D01*
X135770952Y-77938333D01*
X136247142Y-78557380D02*
X136247142Y-77890714D01*
X136247142Y-77557380D02*
X136199523Y-77605000D01*
X136247142Y-77652619D01*
X136294761Y-77605000D01*
X136247142Y-77557380D01*
X136247142Y-77652619D01*
X136675714Y-78509761D02*
X136770952Y-78557380D01*
X136961428Y-78557380D01*
X137056666Y-78509761D01*
X137104285Y-78414523D01*
X137104285Y-78366904D01*
X137056666Y-78271666D01*
X136961428Y-78224047D01*
X136818571Y-78224047D01*
X136723333Y-78176428D01*
X136675714Y-78081190D01*
X136675714Y-78033571D01*
X136723333Y-77938333D01*
X136818571Y-77890714D01*
X136961428Y-77890714D01*
X137056666Y-77938333D01*
X138294761Y-78557380D02*
X138294761Y-77557380D01*
X138675714Y-77557380D01*
X138770952Y-77605000D01*
X138818571Y-77652619D01*
X138866190Y-77747857D01*
X138866190Y-77890714D01*
X138818571Y-77985952D01*
X138770952Y-78033571D01*
X138675714Y-78081190D01*
X138294761Y-78081190D01*
X139437619Y-78557380D02*
X139342380Y-78509761D01*
X139294761Y-78462142D01*
X139247142Y-78366904D01*
X139247142Y-78081190D01*
X139294761Y-77985952D01*
X139342380Y-77938333D01*
X139437619Y-77890714D01*
X139580476Y-77890714D01*
X139675714Y-77938333D01*
X139723333Y-77985952D01*
X139770952Y-78081190D01*
X139770952Y-78366904D01*
X139723333Y-78462142D01*
X139675714Y-78509761D01*
X139580476Y-78557380D01*
X139437619Y-78557380D01*
X140199523Y-78557380D02*
X140199523Y-77890714D01*
X140199523Y-78081190D02*
X140247142Y-77985952D01*
X140294761Y-77938333D01*
X140390000Y-77890714D01*
X140485238Y-77890714D01*
X140675714Y-77890714D02*
X141056666Y-77890714D01*
X140818571Y-77557380D02*
X140818571Y-78414523D01*
X140866190Y-78509761D01*
X140961428Y-78557380D01*
X141056666Y-78557380D01*
X142437619Y-78938333D02*
X142390000Y-78890714D01*
X142294761Y-78747857D01*
X142247142Y-78652619D01*
X142199523Y-78509761D01*
X142151904Y-78271666D01*
X142151904Y-78081190D01*
X142199523Y-77843095D01*
X142247142Y-77700238D01*
X142294761Y-77605000D01*
X142390000Y-77462142D01*
X142437619Y-77414523D01*
X142818571Y-78557380D02*
X142818571Y-77557380D01*
X143056666Y-77557380D01*
X143199523Y-77605000D01*
X143294761Y-77700238D01*
X143342380Y-77795476D01*
X143390000Y-77985952D01*
X143390000Y-78128809D01*
X143342380Y-78319285D01*
X143294761Y-78414523D01*
X143199523Y-78509761D01*
X143056666Y-78557380D01*
X142818571Y-78557380D01*
X144151904Y-78033571D02*
X144294761Y-78081190D01*
X144342380Y-78128809D01*
X144390000Y-78224047D01*
X144390000Y-78366904D01*
X144342380Y-78462142D01*
X144294761Y-78509761D01*
X144199523Y-78557380D01*
X143818571Y-78557380D01*
X143818571Y-77557380D01*
X144151904Y-77557380D01*
X144247142Y-77605000D01*
X144294761Y-77652619D01*
X144342380Y-77747857D01*
X144342380Y-77843095D01*
X144294761Y-77938333D01*
X144247142Y-77985952D01*
X144151904Y-78033571D01*
X143818571Y-78033571D01*
X144866190Y-78557380D02*
X145056666Y-78557380D01*
X145151904Y-78509761D01*
X145199523Y-78462142D01*
X145294761Y-78319285D01*
X145342380Y-78128809D01*
X145342380Y-77747857D01*
X145294761Y-77652619D01*
X145247142Y-77605000D01*
X145151904Y-77557380D01*
X144961428Y-77557380D01*
X144866190Y-77605000D01*
X144818571Y-77652619D01*
X144770952Y-77747857D01*
X144770952Y-77985952D01*
X144818571Y-78081190D01*
X144866190Y-78128809D01*
X144961428Y-78176428D01*
X145151904Y-78176428D01*
X145247142Y-78128809D01*
X145294761Y-78081190D01*
X145342380Y-77985952D01*
X145675714Y-78938333D02*
X145723333Y-78890714D01*
X145818571Y-78747857D01*
X145866190Y-78652619D01*
X145913809Y-78509761D01*
X145961428Y-78271666D01*
X145961428Y-78081190D01*
X145913809Y-77843095D01*
X145866190Y-77700238D01*
X145818571Y-77605000D01*
X145723333Y-77462142D01*
X145675714Y-77414523D01*
%TD*%
M02*
