%TF.GenerationSoftware,KiCad,Pcbnew,(5.1.10-1-10_14)*%
%TF.CreationDate,2021-12-03T14:09:27-05:00*%
%TF.ProjectId,Triple Controller V2,54726970-6c65-4204-936f-6e74726f6c6c,rev?*%
%TF.SameCoordinates,Original*%
%TF.FileFunction,Copper,L1,Top*%
%TF.FilePolarity,Positive*%
%FSLAX46Y46*%
G04 Gerber Fmt 4.6, Leading zero omitted, Abs format (unit mm)*
G04 Created by KiCad (PCBNEW (5.1.10-1-10_14)) date 2021-12-03 14:09:27*
%MOMM*%
%LPD*%
G01*
G04 APERTURE LIST*
%TA.AperFunction,ComponentPad*%
%ADD10C,3.000000*%
%TD*%
%TA.AperFunction,ComponentPad*%
%ADD11C,1.600000*%
%TD*%
%TA.AperFunction,ComponentPad*%
%ADD12R,1.600000X1.600000*%
%TD*%
%TA.AperFunction,ComponentPad*%
%ADD13C,2.200000*%
%TD*%
%TA.AperFunction,ViaPad*%
%ADD14C,0.800000*%
%TD*%
%TA.AperFunction,Conductor*%
%ADD15C,0.500000*%
%TD*%
%TA.AperFunction,Conductor*%
%ADD16C,0.254000*%
%TD*%
%TA.AperFunction,Conductor*%
%ADD17C,0.100000*%
%TD*%
G04 APERTURE END LIST*
D10*
%TO.P,J2,7*%
%TO.N,Net-(J1-Pad1)*%
X142875000Y-60790000D03*
%TO.P,J2,6*%
%TO.N,Net-(J2-Pad6)*%
X142875000Y-56790000D03*
%TO.P,J2,5*%
%TO.N,Net-(J2-Pad5)*%
X142875000Y-52790000D03*
%TO.P,J2,4*%
%TO.N,Net-(J2-Pad4)*%
X142875000Y-46290000D03*
%TO.P,J2,3*%
%TO.N,Net-(J1-Pad3)*%
X142875000Y-42290000D03*
%TO.P,J2,2*%
%TO.N,Net-(J1-Pad2)*%
X142875000Y-38290000D03*
%TO.P,J2,1*%
%TO.N,Net-(J1-Pad7)*%
X142875000Y-34290000D03*
%TD*%
D11*
%TO.P,U1,24*%
%TO.N,Net-(U1-Pad24)*%
X165100000Y-29845000D03*
%TO.P,U1,23*%
%TO.N,Net-(U1-Pad23)*%
X165100000Y-32385000D03*
%TO.P,U1,22*%
%TO.N,Net-(U1-Pad22)*%
X165100000Y-34925000D03*
%TO.P,U1,21*%
%TO.N,Net-(J1-Pad7)*%
X165100000Y-37465000D03*
%TO.P,U1,20*%
%TO.N,Net-(J3-Pad4)*%
X165100000Y-40005000D03*
%TO.P,U1,19*%
%TO.N,Net-(J3-Pad3)*%
X165100000Y-42545000D03*
%TO.P,U1,18*%
%TO.N,Net-(J2-Pad4)*%
X165100000Y-45085000D03*
%TO.P,U1,17*%
%TO.N,Net-(J1-Pad4)*%
X165100000Y-47625000D03*
%TO.P,U1,16*%
%TO.N,Net-(J3-Pad9)*%
X165100000Y-50165000D03*
%TO.P,U1,15*%
%TO.N,Net-(J3-Pad6)*%
X165100000Y-52705000D03*
%TO.P,U1,14*%
%TO.N,Net-(J3-Pad2)*%
X165100000Y-55245000D03*
%TO.P,U1,13*%
%TO.N,Net-(U1-Pad13)*%
X165100000Y-57785000D03*
%TO.P,U1,12*%
%TO.N,Net-(J1-Pad5)*%
X149860000Y-57785000D03*
%TO.P,U1,11*%
%TO.N,Net-(J1-Pad6)*%
X149860000Y-55245000D03*
%TO.P,U1,10*%
%TO.N,Net-(J3-Pad7)*%
X149860000Y-52705000D03*
%TO.P,U1,9*%
%TO.N,Net-(J3-Pad5)*%
X149860000Y-50165000D03*
%TO.P,U1,8*%
%TO.N,Net-(J3-Pad1)*%
X149860000Y-47625000D03*
%TO.P,U1,7*%
%TO.N,Net-(U1-Pad7)*%
X149860000Y-45085000D03*
%TO.P,U1,6*%
%TO.N,Net-(J1-Pad2)*%
X149860000Y-42545000D03*
%TO.P,U1,5*%
%TO.N,Net-(J1-Pad3)*%
X149860000Y-40005000D03*
%TO.P,U1,4*%
%TO.N,Net-(J1-Pad1)*%
X149860000Y-37465000D03*
%TO.P,U1,3*%
X149860000Y-34925000D03*
%TO.P,U1,2*%
%TO.N,Net-(J2-Pad5)*%
X149860000Y-32385000D03*
D12*
%TO.P,U1,1*%
%TO.N,Net-(J2-Pad6)*%
X149860000Y-29845000D03*
%TD*%
D13*
%TO.P,J1,7*%
%TO.N,Net-(J1-Pad7)*%
X155400000Y-72645000D03*
%TO.P,J1,6*%
%TO.N,Net-(J1-Pad6)*%
X155400000Y-76645000D03*
%TO.P,J1,5*%
%TO.N,Net-(J1-Pad5)*%
X155400000Y-80645000D03*
%TO.P,J1,1*%
%TO.N,Net-(J1-Pad1)*%
X152400000Y-68645000D03*
%TO.P,J1,2*%
%TO.N,Net-(J1-Pad2)*%
X152400000Y-72645000D03*
%TO.P,J1,3*%
%TO.N,Net-(J1-Pad3)*%
X152400000Y-76645000D03*
%TO.P,J1,4*%
%TO.N,Net-(J1-Pad4)*%
X152400000Y-80645000D03*
%TD*%
D11*
%TO.P,J3,9*%
%TO.N,Net-(J3-Pad9)*%
X143045000Y-75565000D03*
%TO.P,J3,8*%
%TO.N,Net-(J1-Pad1)*%
X140275000Y-75565000D03*
%TO.P,J3,7*%
%TO.N,Net-(J3-Pad7)*%
X137505000Y-75565000D03*
%TO.P,J3,6*%
%TO.N,Net-(J3-Pad6)*%
X134735000Y-75565000D03*
%TO.P,J3,5*%
%TO.N,Net-(J3-Pad5)*%
X144430000Y-73025000D03*
%TO.P,J3,4*%
%TO.N,Net-(J3-Pad4)*%
X141660000Y-73025000D03*
%TO.P,J3,3*%
%TO.N,Net-(J3-Pad3)*%
X138890000Y-73025000D03*
%TO.P,J3,2*%
%TO.N,Net-(J3-Pad2)*%
X136120000Y-73025000D03*
D12*
%TO.P,J3,1*%
%TO.N,Net-(J3-Pad1)*%
X133350000Y-73025000D03*
%TD*%
D14*
%TO.N,Net-(J2-Pad4)*%
X145745200Y-64998600D03*
%TO.N,Net-(J3-Pad9)*%
X155397200Y-59867800D03*
X155397200Y-67614800D03*
%TO.N,Net-(J3-Pad2)*%
X136120000Y-71019800D03*
X142797400Y-71019800D03*
X145820000Y-71019800D03*
%TD*%
D15*
%TO.N,Net-(J2-Pad4)*%
X146888200Y-64998600D02*
X145745200Y-64998600D01*
X147828000Y-64998600D02*
X146888200Y-64998600D01*
X163753800Y-49072800D02*
X147828000Y-64998600D01*
X163753800Y-46431200D02*
X163753800Y-49072800D01*
X165100000Y-45085000D02*
X163753800Y-46431200D01*
%TO.N,Net-(J1-Pad3)*%
X133426200Y-79603600D02*
X149441400Y-79603600D01*
X149441400Y-79603600D02*
X152400000Y-76645000D01*
X130403600Y-54761400D02*
X130403600Y-76581000D01*
X130403600Y-76581000D02*
X133426200Y-79603600D01*
X142875000Y-42290000D02*
X130403600Y-54761400D01*
%TO.N,Net-(J3-Pad9)*%
X165100000Y-50165000D02*
X155397200Y-59867800D01*
X155397200Y-59867800D02*
X155397200Y-59867800D01*
X155397200Y-67614800D02*
X155397200Y-69443600D01*
X155397200Y-69443600D02*
X154178000Y-70662800D01*
X149078570Y-70662800D02*
X144176370Y-75565000D01*
X144176370Y-75565000D02*
X143045000Y-75565000D01*
X154178000Y-70662800D02*
X149078570Y-70662800D01*
%TO.N,Net-(J3-Pad2)*%
X136120000Y-71019800D02*
X142797400Y-71019800D01*
X142797400Y-71019800D02*
X142797400Y-71019800D01*
X152507798Y-66243200D02*
X150596600Y-66243200D01*
X165100000Y-55245000D02*
X163505998Y-55245000D01*
X163505998Y-55245000D02*
X152507798Y-66243200D01*
X150596600Y-66243200D02*
X145820000Y-71019800D01*
%TO.N,Net-(J3-Pad1)*%
X149860000Y-47625000D02*
X146329400Y-47625000D01*
X139560300Y-49009300D02*
X133350000Y-55219600D01*
X144614900Y-49009300D02*
X139560300Y-49009300D01*
X145999200Y-47625000D02*
X144614900Y-49009300D01*
X133350000Y-55219600D02*
X133350000Y-73025000D01*
X149860000Y-47625000D02*
X145999200Y-47625000D01*
%TO.N,Net-(J3-Pad5)*%
X149860000Y-50165000D02*
X145948400Y-54076600D01*
X145948400Y-54076600D02*
X145948400Y-62407800D01*
X144430000Y-63926200D02*
X144430000Y-73025000D01*
X145948400Y-62407800D02*
X144430000Y-63926200D01*
%TD*%
D16*
%TO.N,Net-(J1-Pad7)*%
X168250001Y-83953231D02*
X168231817Y-83861814D01*
X168029417Y-83373175D01*
X167735576Y-82933412D01*
X167361588Y-82559424D01*
X166921825Y-82265583D01*
X166433186Y-82063183D01*
X165914449Y-81960000D01*
X165385551Y-81960000D01*
X164866814Y-82063183D01*
X164378175Y-82265583D01*
X163938412Y-82559424D01*
X163564424Y-82933412D01*
X163270583Y-83373175D01*
X163068183Y-83861814D01*
X162965000Y-84380551D01*
X162965000Y-84909449D01*
X163068183Y-85428186D01*
X163270583Y-85916825D01*
X163564424Y-86356588D01*
X163938412Y-86730576D01*
X164378175Y-87024417D01*
X164866814Y-87226817D01*
X165385551Y-87330000D01*
X165914449Y-87330000D01*
X166433186Y-87226817D01*
X166921825Y-87024417D01*
X167361588Y-86730576D01*
X167735576Y-86356588D01*
X168029417Y-85916825D01*
X168231817Y-85428186D01*
X168250001Y-85336769D01*
X168250001Y-90780000D01*
X128930000Y-90780000D01*
X128930000Y-54761400D01*
X129514319Y-54761400D01*
X129518600Y-54804869D01*
X129518601Y-76537521D01*
X129514319Y-76581000D01*
X129531405Y-76754490D01*
X129582012Y-76921313D01*
X129664190Y-77075059D01*
X129747068Y-77176046D01*
X129747071Y-77176049D01*
X129774784Y-77209817D01*
X129808551Y-77237529D01*
X132769670Y-80198649D01*
X132797383Y-80232417D01*
X132831151Y-80260130D01*
X132831153Y-80260132D01*
X132932140Y-80343010D01*
X132932141Y-80343011D01*
X133085887Y-80425189D01*
X133202103Y-80460443D01*
X133252709Y-80475795D01*
X133267506Y-80477252D01*
X133382723Y-80488600D01*
X133382731Y-80488600D01*
X133426200Y-80492881D01*
X133469669Y-80488600D01*
X149397931Y-80488600D01*
X149441400Y-80492881D01*
X149484869Y-80488600D01*
X149484877Y-80488600D01*
X149614890Y-80475795D01*
X149620421Y-80474117D01*
X150665000Y-80474117D01*
X150665000Y-80815883D01*
X150731675Y-81151081D01*
X150862463Y-81466831D01*
X151052337Y-81750998D01*
X151294002Y-81992663D01*
X151578169Y-82182537D01*
X151893919Y-82313325D01*
X152229117Y-82380000D01*
X152570883Y-82380000D01*
X152906081Y-82313325D01*
X153221831Y-82182537D01*
X153505998Y-81992663D01*
X153747663Y-81750998D01*
X153900000Y-81523009D01*
X154052337Y-81750998D01*
X154294002Y-81992663D01*
X154578169Y-82182537D01*
X154893919Y-82313325D01*
X155229117Y-82380000D01*
X155570883Y-82380000D01*
X155906081Y-82313325D01*
X156221831Y-82182537D01*
X156505998Y-81992663D01*
X156747663Y-81750998D01*
X156937537Y-81466831D01*
X157068325Y-81151081D01*
X157135000Y-80815883D01*
X157135000Y-80474117D01*
X157068325Y-80138919D01*
X156937537Y-79823169D01*
X156747663Y-79539002D01*
X156505998Y-79297337D01*
X156221831Y-79107463D01*
X155906081Y-78976675D01*
X155570883Y-78910000D01*
X155229117Y-78910000D01*
X154893919Y-78976675D01*
X154578169Y-79107463D01*
X154294002Y-79297337D01*
X154052337Y-79539002D01*
X153900000Y-79766991D01*
X153747663Y-79539002D01*
X153505998Y-79297337D01*
X153221831Y-79107463D01*
X152906081Y-78976675D01*
X152570883Y-78910000D01*
X152229117Y-78910000D01*
X151893919Y-78976675D01*
X151578169Y-79107463D01*
X151294002Y-79297337D01*
X151052337Y-79539002D01*
X150862463Y-79823169D01*
X150731675Y-80138919D01*
X150665000Y-80474117D01*
X149620421Y-80474117D01*
X149781713Y-80425189D01*
X149935459Y-80343011D01*
X150070217Y-80232417D01*
X150097934Y-80198644D01*
X151968432Y-78328147D01*
X152229117Y-78380000D01*
X152570883Y-78380000D01*
X152906081Y-78313325D01*
X153221831Y-78182537D01*
X153505998Y-77992663D01*
X153747663Y-77750998D01*
X153900000Y-77523009D01*
X154052337Y-77750998D01*
X154294002Y-77992663D01*
X154578169Y-78182537D01*
X154893919Y-78313325D01*
X155229117Y-78380000D01*
X155570883Y-78380000D01*
X155906081Y-78313325D01*
X156221831Y-78182537D01*
X156505998Y-77992663D01*
X156747663Y-77750998D01*
X156937537Y-77466831D01*
X157068325Y-77151081D01*
X157135000Y-76815883D01*
X157135000Y-76474117D01*
X157068325Y-76138919D01*
X156937537Y-75823169D01*
X156747663Y-75539002D01*
X156505998Y-75297337D01*
X156221831Y-75107463D01*
X155906081Y-74976675D01*
X155570883Y-74910000D01*
X155229117Y-74910000D01*
X154893919Y-74976675D01*
X154578169Y-75107463D01*
X154294002Y-75297337D01*
X154052337Y-75539002D01*
X153900000Y-75766991D01*
X153747663Y-75539002D01*
X153505998Y-75297337D01*
X153221831Y-75107463D01*
X152906081Y-74976675D01*
X152570883Y-74910000D01*
X152229117Y-74910000D01*
X151893919Y-74976675D01*
X151578169Y-75107463D01*
X151294002Y-75297337D01*
X151052337Y-75539002D01*
X150862463Y-75823169D01*
X150731675Y-76138919D01*
X150665000Y-76474117D01*
X150665000Y-76815883D01*
X150716853Y-77076568D01*
X149074822Y-78718600D01*
X133792779Y-78718600D01*
X131288600Y-76214422D01*
X131288600Y-55127978D01*
X140873462Y-45543117D01*
X140822047Y-45667244D01*
X140740000Y-46079721D01*
X140740000Y-46500279D01*
X140822047Y-46912756D01*
X140982988Y-47301302D01*
X141216637Y-47650983D01*
X141514017Y-47948363D01*
X141777326Y-48124300D01*
X139603765Y-48124300D01*
X139560299Y-48120019D01*
X139516833Y-48124300D01*
X139516823Y-48124300D01*
X139386810Y-48137105D01*
X139219987Y-48187711D01*
X139066241Y-48269889D01*
X139066239Y-48269890D01*
X139066240Y-48269890D01*
X138965253Y-48352768D01*
X138965251Y-48352770D01*
X138931483Y-48380483D01*
X138903770Y-48414251D01*
X132754956Y-54563066D01*
X132721183Y-54590783D01*
X132610589Y-54725542D01*
X132528411Y-54879288D01*
X132477805Y-55046111D01*
X132465000Y-55176124D01*
X132465000Y-55176131D01*
X132460719Y-55219600D01*
X132465000Y-55263069D01*
X132465001Y-71595299D01*
X132425518Y-71599188D01*
X132305820Y-71635498D01*
X132195506Y-71694463D01*
X132098815Y-71773815D01*
X132019463Y-71870506D01*
X131960498Y-71980820D01*
X131924188Y-72100518D01*
X131911928Y-72225000D01*
X131911928Y-73825000D01*
X131924188Y-73949482D01*
X131960498Y-74069180D01*
X132019463Y-74179494D01*
X132098815Y-74276185D01*
X132195506Y-74355537D01*
X132305820Y-74414502D01*
X132425518Y-74450812D01*
X132550000Y-74463072D01*
X133807532Y-74463072D01*
X133620363Y-74650241D01*
X133463320Y-74885273D01*
X133355147Y-75146426D01*
X133300000Y-75423665D01*
X133300000Y-75706335D01*
X133355147Y-75983574D01*
X133463320Y-76244727D01*
X133620363Y-76479759D01*
X133820241Y-76679637D01*
X134055273Y-76836680D01*
X134316426Y-76944853D01*
X134593665Y-77000000D01*
X134876335Y-77000000D01*
X135153574Y-76944853D01*
X135414727Y-76836680D01*
X135649759Y-76679637D01*
X135849637Y-76479759D01*
X136006680Y-76244727D01*
X136114853Y-75983574D01*
X136120000Y-75957699D01*
X136125147Y-75983574D01*
X136233320Y-76244727D01*
X136390363Y-76479759D01*
X136590241Y-76679637D01*
X136825273Y-76836680D01*
X137086426Y-76944853D01*
X137363665Y-77000000D01*
X137646335Y-77000000D01*
X137923574Y-76944853D01*
X138184727Y-76836680D01*
X138419759Y-76679637D01*
X138619637Y-76479759D01*
X138776680Y-76244727D01*
X138884853Y-75983574D01*
X138890000Y-75957699D01*
X138895147Y-75983574D01*
X139003320Y-76244727D01*
X139160363Y-76479759D01*
X139360241Y-76679637D01*
X139595273Y-76836680D01*
X139856426Y-76944853D01*
X140133665Y-77000000D01*
X140416335Y-77000000D01*
X140693574Y-76944853D01*
X140954727Y-76836680D01*
X141189759Y-76679637D01*
X141389637Y-76479759D01*
X141546680Y-76244727D01*
X141654853Y-75983574D01*
X141660000Y-75957699D01*
X141665147Y-75983574D01*
X141773320Y-76244727D01*
X141930363Y-76479759D01*
X142130241Y-76679637D01*
X142365273Y-76836680D01*
X142626426Y-76944853D01*
X142903665Y-77000000D01*
X143186335Y-77000000D01*
X143463574Y-76944853D01*
X143724727Y-76836680D01*
X143959759Y-76679637D01*
X144159637Y-76479759D01*
X144176681Y-76454250D01*
X144219839Y-76450000D01*
X144219847Y-76450000D01*
X144349860Y-76437195D01*
X144516683Y-76386589D01*
X144670429Y-76304411D01*
X144805187Y-76193817D01*
X144832904Y-76160044D01*
X149445149Y-71547800D01*
X151046458Y-71547800D01*
X150862463Y-71823169D01*
X150731675Y-72138919D01*
X150665000Y-72474117D01*
X150665000Y-72815883D01*
X150731675Y-73151081D01*
X150862463Y-73466831D01*
X151052337Y-73750998D01*
X151294002Y-73992663D01*
X151578169Y-74182537D01*
X151893919Y-74313325D01*
X152229117Y-74380000D01*
X152570883Y-74380000D01*
X152906081Y-74313325D01*
X153221831Y-74182537D01*
X153505998Y-73992663D01*
X153646949Y-73851712D01*
X154372893Y-73851712D01*
X154480726Y-74126338D01*
X154787384Y-74277216D01*
X155117585Y-74365369D01*
X155458639Y-74387409D01*
X155797439Y-74342489D01*
X156120966Y-74232336D01*
X156319274Y-74126338D01*
X156427107Y-73851712D01*
X155400000Y-72824605D01*
X154372893Y-73851712D01*
X153646949Y-73851712D01*
X153747663Y-73750998D01*
X153898114Y-73525832D01*
X153918662Y-73564274D01*
X154193288Y-73672107D01*
X155220395Y-72645000D01*
X155579605Y-72645000D01*
X156606712Y-73672107D01*
X156881338Y-73564274D01*
X157032216Y-73257616D01*
X157120369Y-72927415D01*
X157142409Y-72586361D01*
X157097489Y-72247561D01*
X156987336Y-71924034D01*
X156881338Y-71725726D01*
X156606712Y-71617893D01*
X155579605Y-72645000D01*
X155220395Y-72645000D01*
X155206253Y-72630858D01*
X155385858Y-72451253D01*
X155400000Y-72465395D01*
X156427107Y-71438288D01*
X156319274Y-71163662D01*
X156012616Y-71012784D01*
X155682415Y-70924631D01*
X155341361Y-70902591D01*
X155166619Y-70925759D01*
X155992249Y-70100130D01*
X156026017Y-70072417D01*
X156057560Y-70033983D01*
X156136610Y-69937660D01*
X156188162Y-69841212D01*
X156218789Y-69783913D01*
X156269395Y-69617090D01*
X156282200Y-69487077D01*
X156282200Y-69487067D01*
X156286481Y-69443601D01*
X156282200Y-69400135D01*
X156282200Y-68153254D01*
X156314405Y-68105056D01*
X156392426Y-67916698D01*
X156432200Y-67716739D01*
X156432200Y-67512861D01*
X156392426Y-67312902D01*
X156314405Y-67124544D01*
X156201137Y-66955026D01*
X156056974Y-66810863D01*
X155887456Y-66697595D01*
X155699098Y-66619574D01*
X155499139Y-66579800D01*
X155295261Y-66579800D01*
X155095302Y-66619574D01*
X154906944Y-66697595D01*
X154737426Y-66810863D01*
X154593263Y-66955026D01*
X154479995Y-67124544D01*
X154401974Y-67312902D01*
X154362200Y-67512861D01*
X154362200Y-67716739D01*
X154401974Y-67916698D01*
X154479995Y-68105056D01*
X154512200Y-68153255D01*
X154512201Y-69077020D01*
X153811422Y-69777800D01*
X153720861Y-69777800D01*
X153747663Y-69750998D01*
X153937537Y-69466831D01*
X154068325Y-69151081D01*
X154135000Y-68815883D01*
X154135000Y-68474117D01*
X154068325Y-68138919D01*
X153937537Y-67823169D01*
X153747663Y-67539002D01*
X153505998Y-67297337D01*
X153221831Y-67107463D01*
X152966298Y-67001618D01*
X153001857Y-66982611D01*
X153136615Y-66872017D01*
X153164332Y-66838244D01*
X155622025Y-64380551D01*
X162715000Y-64380551D01*
X162715000Y-64909449D01*
X162818183Y-65428186D01*
X163020583Y-65916825D01*
X163314424Y-66356588D01*
X163688412Y-66730576D01*
X164128175Y-67024417D01*
X164616814Y-67226817D01*
X165135551Y-67330000D01*
X165664449Y-67330000D01*
X166183186Y-67226817D01*
X166671825Y-67024417D01*
X167111588Y-66730576D01*
X167485576Y-66356588D01*
X167779417Y-65916825D01*
X167981817Y-65428186D01*
X168085000Y-64909449D01*
X168085000Y-64380551D01*
X167981817Y-63861814D01*
X167779417Y-63373175D01*
X167485576Y-62933412D01*
X167111588Y-62559424D01*
X166671825Y-62265583D01*
X166183186Y-62063183D01*
X165664449Y-61960000D01*
X165135551Y-61960000D01*
X164616814Y-62063183D01*
X164128175Y-62265583D01*
X163688412Y-62559424D01*
X163314424Y-62933412D01*
X163020583Y-63373175D01*
X162818183Y-63861814D01*
X162715000Y-64380551D01*
X155622025Y-64380551D01*
X163872577Y-56130000D01*
X163965479Y-56130000D01*
X163985363Y-56159759D01*
X164185241Y-56359637D01*
X164417759Y-56515000D01*
X164185241Y-56670363D01*
X163985363Y-56870241D01*
X163828320Y-57105273D01*
X163720147Y-57366426D01*
X163665000Y-57643665D01*
X163665000Y-57926335D01*
X163720147Y-58203574D01*
X163828320Y-58464727D01*
X163985363Y-58699759D01*
X164185241Y-58899637D01*
X164420273Y-59056680D01*
X164681426Y-59164853D01*
X164958665Y-59220000D01*
X165241335Y-59220000D01*
X165518574Y-59164853D01*
X165779727Y-59056680D01*
X166014759Y-58899637D01*
X166214637Y-58699759D01*
X166371680Y-58464727D01*
X166479853Y-58203574D01*
X166535000Y-57926335D01*
X166535000Y-57643665D01*
X166479853Y-57366426D01*
X166371680Y-57105273D01*
X166214637Y-56870241D01*
X166014759Y-56670363D01*
X165782241Y-56515000D01*
X166014759Y-56359637D01*
X166214637Y-56159759D01*
X166371680Y-55924727D01*
X166479853Y-55663574D01*
X166535000Y-55386335D01*
X166535000Y-55103665D01*
X166479853Y-54826426D01*
X166371680Y-54565273D01*
X166214637Y-54330241D01*
X166014759Y-54130363D01*
X165782241Y-53975000D01*
X166014759Y-53819637D01*
X166214637Y-53619759D01*
X166371680Y-53384727D01*
X166479853Y-53123574D01*
X166535000Y-52846335D01*
X166535000Y-52563665D01*
X166479853Y-52286426D01*
X166371680Y-52025273D01*
X166214637Y-51790241D01*
X166014759Y-51590363D01*
X165782241Y-51435000D01*
X166014759Y-51279637D01*
X166214637Y-51079759D01*
X166371680Y-50844727D01*
X166479853Y-50583574D01*
X166535000Y-50306335D01*
X166535000Y-50023665D01*
X166479853Y-49746426D01*
X166371680Y-49485273D01*
X166214637Y-49250241D01*
X166014759Y-49050363D01*
X165782241Y-48895000D01*
X166014759Y-48739637D01*
X166214637Y-48539759D01*
X166371680Y-48304727D01*
X166479853Y-48043574D01*
X166535000Y-47766335D01*
X166535000Y-47483665D01*
X166479853Y-47206426D01*
X166371680Y-46945273D01*
X166214637Y-46710241D01*
X166014759Y-46510363D01*
X165782241Y-46355000D01*
X166014759Y-46199637D01*
X166214637Y-45999759D01*
X166371680Y-45764727D01*
X166479853Y-45503574D01*
X166535000Y-45226335D01*
X166535000Y-44943665D01*
X166479853Y-44666426D01*
X166371680Y-44405273D01*
X166214637Y-44170241D01*
X166014759Y-43970363D01*
X165782241Y-43815000D01*
X166014759Y-43659637D01*
X166214637Y-43459759D01*
X166371680Y-43224727D01*
X166479853Y-42963574D01*
X166535000Y-42686335D01*
X166535000Y-42403665D01*
X166479853Y-42126426D01*
X166371680Y-41865273D01*
X166214637Y-41630241D01*
X166014759Y-41430363D01*
X165782241Y-41275000D01*
X166014759Y-41119637D01*
X166214637Y-40919759D01*
X166371680Y-40684727D01*
X166479853Y-40423574D01*
X166535000Y-40146335D01*
X166535000Y-39863665D01*
X166479853Y-39586426D01*
X166371680Y-39325273D01*
X166214637Y-39090241D01*
X166014759Y-38890363D01*
X165780872Y-38734085D01*
X165841514Y-38701671D01*
X165913097Y-38457702D01*
X165100000Y-37644605D01*
X164286903Y-38457702D01*
X164358486Y-38701671D01*
X164422992Y-38732194D01*
X164420273Y-38733320D01*
X164185241Y-38890363D01*
X163985363Y-39090241D01*
X163828320Y-39325273D01*
X163720147Y-39586426D01*
X163665000Y-39863665D01*
X163665000Y-40146335D01*
X163720147Y-40423574D01*
X163828320Y-40684727D01*
X163985363Y-40919759D01*
X164185241Y-41119637D01*
X164417759Y-41275000D01*
X164185241Y-41430363D01*
X163985363Y-41630241D01*
X163828320Y-41865273D01*
X163720147Y-42126426D01*
X163665000Y-42403665D01*
X163665000Y-42686335D01*
X163720147Y-42963574D01*
X163828320Y-43224727D01*
X163985363Y-43459759D01*
X164185241Y-43659637D01*
X164417759Y-43815000D01*
X164185241Y-43970363D01*
X163985363Y-44170241D01*
X163828320Y-44405273D01*
X163720147Y-44666426D01*
X163665000Y-44943665D01*
X163665000Y-45226335D01*
X163671983Y-45261439D01*
X163158756Y-45774666D01*
X163124983Y-45802383D01*
X163014389Y-45937142D01*
X162932211Y-46090888D01*
X162881605Y-46257711D01*
X162868800Y-46387724D01*
X162868800Y-46387731D01*
X162864519Y-46431200D01*
X162868800Y-46474669D01*
X162868801Y-48706220D01*
X147461422Y-64113600D01*
X146283654Y-64113600D01*
X146235456Y-64081395D01*
X146047098Y-64003374D01*
X145847139Y-63963600D01*
X145644178Y-63963600D01*
X146543449Y-63064330D01*
X146577217Y-63036617D01*
X146687811Y-62901859D01*
X146769989Y-62748113D01*
X146820595Y-62581290D01*
X146833400Y-62451277D01*
X146833400Y-62451269D01*
X146837681Y-62407800D01*
X146833400Y-62364331D01*
X146833400Y-54443178D01*
X148425870Y-52850709D01*
X148480147Y-53123574D01*
X148588320Y-53384727D01*
X148745363Y-53619759D01*
X148945241Y-53819637D01*
X149177759Y-53975000D01*
X148945241Y-54130363D01*
X148745363Y-54330241D01*
X148588320Y-54565273D01*
X148480147Y-54826426D01*
X148425000Y-55103665D01*
X148425000Y-55386335D01*
X148480147Y-55663574D01*
X148588320Y-55924727D01*
X148745363Y-56159759D01*
X148945241Y-56359637D01*
X149177759Y-56515000D01*
X148945241Y-56670363D01*
X148745363Y-56870241D01*
X148588320Y-57105273D01*
X148480147Y-57366426D01*
X148425000Y-57643665D01*
X148425000Y-57926335D01*
X148480147Y-58203574D01*
X148588320Y-58464727D01*
X148745363Y-58699759D01*
X148945241Y-58899637D01*
X149180273Y-59056680D01*
X149441426Y-59164853D01*
X149718665Y-59220000D01*
X150001335Y-59220000D01*
X150278574Y-59164853D01*
X150539727Y-59056680D01*
X150774759Y-58899637D01*
X150974637Y-58699759D01*
X151131680Y-58464727D01*
X151239853Y-58203574D01*
X151295000Y-57926335D01*
X151295000Y-57643665D01*
X151239853Y-57366426D01*
X151131680Y-57105273D01*
X150974637Y-56870241D01*
X150774759Y-56670363D01*
X150542241Y-56515000D01*
X150774759Y-56359637D01*
X150974637Y-56159759D01*
X151131680Y-55924727D01*
X151239853Y-55663574D01*
X151295000Y-55386335D01*
X151295000Y-55103665D01*
X151239853Y-54826426D01*
X151131680Y-54565273D01*
X150974637Y-54330241D01*
X150774759Y-54130363D01*
X150542241Y-53975000D01*
X150774759Y-53819637D01*
X150974637Y-53619759D01*
X151131680Y-53384727D01*
X151239853Y-53123574D01*
X151295000Y-52846335D01*
X151295000Y-52563665D01*
X151239853Y-52286426D01*
X151131680Y-52025273D01*
X150974637Y-51790241D01*
X150774759Y-51590363D01*
X150542241Y-51435000D01*
X150774759Y-51279637D01*
X150974637Y-51079759D01*
X151131680Y-50844727D01*
X151239853Y-50583574D01*
X151295000Y-50306335D01*
X151295000Y-50023665D01*
X151239853Y-49746426D01*
X151131680Y-49485273D01*
X150974637Y-49250241D01*
X150774759Y-49050363D01*
X150542241Y-48895000D01*
X150774759Y-48739637D01*
X150974637Y-48539759D01*
X151131680Y-48304727D01*
X151239853Y-48043574D01*
X151295000Y-47766335D01*
X151295000Y-47483665D01*
X151239853Y-47206426D01*
X151131680Y-46945273D01*
X150974637Y-46710241D01*
X150774759Y-46510363D01*
X150542241Y-46355000D01*
X150774759Y-46199637D01*
X150974637Y-45999759D01*
X151131680Y-45764727D01*
X151239853Y-45503574D01*
X151295000Y-45226335D01*
X151295000Y-44943665D01*
X151239853Y-44666426D01*
X151131680Y-44405273D01*
X150974637Y-44170241D01*
X150774759Y-43970363D01*
X150542241Y-43815000D01*
X150774759Y-43659637D01*
X150974637Y-43459759D01*
X151131680Y-43224727D01*
X151239853Y-42963574D01*
X151295000Y-42686335D01*
X151295000Y-42403665D01*
X151239853Y-42126426D01*
X151131680Y-41865273D01*
X150974637Y-41630241D01*
X150774759Y-41430363D01*
X150542241Y-41275000D01*
X150774759Y-41119637D01*
X150974637Y-40919759D01*
X151131680Y-40684727D01*
X151239853Y-40423574D01*
X151295000Y-40146335D01*
X151295000Y-39863665D01*
X151239853Y-39586426D01*
X151131680Y-39325273D01*
X150974637Y-39090241D01*
X150774759Y-38890363D01*
X150542241Y-38735000D01*
X150774759Y-38579637D01*
X150974637Y-38379759D01*
X151131680Y-38144727D01*
X151239853Y-37883574D01*
X151295000Y-37606335D01*
X151295000Y-37535512D01*
X163659783Y-37535512D01*
X163701213Y-37815130D01*
X163796397Y-38081292D01*
X163863329Y-38206514D01*
X164107298Y-38278097D01*
X164920395Y-37465000D01*
X165279605Y-37465000D01*
X166092702Y-38278097D01*
X166336671Y-38206514D01*
X166457571Y-37951004D01*
X166526300Y-37676816D01*
X166540217Y-37394488D01*
X166498787Y-37114870D01*
X166403603Y-36848708D01*
X166336671Y-36723486D01*
X166092702Y-36651903D01*
X165279605Y-37465000D01*
X164920395Y-37465000D01*
X164107298Y-36651903D01*
X163863329Y-36723486D01*
X163742429Y-36978996D01*
X163673700Y-37253184D01*
X163659783Y-37535512D01*
X151295000Y-37535512D01*
X151295000Y-37323665D01*
X151239853Y-37046426D01*
X151131680Y-36785273D01*
X150974637Y-36550241D01*
X150774759Y-36350363D01*
X150542241Y-36195000D01*
X150774759Y-36039637D01*
X150974637Y-35839759D01*
X151131680Y-35604727D01*
X151239853Y-35343574D01*
X151295000Y-35066335D01*
X151295000Y-34783665D01*
X151239853Y-34506426D01*
X151131680Y-34245273D01*
X150974637Y-34010241D01*
X150774759Y-33810363D01*
X150542241Y-33655000D01*
X150774759Y-33499637D01*
X150974637Y-33299759D01*
X151131680Y-33064727D01*
X151239853Y-32803574D01*
X151295000Y-32526335D01*
X151295000Y-32243665D01*
X151239853Y-31966426D01*
X151131680Y-31705273D01*
X150974637Y-31470241D01*
X150776039Y-31271643D01*
X150784482Y-31270812D01*
X150904180Y-31234502D01*
X151014494Y-31175537D01*
X151111185Y-31096185D01*
X151190537Y-30999494D01*
X151249502Y-30889180D01*
X151285812Y-30769482D01*
X151298072Y-30645000D01*
X151298072Y-29703665D01*
X163665000Y-29703665D01*
X163665000Y-29986335D01*
X163720147Y-30263574D01*
X163828320Y-30524727D01*
X163985363Y-30759759D01*
X164185241Y-30959637D01*
X164417759Y-31115000D01*
X164185241Y-31270363D01*
X163985363Y-31470241D01*
X163828320Y-31705273D01*
X163720147Y-31966426D01*
X163665000Y-32243665D01*
X163665000Y-32526335D01*
X163720147Y-32803574D01*
X163828320Y-33064727D01*
X163985363Y-33299759D01*
X164185241Y-33499637D01*
X164417759Y-33655000D01*
X164185241Y-33810363D01*
X163985363Y-34010241D01*
X163828320Y-34245273D01*
X163720147Y-34506426D01*
X163665000Y-34783665D01*
X163665000Y-35066335D01*
X163720147Y-35343574D01*
X163828320Y-35604727D01*
X163985363Y-35839759D01*
X164185241Y-36039637D01*
X164419128Y-36195915D01*
X164358486Y-36228329D01*
X164286903Y-36472298D01*
X165100000Y-37285395D01*
X165913097Y-36472298D01*
X165841514Y-36228329D01*
X165777008Y-36197806D01*
X165779727Y-36196680D01*
X166014759Y-36039637D01*
X166214637Y-35839759D01*
X166371680Y-35604727D01*
X166479853Y-35343574D01*
X166535000Y-35066335D01*
X166535000Y-34783665D01*
X166479853Y-34506426D01*
X166371680Y-34245273D01*
X166214637Y-34010241D01*
X166014759Y-33810363D01*
X165782241Y-33655000D01*
X166014759Y-33499637D01*
X166214637Y-33299759D01*
X166371680Y-33064727D01*
X166479853Y-32803574D01*
X166535000Y-32526335D01*
X166535000Y-32243665D01*
X166479853Y-31966426D01*
X166371680Y-31705273D01*
X166214637Y-31470241D01*
X166014759Y-31270363D01*
X165782241Y-31115000D01*
X166014759Y-30959637D01*
X166214637Y-30759759D01*
X166371680Y-30524727D01*
X166479853Y-30263574D01*
X166535000Y-29986335D01*
X166535000Y-29703665D01*
X166479853Y-29426426D01*
X166371680Y-29165273D01*
X166214637Y-28930241D01*
X166014759Y-28730363D01*
X165779727Y-28573320D01*
X165518574Y-28465147D01*
X165241335Y-28410000D01*
X164958665Y-28410000D01*
X164681426Y-28465147D01*
X164420273Y-28573320D01*
X164185241Y-28730363D01*
X163985363Y-28930241D01*
X163828320Y-29165273D01*
X163720147Y-29426426D01*
X163665000Y-29703665D01*
X151298072Y-29703665D01*
X151298072Y-29045000D01*
X151285812Y-28920518D01*
X151249502Y-28800820D01*
X151190537Y-28690506D01*
X151111185Y-28593815D01*
X151014494Y-28514463D01*
X150904180Y-28455498D01*
X150784482Y-28419188D01*
X150660000Y-28406928D01*
X149060000Y-28406928D01*
X148935518Y-28419188D01*
X148815820Y-28455498D01*
X148705506Y-28514463D01*
X148608815Y-28593815D01*
X148529463Y-28690506D01*
X148470498Y-28800820D01*
X148434188Y-28920518D01*
X148421928Y-29045000D01*
X148421928Y-30645000D01*
X148434188Y-30769482D01*
X148470498Y-30889180D01*
X148529463Y-30999494D01*
X148608815Y-31096185D01*
X148705506Y-31175537D01*
X148815820Y-31234502D01*
X148935518Y-31270812D01*
X148943961Y-31271643D01*
X148745363Y-31470241D01*
X148588320Y-31705273D01*
X148480147Y-31966426D01*
X148425000Y-32243665D01*
X148425000Y-32526335D01*
X148480147Y-32803574D01*
X148588320Y-33064727D01*
X148745363Y-33299759D01*
X148945241Y-33499637D01*
X149177759Y-33655000D01*
X148945241Y-33810363D01*
X148745363Y-34010241D01*
X148588320Y-34245273D01*
X148480147Y-34506426D01*
X148425000Y-34783665D01*
X148425000Y-35066335D01*
X148480147Y-35343574D01*
X148588320Y-35604727D01*
X148745363Y-35839759D01*
X148945241Y-36039637D01*
X149177759Y-36195000D01*
X148945241Y-36350363D01*
X148745363Y-36550241D01*
X148588320Y-36785273D01*
X148480147Y-37046426D01*
X148425000Y-37323665D01*
X148425000Y-37606335D01*
X148480147Y-37883574D01*
X148588320Y-38144727D01*
X148745363Y-38379759D01*
X148945241Y-38579637D01*
X149177759Y-38735000D01*
X148945241Y-38890363D01*
X148745363Y-39090241D01*
X148588320Y-39325273D01*
X148480147Y-39586426D01*
X148425000Y-39863665D01*
X148425000Y-40146335D01*
X148480147Y-40423574D01*
X148588320Y-40684727D01*
X148745363Y-40919759D01*
X148945241Y-41119637D01*
X149177759Y-41275000D01*
X148945241Y-41430363D01*
X148745363Y-41630241D01*
X148588320Y-41865273D01*
X148480147Y-42126426D01*
X148425000Y-42403665D01*
X148425000Y-42686335D01*
X148480147Y-42963574D01*
X148588320Y-43224727D01*
X148745363Y-43459759D01*
X148945241Y-43659637D01*
X149177759Y-43815000D01*
X148945241Y-43970363D01*
X148745363Y-44170241D01*
X148588320Y-44405273D01*
X148480147Y-44666426D01*
X148425000Y-44943665D01*
X148425000Y-45226335D01*
X148480147Y-45503574D01*
X148588320Y-45764727D01*
X148745363Y-45999759D01*
X148945241Y-46199637D01*
X149177759Y-46355000D01*
X148945241Y-46510363D01*
X148745363Y-46710241D01*
X148725479Y-46740000D01*
X146042669Y-46740000D01*
X145999200Y-46735719D01*
X145955731Y-46740000D01*
X145955723Y-46740000D01*
X145825710Y-46752805D01*
X145658887Y-46803411D01*
X145505141Y-46885589D01*
X145404153Y-46968468D01*
X145404151Y-46968470D01*
X145370383Y-46996183D01*
X145342670Y-47029951D01*
X144248322Y-48124300D01*
X143972674Y-48124300D01*
X144235983Y-47948363D01*
X144533363Y-47650983D01*
X144767012Y-47301302D01*
X144927953Y-46912756D01*
X145010000Y-46500279D01*
X145010000Y-46079721D01*
X144927953Y-45667244D01*
X144767012Y-45278698D01*
X144533363Y-44929017D01*
X144235983Y-44631637D01*
X143886302Y-44397988D01*
X143625596Y-44290000D01*
X143886302Y-44182012D01*
X144235983Y-43948363D01*
X144533363Y-43650983D01*
X144767012Y-43301302D01*
X144927953Y-42912756D01*
X145010000Y-42500279D01*
X145010000Y-42079721D01*
X144927953Y-41667244D01*
X144767012Y-41278698D01*
X144533363Y-40929017D01*
X144235983Y-40631637D01*
X143886302Y-40397988D01*
X143625596Y-40290000D01*
X143886302Y-40182012D01*
X144235983Y-39948363D01*
X144533363Y-39650983D01*
X144767012Y-39301302D01*
X144927953Y-38912756D01*
X145010000Y-38500279D01*
X145010000Y-38079721D01*
X144927953Y-37667244D01*
X144767012Y-37278698D01*
X144533363Y-36929017D01*
X144235983Y-36631637D01*
X143886302Y-36397988D01*
X143626887Y-36290535D01*
X143735383Y-36255243D01*
X144031038Y-36097214D01*
X144187048Y-35781653D01*
X142875000Y-34469605D01*
X141562952Y-35781653D01*
X141718962Y-36097214D01*
X142093745Y-36288020D01*
X142114839Y-36293962D01*
X141863698Y-36397988D01*
X141514017Y-36631637D01*
X141216637Y-36929017D01*
X140982988Y-37278698D01*
X140822047Y-37667244D01*
X140740000Y-38079721D01*
X140740000Y-38500279D01*
X140822047Y-38912756D01*
X140982988Y-39301302D01*
X141216637Y-39650983D01*
X141514017Y-39948363D01*
X141863698Y-40182012D01*
X142124404Y-40290000D01*
X141863698Y-40397988D01*
X141514017Y-40631637D01*
X141216637Y-40929017D01*
X140982988Y-41278698D01*
X140822047Y-41667244D01*
X140740000Y-42079721D01*
X140740000Y-42500279D01*
X140822047Y-42912756D01*
X140874363Y-43039058D01*
X129808556Y-54104866D01*
X129774783Y-54132583D01*
X129664189Y-54267342D01*
X129582011Y-54421088D01*
X129531405Y-54587911D01*
X129518600Y-54717924D01*
X129518600Y-54717931D01*
X129514319Y-54761400D01*
X128930000Y-54761400D01*
X128930000Y-34332824D01*
X140730098Y-34332824D01*
X140779666Y-34750451D01*
X140909757Y-35150383D01*
X141067786Y-35446038D01*
X141383347Y-35602048D01*
X142695395Y-34290000D01*
X143054605Y-34290000D01*
X144366653Y-35602048D01*
X144682214Y-35446038D01*
X144873020Y-35071255D01*
X144987044Y-34666449D01*
X145019902Y-34247176D01*
X144970334Y-33829549D01*
X144840243Y-33429617D01*
X144682214Y-33133962D01*
X144366653Y-32977952D01*
X143054605Y-34290000D01*
X142695395Y-34290000D01*
X141383347Y-32977952D01*
X141067786Y-33133962D01*
X140876980Y-33508745D01*
X140762956Y-33913551D01*
X140730098Y-34332824D01*
X128930000Y-34332824D01*
X128930000Y-32798347D01*
X141562952Y-32798347D01*
X142875000Y-34110395D01*
X144187048Y-32798347D01*
X144031038Y-32482786D01*
X143656255Y-32291980D01*
X143251449Y-32177956D01*
X142832176Y-32145098D01*
X142414549Y-32194666D01*
X142014617Y-32324757D01*
X141718962Y-32482786D01*
X141562952Y-32798347D01*
X128930000Y-32798347D01*
X128930000Y-27330000D01*
X168250000Y-27330000D01*
X168250001Y-83953231D01*
%TA.AperFunction,Conductor*%
D17*
G36*
X168250001Y-83953231D02*
G01*
X168231817Y-83861814D01*
X168029417Y-83373175D01*
X167735576Y-82933412D01*
X167361588Y-82559424D01*
X166921825Y-82265583D01*
X166433186Y-82063183D01*
X165914449Y-81960000D01*
X165385551Y-81960000D01*
X164866814Y-82063183D01*
X164378175Y-82265583D01*
X163938412Y-82559424D01*
X163564424Y-82933412D01*
X163270583Y-83373175D01*
X163068183Y-83861814D01*
X162965000Y-84380551D01*
X162965000Y-84909449D01*
X163068183Y-85428186D01*
X163270583Y-85916825D01*
X163564424Y-86356588D01*
X163938412Y-86730576D01*
X164378175Y-87024417D01*
X164866814Y-87226817D01*
X165385551Y-87330000D01*
X165914449Y-87330000D01*
X166433186Y-87226817D01*
X166921825Y-87024417D01*
X167361588Y-86730576D01*
X167735576Y-86356588D01*
X168029417Y-85916825D01*
X168231817Y-85428186D01*
X168250001Y-85336769D01*
X168250001Y-90780000D01*
X128930000Y-90780000D01*
X128930000Y-54761400D01*
X129514319Y-54761400D01*
X129518600Y-54804869D01*
X129518601Y-76537521D01*
X129514319Y-76581000D01*
X129531405Y-76754490D01*
X129582012Y-76921313D01*
X129664190Y-77075059D01*
X129747068Y-77176046D01*
X129747071Y-77176049D01*
X129774784Y-77209817D01*
X129808551Y-77237529D01*
X132769670Y-80198649D01*
X132797383Y-80232417D01*
X132831151Y-80260130D01*
X132831153Y-80260132D01*
X132932140Y-80343010D01*
X132932141Y-80343011D01*
X133085887Y-80425189D01*
X133202103Y-80460443D01*
X133252709Y-80475795D01*
X133267506Y-80477252D01*
X133382723Y-80488600D01*
X133382731Y-80488600D01*
X133426200Y-80492881D01*
X133469669Y-80488600D01*
X149397931Y-80488600D01*
X149441400Y-80492881D01*
X149484869Y-80488600D01*
X149484877Y-80488600D01*
X149614890Y-80475795D01*
X149620421Y-80474117D01*
X150665000Y-80474117D01*
X150665000Y-80815883D01*
X150731675Y-81151081D01*
X150862463Y-81466831D01*
X151052337Y-81750998D01*
X151294002Y-81992663D01*
X151578169Y-82182537D01*
X151893919Y-82313325D01*
X152229117Y-82380000D01*
X152570883Y-82380000D01*
X152906081Y-82313325D01*
X153221831Y-82182537D01*
X153505998Y-81992663D01*
X153747663Y-81750998D01*
X153900000Y-81523009D01*
X154052337Y-81750998D01*
X154294002Y-81992663D01*
X154578169Y-82182537D01*
X154893919Y-82313325D01*
X155229117Y-82380000D01*
X155570883Y-82380000D01*
X155906081Y-82313325D01*
X156221831Y-82182537D01*
X156505998Y-81992663D01*
X156747663Y-81750998D01*
X156937537Y-81466831D01*
X157068325Y-81151081D01*
X157135000Y-80815883D01*
X157135000Y-80474117D01*
X157068325Y-80138919D01*
X156937537Y-79823169D01*
X156747663Y-79539002D01*
X156505998Y-79297337D01*
X156221831Y-79107463D01*
X155906081Y-78976675D01*
X155570883Y-78910000D01*
X155229117Y-78910000D01*
X154893919Y-78976675D01*
X154578169Y-79107463D01*
X154294002Y-79297337D01*
X154052337Y-79539002D01*
X153900000Y-79766991D01*
X153747663Y-79539002D01*
X153505998Y-79297337D01*
X153221831Y-79107463D01*
X152906081Y-78976675D01*
X152570883Y-78910000D01*
X152229117Y-78910000D01*
X151893919Y-78976675D01*
X151578169Y-79107463D01*
X151294002Y-79297337D01*
X151052337Y-79539002D01*
X150862463Y-79823169D01*
X150731675Y-80138919D01*
X150665000Y-80474117D01*
X149620421Y-80474117D01*
X149781713Y-80425189D01*
X149935459Y-80343011D01*
X150070217Y-80232417D01*
X150097934Y-80198644D01*
X151968432Y-78328147D01*
X152229117Y-78380000D01*
X152570883Y-78380000D01*
X152906081Y-78313325D01*
X153221831Y-78182537D01*
X153505998Y-77992663D01*
X153747663Y-77750998D01*
X153900000Y-77523009D01*
X154052337Y-77750998D01*
X154294002Y-77992663D01*
X154578169Y-78182537D01*
X154893919Y-78313325D01*
X155229117Y-78380000D01*
X155570883Y-78380000D01*
X155906081Y-78313325D01*
X156221831Y-78182537D01*
X156505998Y-77992663D01*
X156747663Y-77750998D01*
X156937537Y-77466831D01*
X157068325Y-77151081D01*
X157135000Y-76815883D01*
X157135000Y-76474117D01*
X157068325Y-76138919D01*
X156937537Y-75823169D01*
X156747663Y-75539002D01*
X156505998Y-75297337D01*
X156221831Y-75107463D01*
X155906081Y-74976675D01*
X155570883Y-74910000D01*
X155229117Y-74910000D01*
X154893919Y-74976675D01*
X154578169Y-75107463D01*
X154294002Y-75297337D01*
X154052337Y-75539002D01*
X153900000Y-75766991D01*
X153747663Y-75539002D01*
X153505998Y-75297337D01*
X153221831Y-75107463D01*
X152906081Y-74976675D01*
X152570883Y-74910000D01*
X152229117Y-74910000D01*
X151893919Y-74976675D01*
X151578169Y-75107463D01*
X151294002Y-75297337D01*
X151052337Y-75539002D01*
X150862463Y-75823169D01*
X150731675Y-76138919D01*
X150665000Y-76474117D01*
X150665000Y-76815883D01*
X150716853Y-77076568D01*
X149074822Y-78718600D01*
X133792779Y-78718600D01*
X131288600Y-76214422D01*
X131288600Y-55127978D01*
X140873462Y-45543117D01*
X140822047Y-45667244D01*
X140740000Y-46079721D01*
X140740000Y-46500279D01*
X140822047Y-46912756D01*
X140982988Y-47301302D01*
X141216637Y-47650983D01*
X141514017Y-47948363D01*
X141777326Y-48124300D01*
X139603765Y-48124300D01*
X139560299Y-48120019D01*
X139516833Y-48124300D01*
X139516823Y-48124300D01*
X139386810Y-48137105D01*
X139219987Y-48187711D01*
X139066241Y-48269889D01*
X139066239Y-48269890D01*
X139066240Y-48269890D01*
X138965253Y-48352768D01*
X138965251Y-48352770D01*
X138931483Y-48380483D01*
X138903770Y-48414251D01*
X132754956Y-54563066D01*
X132721183Y-54590783D01*
X132610589Y-54725542D01*
X132528411Y-54879288D01*
X132477805Y-55046111D01*
X132465000Y-55176124D01*
X132465000Y-55176131D01*
X132460719Y-55219600D01*
X132465000Y-55263069D01*
X132465001Y-71595299D01*
X132425518Y-71599188D01*
X132305820Y-71635498D01*
X132195506Y-71694463D01*
X132098815Y-71773815D01*
X132019463Y-71870506D01*
X131960498Y-71980820D01*
X131924188Y-72100518D01*
X131911928Y-72225000D01*
X131911928Y-73825000D01*
X131924188Y-73949482D01*
X131960498Y-74069180D01*
X132019463Y-74179494D01*
X132098815Y-74276185D01*
X132195506Y-74355537D01*
X132305820Y-74414502D01*
X132425518Y-74450812D01*
X132550000Y-74463072D01*
X133807532Y-74463072D01*
X133620363Y-74650241D01*
X133463320Y-74885273D01*
X133355147Y-75146426D01*
X133300000Y-75423665D01*
X133300000Y-75706335D01*
X133355147Y-75983574D01*
X133463320Y-76244727D01*
X133620363Y-76479759D01*
X133820241Y-76679637D01*
X134055273Y-76836680D01*
X134316426Y-76944853D01*
X134593665Y-77000000D01*
X134876335Y-77000000D01*
X135153574Y-76944853D01*
X135414727Y-76836680D01*
X135649759Y-76679637D01*
X135849637Y-76479759D01*
X136006680Y-76244727D01*
X136114853Y-75983574D01*
X136120000Y-75957699D01*
X136125147Y-75983574D01*
X136233320Y-76244727D01*
X136390363Y-76479759D01*
X136590241Y-76679637D01*
X136825273Y-76836680D01*
X137086426Y-76944853D01*
X137363665Y-77000000D01*
X137646335Y-77000000D01*
X137923574Y-76944853D01*
X138184727Y-76836680D01*
X138419759Y-76679637D01*
X138619637Y-76479759D01*
X138776680Y-76244727D01*
X138884853Y-75983574D01*
X138890000Y-75957699D01*
X138895147Y-75983574D01*
X139003320Y-76244727D01*
X139160363Y-76479759D01*
X139360241Y-76679637D01*
X139595273Y-76836680D01*
X139856426Y-76944853D01*
X140133665Y-77000000D01*
X140416335Y-77000000D01*
X140693574Y-76944853D01*
X140954727Y-76836680D01*
X141189759Y-76679637D01*
X141389637Y-76479759D01*
X141546680Y-76244727D01*
X141654853Y-75983574D01*
X141660000Y-75957699D01*
X141665147Y-75983574D01*
X141773320Y-76244727D01*
X141930363Y-76479759D01*
X142130241Y-76679637D01*
X142365273Y-76836680D01*
X142626426Y-76944853D01*
X142903665Y-77000000D01*
X143186335Y-77000000D01*
X143463574Y-76944853D01*
X143724727Y-76836680D01*
X143959759Y-76679637D01*
X144159637Y-76479759D01*
X144176681Y-76454250D01*
X144219839Y-76450000D01*
X144219847Y-76450000D01*
X144349860Y-76437195D01*
X144516683Y-76386589D01*
X144670429Y-76304411D01*
X144805187Y-76193817D01*
X144832904Y-76160044D01*
X149445149Y-71547800D01*
X151046458Y-71547800D01*
X150862463Y-71823169D01*
X150731675Y-72138919D01*
X150665000Y-72474117D01*
X150665000Y-72815883D01*
X150731675Y-73151081D01*
X150862463Y-73466831D01*
X151052337Y-73750998D01*
X151294002Y-73992663D01*
X151578169Y-74182537D01*
X151893919Y-74313325D01*
X152229117Y-74380000D01*
X152570883Y-74380000D01*
X152906081Y-74313325D01*
X153221831Y-74182537D01*
X153505998Y-73992663D01*
X153646949Y-73851712D01*
X154372893Y-73851712D01*
X154480726Y-74126338D01*
X154787384Y-74277216D01*
X155117585Y-74365369D01*
X155458639Y-74387409D01*
X155797439Y-74342489D01*
X156120966Y-74232336D01*
X156319274Y-74126338D01*
X156427107Y-73851712D01*
X155400000Y-72824605D01*
X154372893Y-73851712D01*
X153646949Y-73851712D01*
X153747663Y-73750998D01*
X153898114Y-73525832D01*
X153918662Y-73564274D01*
X154193288Y-73672107D01*
X155220395Y-72645000D01*
X155579605Y-72645000D01*
X156606712Y-73672107D01*
X156881338Y-73564274D01*
X157032216Y-73257616D01*
X157120369Y-72927415D01*
X157142409Y-72586361D01*
X157097489Y-72247561D01*
X156987336Y-71924034D01*
X156881338Y-71725726D01*
X156606712Y-71617893D01*
X155579605Y-72645000D01*
X155220395Y-72645000D01*
X155206253Y-72630858D01*
X155385858Y-72451253D01*
X155400000Y-72465395D01*
X156427107Y-71438288D01*
X156319274Y-71163662D01*
X156012616Y-71012784D01*
X155682415Y-70924631D01*
X155341361Y-70902591D01*
X155166619Y-70925759D01*
X155992249Y-70100130D01*
X156026017Y-70072417D01*
X156057560Y-70033983D01*
X156136610Y-69937660D01*
X156188162Y-69841212D01*
X156218789Y-69783913D01*
X156269395Y-69617090D01*
X156282200Y-69487077D01*
X156282200Y-69487067D01*
X156286481Y-69443601D01*
X156282200Y-69400135D01*
X156282200Y-68153254D01*
X156314405Y-68105056D01*
X156392426Y-67916698D01*
X156432200Y-67716739D01*
X156432200Y-67512861D01*
X156392426Y-67312902D01*
X156314405Y-67124544D01*
X156201137Y-66955026D01*
X156056974Y-66810863D01*
X155887456Y-66697595D01*
X155699098Y-66619574D01*
X155499139Y-66579800D01*
X155295261Y-66579800D01*
X155095302Y-66619574D01*
X154906944Y-66697595D01*
X154737426Y-66810863D01*
X154593263Y-66955026D01*
X154479995Y-67124544D01*
X154401974Y-67312902D01*
X154362200Y-67512861D01*
X154362200Y-67716739D01*
X154401974Y-67916698D01*
X154479995Y-68105056D01*
X154512200Y-68153255D01*
X154512201Y-69077020D01*
X153811422Y-69777800D01*
X153720861Y-69777800D01*
X153747663Y-69750998D01*
X153937537Y-69466831D01*
X154068325Y-69151081D01*
X154135000Y-68815883D01*
X154135000Y-68474117D01*
X154068325Y-68138919D01*
X153937537Y-67823169D01*
X153747663Y-67539002D01*
X153505998Y-67297337D01*
X153221831Y-67107463D01*
X152966298Y-67001618D01*
X153001857Y-66982611D01*
X153136615Y-66872017D01*
X153164332Y-66838244D01*
X155622025Y-64380551D01*
X162715000Y-64380551D01*
X162715000Y-64909449D01*
X162818183Y-65428186D01*
X163020583Y-65916825D01*
X163314424Y-66356588D01*
X163688412Y-66730576D01*
X164128175Y-67024417D01*
X164616814Y-67226817D01*
X165135551Y-67330000D01*
X165664449Y-67330000D01*
X166183186Y-67226817D01*
X166671825Y-67024417D01*
X167111588Y-66730576D01*
X167485576Y-66356588D01*
X167779417Y-65916825D01*
X167981817Y-65428186D01*
X168085000Y-64909449D01*
X168085000Y-64380551D01*
X167981817Y-63861814D01*
X167779417Y-63373175D01*
X167485576Y-62933412D01*
X167111588Y-62559424D01*
X166671825Y-62265583D01*
X166183186Y-62063183D01*
X165664449Y-61960000D01*
X165135551Y-61960000D01*
X164616814Y-62063183D01*
X164128175Y-62265583D01*
X163688412Y-62559424D01*
X163314424Y-62933412D01*
X163020583Y-63373175D01*
X162818183Y-63861814D01*
X162715000Y-64380551D01*
X155622025Y-64380551D01*
X163872577Y-56130000D01*
X163965479Y-56130000D01*
X163985363Y-56159759D01*
X164185241Y-56359637D01*
X164417759Y-56515000D01*
X164185241Y-56670363D01*
X163985363Y-56870241D01*
X163828320Y-57105273D01*
X163720147Y-57366426D01*
X163665000Y-57643665D01*
X163665000Y-57926335D01*
X163720147Y-58203574D01*
X163828320Y-58464727D01*
X163985363Y-58699759D01*
X164185241Y-58899637D01*
X164420273Y-59056680D01*
X164681426Y-59164853D01*
X164958665Y-59220000D01*
X165241335Y-59220000D01*
X165518574Y-59164853D01*
X165779727Y-59056680D01*
X166014759Y-58899637D01*
X166214637Y-58699759D01*
X166371680Y-58464727D01*
X166479853Y-58203574D01*
X166535000Y-57926335D01*
X166535000Y-57643665D01*
X166479853Y-57366426D01*
X166371680Y-57105273D01*
X166214637Y-56870241D01*
X166014759Y-56670363D01*
X165782241Y-56515000D01*
X166014759Y-56359637D01*
X166214637Y-56159759D01*
X166371680Y-55924727D01*
X166479853Y-55663574D01*
X166535000Y-55386335D01*
X166535000Y-55103665D01*
X166479853Y-54826426D01*
X166371680Y-54565273D01*
X166214637Y-54330241D01*
X166014759Y-54130363D01*
X165782241Y-53975000D01*
X166014759Y-53819637D01*
X166214637Y-53619759D01*
X166371680Y-53384727D01*
X166479853Y-53123574D01*
X166535000Y-52846335D01*
X166535000Y-52563665D01*
X166479853Y-52286426D01*
X166371680Y-52025273D01*
X166214637Y-51790241D01*
X166014759Y-51590363D01*
X165782241Y-51435000D01*
X166014759Y-51279637D01*
X166214637Y-51079759D01*
X166371680Y-50844727D01*
X166479853Y-50583574D01*
X166535000Y-50306335D01*
X166535000Y-50023665D01*
X166479853Y-49746426D01*
X166371680Y-49485273D01*
X166214637Y-49250241D01*
X166014759Y-49050363D01*
X165782241Y-48895000D01*
X166014759Y-48739637D01*
X166214637Y-48539759D01*
X166371680Y-48304727D01*
X166479853Y-48043574D01*
X166535000Y-47766335D01*
X166535000Y-47483665D01*
X166479853Y-47206426D01*
X166371680Y-46945273D01*
X166214637Y-46710241D01*
X166014759Y-46510363D01*
X165782241Y-46355000D01*
X166014759Y-46199637D01*
X166214637Y-45999759D01*
X166371680Y-45764727D01*
X166479853Y-45503574D01*
X166535000Y-45226335D01*
X166535000Y-44943665D01*
X166479853Y-44666426D01*
X166371680Y-44405273D01*
X166214637Y-44170241D01*
X166014759Y-43970363D01*
X165782241Y-43815000D01*
X166014759Y-43659637D01*
X166214637Y-43459759D01*
X166371680Y-43224727D01*
X166479853Y-42963574D01*
X166535000Y-42686335D01*
X166535000Y-42403665D01*
X166479853Y-42126426D01*
X166371680Y-41865273D01*
X166214637Y-41630241D01*
X166014759Y-41430363D01*
X165782241Y-41275000D01*
X166014759Y-41119637D01*
X166214637Y-40919759D01*
X166371680Y-40684727D01*
X166479853Y-40423574D01*
X166535000Y-40146335D01*
X166535000Y-39863665D01*
X166479853Y-39586426D01*
X166371680Y-39325273D01*
X166214637Y-39090241D01*
X166014759Y-38890363D01*
X165780872Y-38734085D01*
X165841514Y-38701671D01*
X165913097Y-38457702D01*
X165100000Y-37644605D01*
X164286903Y-38457702D01*
X164358486Y-38701671D01*
X164422992Y-38732194D01*
X164420273Y-38733320D01*
X164185241Y-38890363D01*
X163985363Y-39090241D01*
X163828320Y-39325273D01*
X163720147Y-39586426D01*
X163665000Y-39863665D01*
X163665000Y-40146335D01*
X163720147Y-40423574D01*
X163828320Y-40684727D01*
X163985363Y-40919759D01*
X164185241Y-41119637D01*
X164417759Y-41275000D01*
X164185241Y-41430363D01*
X163985363Y-41630241D01*
X163828320Y-41865273D01*
X163720147Y-42126426D01*
X163665000Y-42403665D01*
X163665000Y-42686335D01*
X163720147Y-42963574D01*
X163828320Y-43224727D01*
X163985363Y-43459759D01*
X164185241Y-43659637D01*
X164417759Y-43815000D01*
X164185241Y-43970363D01*
X163985363Y-44170241D01*
X163828320Y-44405273D01*
X163720147Y-44666426D01*
X163665000Y-44943665D01*
X163665000Y-45226335D01*
X163671983Y-45261439D01*
X163158756Y-45774666D01*
X163124983Y-45802383D01*
X163014389Y-45937142D01*
X162932211Y-46090888D01*
X162881605Y-46257711D01*
X162868800Y-46387724D01*
X162868800Y-46387731D01*
X162864519Y-46431200D01*
X162868800Y-46474669D01*
X162868801Y-48706220D01*
X147461422Y-64113600D01*
X146283654Y-64113600D01*
X146235456Y-64081395D01*
X146047098Y-64003374D01*
X145847139Y-63963600D01*
X145644178Y-63963600D01*
X146543449Y-63064330D01*
X146577217Y-63036617D01*
X146687811Y-62901859D01*
X146769989Y-62748113D01*
X146820595Y-62581290D01*
X146833400Y-62451277D01*
X146833400Y-62451269D01*
X146837681Y-62407800D01*
X146833400Y-62364331D01*
X146833400Y-54443178D01*
X148425870Y-52850709D01*
X148480147Y-53123574D01*
X148588320Y-53384727D01*
X148745363Y-53619759D01*
X148945241Y-53819637D01*
X149177759Y-53975000D01*
X148945241Y-54130363D01*
X148745363Y-54330241D01*
X148588320Y-54565273D01*
X148480147Y-54826426D01*
X148425000Y-55103665D01*
X148425000Y-55386335D01*
X148480147Y-55663574D01*
X148588320Y-55924727D01*
X148745363Y-56159759D01*
X148945241Y-56359637D01*
X149177759Y-56515000D01*
X148945241Y-56670363D01*
X148745363Y-56870241D01*
X148588320Y-57105273D01*
X148480147Y-57366426D01*
X148425000Y-57643665D01*
X148425000Y-57926335D01*
X148480147Y-58203574D01*
X148588320Y-58464727D01*
X148745363Y-58699759D01*
X148945241Y-58899637D01*
X149180273Y-59056680D01*
X149441426Y-59164853D01*
X149718665Y-59220000D01*
X150001335Y-59220000D01*
X150278574Y-59164853D01*
X150539727Y-59056680D01*
X150774759Y-58899637D01*
X150974637Y-58699759D01*
X151131680Y-58464727D01*
X151239853Y-58203574D01*
X151295000Y-57926335D01*
X151295000Y-57643665D01*
X151239853Y-57366426D01*
X151131680Y-57105273D01*
X150974637Y-56870241D01*
X150774759Y-56670363D01*
X150542241Y-56515000D01*
X150774759Y-56359637D01*
X150974637Y-56159759D01*
X151131680Y-55924727D01*
X151239853Y-55663574D01*
X151295000Y-55386335D01*
X151295000Y-55103665D01*
X151239853Y-54826426D01*
X151131680Y-54565273D01*
X150974637Y-54330241D01*
X150774759Y-54130363D01*
X150542241Y-53975000D01*
X150774759Y-53819637D01*
X150974637Y-53619759D01*
X151131680Y-53384727D01*
X151239853Y-53123574D01*
X151295000Y-52846335D01*
X151295000Y-52563665D01*
X151239853Y-52286426D01*
X151131680Y-52025273D01*
X150974637Y-51790241D01*
X150774759Y-51590363D01*
X150542241Y-51435000D01*
X150774759Y-51279637D01*
X150974637Y-51079759D01*
X151131680Y-50844727D01*
X151239853Y-50583574D01*
X151295000Y-50306335D01*
X151295000Y-50023665D01*
X151239853Y-49746426D01*
X151131680Y-49485273D01*
X150974637Y-49250241D01*
X150774759Y-49050363D01*
X150542241Y-48895000D01*
X150774759Y-48739637D01*
X150974637Y-48539759D01*
X151131680Y-48304727D01*
X151239853Y-48043574D01*
X151295000Y-47766335D01*
X151295000Y-47483665D01*
X151239853Y-47206426D01*
X151131680Y-46945273D01*
X150974637Y-46710241D01*
X150774759Y-46510363D01*
X150542241Y-46355000D01*
X150774759Y-46199637D01*
X150974637Y-45999759D01*
X151131680Y-45764727D01*
X151239853Y-45503574D01*
X151295000Y-45226335D01*
X151295000Y-44943665D01*
X151239853Y-44666426D01*
X151131680Y-44405273D01*
X150974637Y-44170241D01*
X150774759Y-43970363D01*
X150542241Y-43815000D01*
X150774759Y-43659637D01*
X150974637Y-43459759D01*
X151131680Y-43224727D01*
X151239853Y-42963574D01*
X151295000Y-42686335D01*
X151295000Y-42403665D01*
X151239853Y-42126426D01*
X151131680Y-41865273D01*
X150974637Y-41630241D01*
X150774759Y-41430363D01*
X150542241Y-41275000D01*
X150774759Y-41119637D01*
X150974637Y-40919759D01*
X151131680Y-40684727D01*
X151239853Y-40423574D01*
X151295000Y-40146335D01*
X151295000Y-39863665D01*
X151239853Y-39586426D01*
X151131680Y-39325273D01*
X150974637Y-39090241D01*
X150774759Y-38890363D01*
X150542241Y-38735000D01*
X150774759Y-38579637D01*
X150974637Y-38379759D01*
X151131680Y-38144727D01*
X151239853Y-37883574D01*
X151295000Y-37606335D01*
X151295000Y-37535512D01*
X163659783Y-37535512D01*
X163701213Y-37815130D01*
X163796397Y-38081292D01*
X163863329Y-38206514D01*
X164107298Y-38278097D01*
X164920395Y-37465000D01*
X165279605Y-37465000D01*
X166092702Y-38278097D01*
X166336671Y-38206514D01*
X166457571Y-37951004D01*
X166526300Y-37676816D01*
X166540217Y-37394488D01*
X166498787Y-37114870D01*
X166403603Y-36848708D01*
X166336671Y-36723486D01*
X166092702Y-36651903D01*
X165279605Y-37465000D01*
X164920395Y-37465000D01*
X164107298Y-36651903D01*
X163863329Y-36723486D01*
X163742429Y-36978996D01*
X163673700Y-37253184D01*
X163659783Y-37535512D01*
X151295000Y-37535512D01*
X151295000Y-37323665D01*
X151239853Y-37046426D01*
X151131680Y-36785273D01*
X150974637Y-36550241D01*
X150774759Y-36350363D01*
X150542241Y-36195000D01*
X150774759Y-36039637D01*
X150974637Y-35839759D01*
X151131680Y-35604727D01*
X151239853Y-35343574D01*
X151295000Y-35066335D01*
X151295000Y-34783665D01*
X151239853Y-34506426D01*
X151131680Y-34245273D01*
X150974637Y-34010241D01*
X150774759Y-33810363D01*
X150542241Y-33655000D01*
X150774759Y-33499637D01*
X150974637Y-33299759D01*
X151131680Y-33064727D01*
X151239853Y-32803574D01*
X151295000Y-32526335D01*
X151295000Y-32243665D01*
X151239853Y-31966426D01*
X151131680Y-31705273D01*
X150974637Y-31470241D01*
X150776039Y-31271643D01*
X150784482Y-31270812D01*
X150904180Y-31234502D01*
X151014494Y-31175537D01*
X151111185Y-31096185D01*
X151190537Y-30999494D01*
X151249502Y-30889180D01*
X151285812Y-30769482D01*
X151298072Y-30645000D01*
X151298072Y-29703665D01*
X163665000Y-29703665D01*
X163665000Y-29986335D01*
X163720147Y-30263574D01*
X163828320Y-30524727D01*
X163985363Y-30759759D01*
X164185241Y-30959637D01*
X164417759Y-31115000D01*
X164185241Y-31270363D01*
X163985363Y-31470241D01*
X163828320Y-31705273D01*
X163720147Y-31966426D01*
X163665000Y-32243665D01*
X163665000Y-32526335D01*
X163720147Y-32803574D01*
X163828320Y-33064727D01*
X163985363Y-33299759D01*
X164185241Y-33499637D01*
X164417759Y-33655000D01*
X164185241Y-33810363D01*
X163985363Y-34010241D01*
X163828320Y-34245273D01*
X163720147Y-34506426D01*
X163665000Y-34783665D01*
X163665000Y-35066335D01*
X163720147Y-35343574D01*
X163828320Y-35604727D01*
X163985363Y-35839759D01*
X164185241Y-36039637D01*
X164419128Y-36195915D01*
X164358486Y-36228329D01*
X164286903Y-36472298D01*
X165100000Y-37285395D01*
X165913097Y-36472298D01*
X165841514Y-36228329D01*
X165777008Y-36197806D01*
X165779727Y-36196680D01*
X166014759Y-36039637D01*
X166214637Y-35839759D01*
X166371680Y-35604727D01*
X166479853Y-35343574D01*
X166535000Y-35066335D01*
X166535000Y-34783665D01*
X166479853Y-34506426D01*
X166371680Y-34245273D01*
X166214637Y-34010241D01*
X166014759Y-33810363D01*
X165782241Y-33655000D01*
X166014759Y-33499637D01*
X166214637Y-33299759D01*
X166371680Y-33064727D01*
X166479853Y-32803574D01*
X166535000Y-32526335D01*
X166535000Y-32243665D01*
X166479853Y-31966426D01*
X166371680Y-31705273D01*
X166214637Y-31470241D01*
X166014759Y-31270363D01*
X165782241Y-31115000D01*
X166014759Y-30959637D01*
X166214637Y-30759759D01*
X166371680Y-30524727D01*
X166479853Y-30263574D01*
X166535000Y-29986335D01*
X166535000Y-29703665D01*
X166479853Y-29426426D01*
X166371680Y-29165273D01*
X166214637Y-28930241D01*
X166014759Y-28730363D01*
X165779727Y-28573320D01*
X165518574Y-28465147D01*
X165241335Y-28410000D01*
X164958665Y-28410000D01*
X164681426Y-28465147D01*
X164420273Y-28573320D01*
X164185241Y-28730363D01*
X163985363Y-28930241D01*
X163828320Y-29165273D01*
X163720147Y-29426426D01*
X163665000Y-29703665D01*
X151298072Y-29703665D01*
X151298072Y-29045000D01*
X151285812Y-28920518D01*
X151249502Y-28800820D01*
X151190537Y-28690506D01*
X151111185Y-28593815D01*
X151014494Y-28514463D01*
X150904180Y-28455498D01*
X150784482Y-28419188D01*
X150660000Y-28406928D01*
X149060000Y-28406928D01*
X148935518Y-28419188D01*
X148815820Y-28455498D01*
X148705506Y-28514463D01*
X148608815Y-28593815D01*
X148529463Y-28690506D01*
X148470498Y-28800820D01*
X148434188Y-28920518D01*
X148421928Y-29045000D01*
X148421928Y-30645000D01*
X148434188Y-30769482D01*
X148470498Y-30889180D01*
X148529463Y-30999494D01*
X148608815Y-31096185D01*
X148705506Y-31175537D01*
X148815820Y-31234502D01*
X148935518Y-31270812D01*
X148943961Y-31271643D01*
X148745363Y-31470241D01*
X148588320Y-31705273D01*
X148480147Y-31966426D01*
X148425000Y-32243665D01*
X148425000Y-32526335D01*
X148480147Y-32803574D01*
X148588320Y-33064727D01*
X148745363Y-33299759D01*
X148945241Y-33499637D01*
X149177759Y-33655000D01*
X148945241Y-33810363D01*
X148745363Y-34010241D01*
X148588320Y-34245273D01*
X148480147Y-34506426D01*
X148425000Y-34783665D01*
X148425000Y-35066335D01*
X148480147Y-35343574D01*
X148588320Y-35604727D01*
X148745363Y-35839759D01*
X148945241Y-36039637D01*
X149177759Y-36195000D01*
X148945241Y-36350363D01*
X148745363Y-36550241D01*
X148588320Y-36785273D01*
X148480147Y-37046426D01*
X148425000Y-37323665D01*
X148425000Y-37606335D01*
X148480147Y-37883574D01*
X148588320Y-38144727D01*
X148745363Y-38379759D01*
X148945241Y-38579637D01*
X149177759Y-38735000D01*
X148945241Y-38890363D01*
X148745363Y-39090241D01*
X148588320Y-39325273D01*
X148480147Y-39586426D01*
X148425000Y-39863665D01*
X148425000Y-40146335D01*
X148480147Y-40423574D01*
X148588320Y-40684727D01*
X148745363Y-40919759D01*
X148945241Y-41119637D01*
X149177759Y-41275000D01*
X148945241Y-41430363D01*
X148745363Y-41630241D01*
X148588320Y-41865273D01*
X148480147Y-42126426D01*
X148425000Y-42403665D01*
X148425000Y-42686335D01*
X148480147Y-42963574D01*
X148588320Y-43224727D01*
X148745363Y-43459759D01*
X148945241Y-43659637D01*
X149177759Y-43815000D01*
X148945241Y-43970363D01*
X148745363Y-44170241D01*
X148588320Y-44405273D01*
X148480147Y-44666426D01*
X148425000Y-44943665D01*
X148425000Y-45226335D01*
X148480147Y-45503574D01*
X148588320Y-45764727D01*
X148745363Y-45999759D01*
X148945241Y-46199637D01*
X149177759Y-46355000D01*
X148945241Y-46510363D01*
X148745363Y-46710241D01*
X148725479Y-46740000D01*
X146042669Y-46740000D01*
X145999200Y-46735719D01*
X145955731Y-46740000D01*
X145955723Y-46740000D01*
X145825710Y-46752805D01*
X145658887Y-46803411D01*
X145505141Y-46885589D01*
X145404153Y-46968468D01*
X145404151Y-46968470D01*
X145370383Y-46996183D01*
X145342670Y-47029951D01*
X144248322Y-48124300D01*
X143972674Y-48124300D01*
X144235983Y-47948363D01*
X144533363Y-47650983D01*
X144767012Y-47301302D01*
X144927953Y-46912756D01*
X145010000Y-46500279D01*
X145010000Y-46079721D01*
X144927953Y-45667244D01*
X144767012Y-45278698D01*
X144533363Y-44929017D01*
X144235983Y-44631637D01*
X143886302Y-44397988D01*
X143625596Y-44290000D01*
X143886302Y-44182012D01*
X144235983Y-43948363D01*
X144533363Y-43650983D01*
X144767012Y-43301302D01*
X144927953Y-42912756D01*
X145010000Y-42500279D01*
X145010000Y-42079721D01*
X144927953Y-41667244D01*
X144767012Y-41278698D01*
X144533363Y-40929017D01*
X144235983Y-40631637D01*
X143886302Y-40397988D01*
X143625596Y-40290000D01*
X143886302Y-40182012D01*
X144235983Y-39948363D01*
X144533363Y-39650983D01*
X144767012Y-39301302D01*
X144927953Y-38912756D01*
X145010000Y-38500279D01*
X145010000Y-38079721D01*
X144927953Y-37667244D01*
X144767012Y-37278698D01*
X144533363Y-36929017D01*
X144235983Y-36631637D01*
X143886302Y-36397988D01*
X143626887Y-36290535D01*
X143735383Y-36255243D01*
X144031038Y-36097214D01*
X144187048Y-35781653D01*
X142875000Y-34469605D01*
X141562952Y-35781653D01*
X141718962Y-36097214D01*
X142093745Y-36288020D01*
X142114839Y-36293962D01*
X141863698Y-36397988D01*
X141514017Y-36631637D01*
X141216637Y-36929017D01*
X140982988Y-37278698D01*
X140822047Y-37667244D01*
X140740000Y-38079721D01*
X140740000Y-38500279D01*
X140822047Y-38912756D01*
X140982988Y-39301302D01*
X141216637Y-39650983D01*
X141514017Y-39948363D01*
X141863698Y-40182012D01*
X142124404Y-40290000D01*
X141863698Y-40397988D01*
X141514017Y-40631637D01*
X141216637Y-40929017D01*
X140982988Y-41278698D01*
X140822047Y-41667244D01*
X140740000Y-42079721D01*
X140740000Y-42500279D01*
X140822047Y-42912756D01*
X140874363Y-43039058D01*
X129808556Y-54104866D01*
X129774783Y-54132583D01*
X129664189Y-54267342D01*
X129582011Y-54421088D01*
X129531405Y-54587911D01*
X129518600Y-54717924D01*
X129518600Y-54717931D01*
X129514319Y-54761400D01*
X128930000Y-54761400D01*
X128930000Y-34332824D01*
X140730098Y-34332824D01*
X140779666Y-34750451D01*
X140909757Y-35150383D01*
X141067786Y-35446038D01*
X141383347Y-35602048D01*
X142695395Y-34290000D01*
X143054605Y-34290000D01*
X144366653Y-35602048D01*
X144682214Y-35446038D01*
X144873020Y-35071255D01*
X144987044Y-34666449D01*
X145019902Y-34247176D01*
X144970334Y-33829549D01*
X144840243Y-33429617D01*
X144682214Y-33133962D01*
X144366653Y-32977952D01*
X143054605Y-34290000D01*
X142695395Y-34290000D01*
X141383347Y-32977952D01*
X141067786Y-33133962D01*
X140876980Y-33508745D01*
X140762956Y-33913551D01*
X140730098Y-34332824D01*
X128930000Y-34332824D01*
X128930000Y-32798347D01*
X141562952Y-32798347D01*
X142875000Y-34110395D01*
X144187048Y-32798347D01*
X144031038Y-32482786D01*
X143656255Y-32291980D01*
X143251449Y-32177956D01*
X142832176Y-32145098D01*
X142414549Y-32194666D01*
X142014617Y-32324757D01*
X141718962Y-32482786D01*
X141562952Y-32798347D01*
X128930000Y-32798347D01*
X128930000Y-27330000D01*
X168250000Y-27330000D01*
X168250001Y-83953231D01*
G37*
%TD.AperFunction*%
%TD*%
M02*
