%TF.GenerationSoftware,KiCad,Pcbnew,(5.1.10-1-10_14)*%
%TF.CreationDate,2021-08-22T18:05:08-04:00*%
%TF.ProjectId,Triple Controller,54726970-6c65-4204-936f-6e74726f6c6c,rev?*%
%TF.SameCoordinates,Original*%
%TF.FileFunction,Copper,L2,Bot*%
%TF.FilePolarity,Positive*%
%FSLAX46Y46*%
G04 Gerber Fmt 4.6, Leading zero omitted, Abs format (unit mm)*
G04 Created by KiCad (PCBNEW (5.1.10-1-10_14)) date 2021-08-22 18:05:08*
%MOMM*%
%LPD*%
G01*
G04 APERTURE LIST*
%TA.AperFunction,ComponentPad*%
%ADD10C,3.000000*%
%TD*%
%TA.AperFunction,ComponentPad*%
%ADD11C,1.600000*%
%TD*%
%TA.AperFunction,ComponentPad*%
%ADD12R,1.600000X1.600000*%
%TD*%
%TA.AperFunction,ComponentPad*%
%ADD13C,2.200000*%
%TD*%
%TA.AperFunction,Conductor*%
%ADD14C,0.250000*%
%TD*%
%TA.AperFunction,Conductor*%
%ADD15C,0.254000*%
%TD*%
%TA.AperFunction,Conductor*%
%ADD16C,0.100000*%
%TD*%
G04 APERTURE END LIST*
D10*
%TO.P,J2,7*%
%TO.N,Net-(J1-Pad1)*%
X142875000Y-60790000D03*
%TO.P,J2,6*%
%TO.N,Net-(J2-Pad6)*%
X142875000Y-56790000D03*
%TO.P,J2,5*%
%TO.N,Net-(J2-Pad5)*%
X142875000Y-52790000D03*
%TO.P,J2,4*%
%TO.N,Net-(J2-Pad4)*%
X142875000Y-46290000D03*
%TO.P,J2,3*%
%TO.N,Net-(J1-Pad3)*%
X142875000Y-42290000D03*
%TO.P,J2,2*%
%TO.N,Net-(J1-Pad2)*%
X142875000Y-38290000D03*
%TO.P,J2,1*%
%TO.N,Net-(J1-Pad7)*%
X142875000Y-34290000D03*
%TD*%
D11*
%TO.P,J3,9*%
%TO.N,Net-(J3-Pad9)*%
X143045000Y-75565000D03*
%TO.P,J3,8*%
%TO.N,Net-(J1-Pad1)*%
X140275000Y-75565000D03*
%TO.P,J3,7*%
%TO.N,Net-(J3-Pad7)*%
X137505000Y-75565000D03*
%TO.P,J3,6*%
%TO.N,Net-(J3-Pad6)*%
X134735000Y-75565000D03*
%TO.P,J3,5*%
%TO.N,Net-(J1-Pad7)*%
X144430000Y-73025000D03*
%TO.P,J3,4*%
%TO.N,Net-(J3-Pad4)*%
X141660000Y-73025000D03*
%TO.P,J3,3*%
%TO.N,Net-(J3-Pad3)*%
X138890000Y-73025000D03*
%TO.P,J3,2*%
%TO.N,Net-(J3-Pad2)*%
X136120000Y-73025000D03*
D12*
%TO.P,J3,1*%
%TO.N,Net-(J3-Pad1)*%
X133350000Y-73025000D03*
%TD*%
D11*
%TO.P,U1,24*%
%TO.N,Net-(U1-Pad24)*%
X165100000Y-29845000D03*
%TO.P,U1,23*%
%TO.N,Net-(J1-Pad1)*%
X165100000Y-32385000D03*
%TO.P,U1,22*%
%TO.N,Net-(U1-Pad22)*%
X165100000Y-34925000D03*
%TO.P,U1,21*%
%TO.N,Net-(J1-Pad7)*%
X165100000Y-37465000D03*
%TO.P,U1,20*%
%TO.N,Net-(J3-Pad4)*%
X165100000Y-40005000D03*
%TO.P,U1,19*%
%TO.N,Net-(J3-Pad3)*%
X165100000Y-42545000D03*
%TO.P,U1,18*%
%TO.N,Net-(J2-Pad4)*%
X165100000Y-45085000D03*
%TO.P,U1,17*%
%TO.N,Net-(J1-Pad4)*%
X165100000Y-47625000D03*
%TO.P,U1,16*%
%TO.N,Net-(J3-Pad9)*%
X165100000Y-50165000D03*
%TO.P,U1,15*%
%TO.N,Net-(J3-Pad6)*%
X165100000Y-52705000D03*
%TO.P,U1,14*%
%TO.N,Net-(U1-Pad14)*%
X165100000Y-55245000D03*
%TO.P,U1,13*%
%TO.N,Net-(U1-Pad13)*%
X165100000Y-57785000D03*
%TO.P,U1,12*%
%TO.N,Net-(U1-Pad12)*%
X149860000Y-57785000D03*
%TO.P,U1,11*%
%TO.N,Net-(U1-Pad11)*%
X149860000Y-55245000D03*
%TO.P,U1,10*%
%TO.N,Net-(J3-Pad7)*%
X149860000Y-52705000D03*
%TO.P,U1,9*%
%TO.N,Net-(J3-Pad2)*%
X149860000Y-50165000D03*
%TO.P,U1,8*%
%TO.N,Net-(J3-Pad1)*%
X149860000Y-47625000D03*
%TO.P,U1,7*%
%TO.N,Net-(U1-Pad7)*%
X149860000Y-45085000D03*
%TO.P,U1,6*%
%TO.N,Net-(J1-Pad2)*%
X149860000Y-42545000D03*
%TO.P,U1,5*%
%TO.N,Net-(J1-Pad3)*%
X149860000Y-40005000D03*
%TO.P,U1,4*%
%TO.N,Net-(J1-Pad1)*%
X149860000Y-37465000D03*
%TO.P,U1,3*%
X149860000Y-34925000D03*
%TO.P,U1,2*%
%TO.N,Net-(U1-Pad2)*%
X149860000Y-32385000D03*
D12*
%TO.P,U1,1*%
%TO.N,Net-(U1-Pad1)*%
X149860000Y-29845000D03*
%TD*%
D13*
%TO.P,J1,7*%
%TO.N,Net-(J1-Pad7)*%
X155400000Y-72645000D03*
%TO.P,J1,6*%
%TO.N,Net-(J1-Pad6)*%
X155400000Y-76645000D03*
%TO.P,J1,5*%
%TO.N,Net-(J1-Pad5)*%
X155400000Y-80645000D03*
%TO.P,J1,4*%
%TO.N,Net-(J1-Pad4)*%
X152400000Y-68645000D03*
%TO.P,J1,3*%
%TO.N,Net-(J1-Pad3)*%
X152400000Y-72645000D03*
%TO.P,J1,2*%
%TO.N,Net-(J1-Pad2)*%
X152400000Y-76645000D03*
%TO.P,J1,1*%
%TO.N,Net-(J1-Pad1)*%
X152400000Y-80645000D03*
%TD*%
D14*
%TO.N,Net-(J2-Pad4)*%
X165100000Y-45466000D02*
X165100000Y-45085000D01*
X147828000Y-51243000D02*
X147828000Y-58928000D01*
X150622000Y-59944000D02*
X165100000Y-45466000D01*
X148844000Y-59944000D02*
X150622000Y-59944000D01*
X147828000Y-58928000D02*
X148844000Y-59944000D01*
X142875000Y-46290000D02*
X147828000Y-51243000D01*
%TO.N,Net-(J1-Pad3)*%
X145160000Y-40005000D02*
X142875000Y-42290000D01*
X149860000Y-40005000D02*
X145160000Y-40005000D01*
X140335000Y-47548998D02*
X142316002Y-49530000D01*
X144145000Y-49530000D02*
X146685000Y-52070000D01*
X146685000Y-52070000D02*
X146685000Y-66930000D01*
X142316002Y-49530000D02*
X144145000Y-49530000D01*
X140335000Y-44830000D02*
X140335000Y-47548998D01*
X142875000Y-42290000D02*
X140335000Y-44830000D01*
X146685000Y-66930000D02*
X152400000Y-72645000D01*
%TO.N,Net-(J1-Pad7)*%
X165862000Y-61468000D02*
X168148000Y-59182000D01*
X168148000Y-59182000D02*
X168148000Y-40513000D01*
X162814000Y-61468000D02*
X165862000Y-61468000D01*
X168148000Y-40513000D02*
X165100000Y-37465000D01*
X158750000Y-77216000D02*
X158750000Y-65532000D01*
X157226000Y-78740000D02*
X158750000Y-77216000D01*
X158750000Y-65532000D02*
X162814000Y-61468000D01*
X150145000Y-78740000D02*
X157226000Y-78740000D01*
X144430000Y-73025000D02*
X150145000Y-78740000D01*
%TO.N,Net-(J1-Pad4)*%
X165100000Y-47625000D02*
X166624000Y-49149000D01*
X166624000Y-49149000D02*
X166624000Y-49276000D01*
X166624000Y-58166000D02*
X166624000Y-49149000D01*
X165354000Y-59436000D02*
X166624000Y-58166000D01*
X159258000Y-59436000D02*
X165354000Y-59436000D01*
X152400000Y-66294000D02*
X159258000Y-59436000D01*
X152400000Y-68645000D02*
X152400000Y-66294000D01*
%TO.N,Net-(J1-Pad1)*%
X149860000Y-37465000D02*
X149860000Y-34925000D01*
X149860000Y-34925000D02*
X147701000Y-34925000D01*
X147701000Y-34925000D02*
X143764000Y-30988000D01*
X162560000Y-34925000D02*
X165100000Y-32385000D01*
X149860000Y-34925000D02*
X162560000Y-34925000D01*
X143764000Y-30988000D02*
X140716000Y-30988000D01*
X140716000Y-30988000D02*
X140462000Y-30988000D01*
X140716000Y-30988000D02*
X139192000Y-30988000D01*
X139192000Y-30988000D02*
X130556000Y-30988000D01*
X139192000Y-30988000D02*
X138684000Y-30988000D01*
X140275000Y-75565000D02*
X140275000Y-77149000D01*
X140275000Y-77149000D02*
X139446000Y-77978000D01*
X139446000Y-77978000D02*
X130302000Y-77978000D01*
X152400000Y-80645000D02*
X130175000Y-80645000D01*
X142875000Y-60790000D02*
X129370000Y-60790000D01*
%TO.N,Net-(J3-Pad3)*%
X156464000Y-74676000D02*
X149606000Y-74676000D01*
X157480000Y-64770000D02*
X157480000Y-73660000D01*
X157480000Y-73660000D02*
X156464000Y-74676000D01*
X161798000Y-60452000D02*
X157480000Y-64770000D01*
X165736410Y-60452000D02*
X161798000Y-60452000D01*
X167386000Y-44831000D02*
X167386000Y-58802410D01*
X165100000Y-42545000D02*
X167386000Y-44831000D01*
X149606000Y-74676000D02*
X146050000Y-71120000D01*
X167386000Y-58802410D02*
X165736410Y-60452000D01*
X140795000Y-71120000D02*
X138890000Y-73025000D01*
X141986000Y-71120000D02*
X140795000Y-71120000D01*
X146050000Y-71120000D02*
X141986000Y-71120000D01*
X141986000Y-71120000D02*
X141811000Y-71120000D01*
%TD*%
D15*
%TO.N,Net-(J1-Pad1)*%
X130429000Y-90780000D02*
X128930000Y-90780000D01*
X128930000Y-27330000D01*
X130429000Y-27330000D01*
X130429000Y-90780000D01*
%TA.AperFunction,Conductor*%
D16*
G36*
X130429000Y-90780000D02*
G01*
X128930000Y-90780000D01*
X128930000Y-27330000D01*
X130429000Y-27330000D01*
X130429000Y-90780000D01*
G37*
%TD.AperFunction*%
%TD*%
M02*
