%TF.GenerationSoftware,KiCad,Pcbnew,(5.1.10-1-10_14)*%
%TF.CreationDate,2021-08-22T18:05:08-04:00*%
%TF.ProjectId,Triple Controller,54726970-6c65-4204-936f-6e74726f6c6c,rev?*%
%TF.SameCoordinates,Original*%
%TF.FileFunction,Copper,L1,Top*%
%TF.FilePolarity,Positive*%
%FSLAX46Y46*%
G04 Gerber Fmt 4.6, Leading zero omitted, Abs format (unit mm)*
G04 Created by KiCad (PCBNEW (5.1.10-1-10_14)) date 2021-08-22 18:05:08*
%MOMM*%
%LPD*%
G01*
G04 APERTURE LIST*
%TA.AperFunction,ComponentPad*%
%ADD10C,3.000000*%
%TD*%
%TA.AperFunction,ComponentPad*%
%ADD11C,1.600000*%
%TD*%
%TA.AperFunction,ComponentPad*%
%ADD12R,1.600000X1.600000*%
%TD*%
%TA.AperFunction,ComponentPad*%
%ADD13C,2.200000*%
%TD*%
%TA.AperFunction,Conductor*%
%ADD14C,0.250000*%
%TD*%
G04 APERTURE END LIST*
D10*
%TO.P,J2,7*%
%TO.N,Net-(J1-Pad1)*%
X142875000Y-60790000D03*
%TO.P,J2,6*%
%TO.N,Net-(J2-Pad6)*%
X142875000Y-56790000D03*
%TO.P,J2,5*%
%TO.N,Net-(J2-Pad5)*%
X142875000Y-52790000D03*
%TO.P,J2,4*%
%TO.N,Net-(J2-Pad4)*%
X142875000Y-46290000D03*
%TO.P,J2,3*%
%TO.N,Net-(J1-Pad3)*%
X142875000Y-42290000D03*
%TO.P,J2,2*%
%TO.N,Net-(J1-Pad2)*%
X142875000Y-38290000D03*
%TO.P,J2,1*%
%TO.N,Net-(J1-Pad7)*%
X142875000Y-34290000D03*
%TD*%
D11*
%TO.P,J3,9*%
%TO.N,Net-(J3-Pad9)*%
X143045000Y-75565000D03*
%TO.P,J3,8*%
%TO.N,Net-(J1-Pad1)*%
X140275000Y-75565000D03*
%TO.P,J3,7*%
%TO.N,Net-(J3-Pad7)*%
X137505000Y-75565000D03*
%TO.P,J3,6*%
%TO.N,Net-(J3-Pad6)*%
X134735000Y-75565000D03*
%TO.P,J3,5*%
%TO.N,Net-(J1-Pad7)*%
X144430000Y-73025000D03*
%TO.P,J3,4*%
%TO.N,Net-(J3-Pad4)*%
X141660000Y-73025000D03*
%TO.P,J3,3*%
%TO.N,Net-(J3-Pad3)*%
X138890000Y-73025000D03*
%TO.P,J3,2*%
%TO.N,Net-(J3-Pad2)*%
X136120000Y-73025000D03*
D12*
%TO.P,J3,1*%
%TO.N,Net-(J3-Pad1)*%
X133350000Y-73025000D03*
%TD*%
D11*
%TO.P,U1,24*%
%TO.N,Net-(U1-Pad24)*%
X165100000Y-29845000D03*
%TO.P,U1,23*%
%TO.N,Net-(J1-Pad1)*%
X165100000Y-32385000D03*
%TO.P,U1,22*%
%TO.N,Net-(U1-Pad22)*%
X165100000Y-34925000D03*
%TO.P,U1,21*%
%TO.N,Net-(J1-Pad7)*%
X165100000Y-37465000D03*
%TO.P,U1,20*%
%TO.N,Net-(J3-Pad4)*%
X165100000Y-40005000D03*
%TO.P,U1,19*%
%TO.N,Net-(J3-Pad3)*%
X165100000Y-42545000D03*
%TO.P,U1,18*%
%TO.N,Net-(J2-Pad4)*%
X165100000Y-45085000D03*
%TO.P,U1,17*%
%TO.N,Net-(J1-Pad4)*%
X165100000Y-47625000D03*
%TO.P,U1,16*%
%TO.N,Net-(J3-Pad9)*%
X165100000Y-50165000D03*
%TO.P,U1,15*%
%TO.N,Net-(J3-Pad6)*%
X165100000Y-52705000D03*
%TO.P,U1,14*%
%TO.N,Net-(U1-Pad14)*%
X165100000Y-55245000D03*
%TO.P,U1,13*%
%TO.N,Net-(U1-Pad13)*%
X165100000Y-57785000D03*
%TO.P,U1,12*%
%TO.N,Net-(U1-Pad12)*%
X149860000Y-57785000D03*
%TO.P,U1,11*%
%TO.N,Net-(U1-Pad11)*%
X149860000Y-55245000D03*
%TO.P,U1,10*%
%TO.N,Net-(J3-Pad7)*%
X149860000Y-52705000D03*
%TO.P,U1,9*%
%TO.N,Net-(J3-Pad2)*%
X149860000Y-50165000D03*
%TO.P,U1,8*%
%TO.N,Net-(J3-Pad1)*%
X149860000Y-47625000D03*
%TO.P,U1,7*%
%TO.N,Net-(U1-Pad7)*%
X149860000Y-45085000D03*
%TO.P,U1,6*%
%TO.N,Net-(J1-Pad2)*%
X149860000Y-42545000D03*
%TO.P,U1,5*%
%TO.N,Net-(J1-Pad3)*%
X149860000Y-40005000D03*
%TO.P,U1,4*%
%TO.N,Net-(J1-Pad1)*%
X149860000Y-37465000D03*
%TO.P,U1,3*%
X149860000Y-34925000D03*
%TO.P,U1,2*%
%TO.N,Net-(U1-Pad2)*%
X149860000Y-32385000D03*
D12*
%TO.P,U1,1*%
%TO.N,Net-(U1-Pad1)*%
X149860000Y-29845000D03*
%TD*%
D13*
%TO.P,J1,7*%
%TO.N,Net-(J1-Pad7)*%
X155400000Y-72645000D03*
%TO.P,J1,6*%
%TO.N,Net-(J1-Pad6)*%
X155400000Y-76645000D03*
%TO.P,J1,5*%
%TO.N,Net-(J1-Pad5)*%
X155400000Y-80645000D03*
%TO.P,J1,4*%
%TO.N,Net-(J1-Pad4)*%
X152400000Y-68645000D03*
%TO.P,J1,3*%
%TO.N,Net-(J1-Pad3)*%
X152400000Y-72645000D03*
%TO.P,J1,2*%
%TO.N,Net-(J1-Pad2)*%
X152400000Y-76645000D03*
%TO.P,J1,1*%
%TO.N,Net-(J1-Pad1)*%
X152400000Y-80645000D03*
%TD*%
D14*
%TO.N,Net-(J1-Pad2)*%
X147130000Y-42545000D02*
X142875000Y-38290000D01*
X149860000Y-42545000D02*
X147130000Y-42545000D01*
X142875000Y-38290000D02*
X131445000Y-49720000D01*
X131445000Y-49720000D02*
X131445000Y-74930000D01*
X131445000Y-74930000D02*
X135890000Y-79375000D01*
X149670000Y-79375000D02*
X152400000Y-76645000D01*
X135890000Y-79375000D02*
X149670000Y-79375000D01*
%TO.N,Net-(J1-Pad7)*%
X165100000Y-37465000D02*
X160909000Y-37465000D01*
X160909000Y-37465000D02*
X151130000Y-27686000D01*
X151130000Y-27686000D02*
X148590000Y-27686000D01*
X142875000Y-33401000D02*
X142875000Y-34290000D01*
X148590000Y-27686000D02*
X142875000Y-33401000D01*
X165100000Y-37465000D02*
X168148000Y-40513000D01*
X168148000Y-40513000D02*
X168148000Y-67310000D01*
X162813000Y-72645000D02*
X155400000Y-72645000D01*
X168148000Y-67310000D02*
X162813000Y-72645000D01*
%TO.N,Net-(J3-Pad9)*%
X165100000Y-50165000D02*
X149225000Y-66040000D01*
X149225000Y-66040000D02*
X149225000Y-73025000D01*
X146685000Y-75565000D02*
X143045000Y-75565000D01*
X149225000Y-73025000D02*
X146685000Y-75565000D01*
%TO.N,Net-(J3-Pad7)*%
X137505000Y-69505000D02*
X137505000Y-75565000D01*
X146050000Y-60960000D02*
X137505000Y-69505000D01*
X146050000Y-56515000D02*
X146050000Y-60960000D01*
X149860000Y-52705000D02*
X146050000Y-56515000D01*
%TO.N,Net-(J3-Pad6)*%
X136640000Y-77470000D02*
X134735000Y-75565000D01*
X146050000Y-77470000D02*
X136640000Y-77470000D01*
X164465000Y-52705000D02*
X165100000Y-52705000D01*
X150368000Y-66802000D02*
X164465000Y-52705000D01*
X150368000Y-73152000D02*
X146050000Y-77470000D01*
X150368000Y-66802000D02*
X150368000Y-73152000D01*
%TO.N,Net-(J3-Pad4)*%
X165100000Y-40005000D02*
X163195000Y-41910000D01*
X163195000Y-41910000D02*
X163195000Y-50800000D01*
X141660000Y-72335000D02*
X141660000Y-73025000D01*
X163195000Y-50800000D02*
X141660000Y-72335000D01*
%TO.N,Net-(J3-Pad2)*%
X136120000Y-52475000D02*
X136120000Y-73025000D01*
X147955000Y-49530000D02*
X139065000Y-49530000D01*
X148590000Y-50165000D02*
X147955000Y-49530000D01*
X139065000Y-49530000D02*
X136120000Y-52475000D01*
X149860000Y-50165000D02*
X148590000Y-50165000D01*
%TO.N,Net-(J3-Pad1)*%
X148734999Y-48750001D02*
X135399999Y-48750001D01*
X149860000Y-47625000D02*
X148734999Y-48750001D01*
X135399999Y-48750001D02*
X133350000Y-50800000D01*
X133350000Y-50800000D02*
X133350000Y-73025000D01*
%TD*%
M02*
