%TF.GenerationSoftware,KiCad,Pcbnew,(5.1.10-1-10_14)*%
%TF.CreationDate,2021-09-07T21:23:44-04:00*%
%TF.ProjectId,Triple Controller,54726970-6c65-4204-936f-6e74726f6c6c,rev?*%
%TF.SameCoordinates,Original*%
%TF.FileFunction,Copper,L2,Bot*%
%TF.FilePolarity,Positive*%
%FSLAX46Y46*%
G04 Gerber Fmt 4.6, Leading zero omitted, Abs format (unit mm)*
G04 Created by KiCad (PCBNEW (5.1.10-1-10_14)) date 2021-09-07 21:23:44*
%MOMM*%
%LPD*%
G01*
G04 APERTURE LIST*
%TA.AperFunction,ComponentPad*%
%ADD10C,3.000000*%
%TD*%
%TA.AperFunction,ComponentPad*%
%ADD11C,1.600000*%
%TD*%
%TA.AperFunction,ComponentPad*%
%ADD12R,1.600000X1.600000*%
%TD*%
%TA.AperFunction,ComponentPad*%
%ADD13C,2.200000*%
%TD*%
%TA.AperFunction,ViaPad*%
%ADD14C,0.800000*%
%TD*%
%TA.AperFunction,Conductor*%
%ADD15C,0.500000*%
%TD*%
%TA.AperFunction,Conductor*%
%ADD16C,0.254000*%
%TD*%
%TA.AperFunction,Conductor*%
%ADD17C,0.100000*%
%TD*%
G04 APERTURE END LIST*
D10*
%TO.P,J2,7*%
%TO.N,Net-(J1-Pad1)*%
X142875000Y-60790000D03*
%TO.P,J2,6*%
%TO.N,Net-(J2-Pad6)*%
X142875000Y-56790000D03*
%TO.P,J2,5*%
%TO.N,Net-(J2-Pad5)*%
X142875000Y-52790000D03*
%TO.P,J2,4*%
%TO.N,Net-(J2-Pad4)*%
X142875000Y-46290000D03*
%TO.P,J2,3*%
%TO.N,Net-(J1-Pad3)*%
X142875000Y-42290000D03*
%TO.P,J2,2*%
%TO.N,Net-(J1-Pad2)*%
X142875000Y-38290000D03*
%TO.P,J2,1*%
%TO.N,Net-(J1-Pad7)*%
X142875000Y-34290000D03*
%TD*%
D11*
%TO.P,U1,24*%
%TO.N,Net-(U1-Pad24)*%
X165100000Y-29845000D03*
%TO.P,U1,23*%
%TO.N,Net-(J1-Pad1)*%
X165100000Y-32385000D03*
%TO.P,U1,22*%
%TO.N,Net-(U1-Pad22)*%
X165100000Y-34925000D03*
%TO.P,U1,21*%
%TO.N,Net-(J1-Pad7)*%
X165100000Y-37465000D03*
%TO.P,U1,20*%
%TO.N,Net-(J3-Pad4)*%
X165100000Y-40005000D03*
%TO.P,U1,19*%
%TO.N,Net-(J3-Pad3)*%
X165100000Y-42545000D03*
%TO.P,U1,18*%
%TO.N,Net-(J2-Pad4)*%
X165100000Y-45085000D03*
%TO.P,U1,17*%
%TO.N,Net-(J1-Pad4)*%
X165100000Y-47625000D03*
%TO.P,U1,16*%
%TO.N,Net-(J3-Pad9)*%
X165100000Y-50165000D03*
%TO.P,U1,15*%
%TO.N,Net-(J3-Pad6)*%
X165100000Y-52705000D03*
%TO.P,U1,14*%
%TO.N,Net-(U1-Pad14)*%
X165100000Y-55245000D03*
%TO.P,U1,13*%
%TO.N,Net-(U1-Pad13)*%
X165100000Y-57785000D03*
%TO.P,U1,12*%
%TO.N,Net-(U1-Pad12)*%
X149860000Y-57785000D03*
%TO.P,U1,11*%
%TO.N,Net-(U1-Pad11)*%
X149860000Y-55245000D03*
%TO.P,U1,10*%
%TO.N,Net-(J3-Pad7)*%
X149860000Y-52705000D03*
%TO.P,U1,9*%
%TO.N,Net-(J3-Pad2)*%
X149860000Y-50165000D03*
%TO.P,U1,8*%
%TO.N,Net-(J3-Pad1)*%
X149860000Y-47625000D03*
%TO.P,U1,7*%
%TO.N,Net-(U1-Pad7)*%
X149860000Y-45085000D03*
%TO.P,U1,6*%
%TO.N,Net-(J1-Pad2)*%
X149860000Y-42545000D03*
%TO.P,U1,5*%
%TO.N,Net-(J1-Pad3)*%
X149860000Y-40005000D03*
%TO.P,U1,4*%
%TO.N,Net-(J1-Pad1)*%
X149860000Y-37465000D03*
%TO.P,U1,3*%
X149860000Y-34925000D03*
%TO.P,U1,2*%
%TO.N,Net-(U1-Pad2)*%
X149860000Y-32385000D03*
D12*
%TO.P,U1,1*%
%TO.N,Net-(U1-Pad1)*%
X149860000Y-29845000D03*
%TD*%
D13*
%TO.P,J1,7*%
%TO.N,Net-(J1-Pad7)*%
X155400000Y-72645000D03*
%TO.P,J1,6*%
%TO.N,Net-(J1-Pad6)*%
X155400000Y-76645000D03*
%TO.P,J1,5*%
%TO.N,Net-(J1-Pad5)*%
X155400000Y-80645000D03*
%TO.P,J1,1*%
%TO.N,Net-(J1-Pad1)*%
X152400000Y-68645000D03*
%TO.P,J1,2*%
%TO.N,Net-(J1-Pad2)*%
X152400000Y-72645000D03*
%TO.P,J1,3*%
%TO.N,Net-(J1-Pad3)*%
X152400000Y-76645000D03*
%TO.P,J1,4*%
%TO.N,Net-(J1-Pad4)*%
X152400000Y-80645000D03*
%TD*%
D11*
%TO.P,J3,9*%
%TO.N,Net-(J3-Pad9)*%
X143045000Y-75565000D03*
%TO.P,J3,8*%
%TO.N,Net-(J1-Pad1)*%
X140275000Y-75565000D03*
%TO.P,J3,7*%
%TO.N,Net-(J3-Pad7)*%
X137505000Y-75565000D03*
%TO.P,J3,6*%
%TO.N,Net-(J3-Pad6)*%
X134735000Y-75565000D03*
%TO.P,J3,5*%
%TO.N,Net-(J1-Pad7)*%
X144430000Y-73025000D03*
%TO.P,J3,4*%
%TO.N,Net-(J3-Pad4)*%
X141660000Y-73025000D03*
%TO.P,J3,3*%
%TO.N,Net-(J3-Pad3)*%
X138890000Y-73025000D03*
%TO.P,J3,2*%
%TO.N,Net-(J3-Pad2)*%
X136120000Y-73025000D03*
D12*
%TO.P,J3,1*%
%TO.N,Net-(J3-Pad1)*%
X133350000Y-73025000D03*
%TD*%
D14*
%TO.N,Net-(J2-Pad4)*%
X145745200Y-64998600D03*
%TD*%
D15*
%TO.N,Net-(J2-Pad4)*%
X145745200Y-49160200D02*
X142875000Y-46290000D01*
X145745200Y-64998600D02*
X145745200Y-49160200D01*
%TO.N,Net-(J1-Pad3)*%
X140411200Y-39826200D02*
X142875000Y-42290000D01*
X140411200Y-32512000D02*
X140411200Y-39826200D01*
X141401800Y-31521400D02*
X140411200Y-32512000D01*
X145669000Y-33045400D02*
X144145000Y-31521400D01*
X145669000Y-36677600D02*
X145669000Y-33045400D01*
X148996400Y-40005000D02*
X145669000Y-36677600D01*
X144145000Y-31521400D02*
X141401800Y-31521400D01*
X149860000Y-40005000D02*
X148996400Y-40005000D01*
%TO.N,Net-(J1-Pad2)*%
X149860000Y-42545000D02*
X151866600Y-44551600D01*
X151866600Y-44551600D02*
X151866600Y-59283600D01*
X151866600Y-59283600D02*
X149021800Y-62128400D01*
X149021800Y-62128400D02*
X149021800Y-71272400D01*
X150394400Y-72645000D02*
X152400000Y-72645000D01*
X149021800Y-71272400D02*
X150394400Y-72645000D01*
X145605000Y-38290000D02*
X149860000Y-42545000D01*
X142875000Y-38290000D02*
X145605000Y-38290000D01*
%TO.N,Net-(J1-Pad4)*%
X158165800Y-82600800D02*
X154355800Y-82600800D01*
X159893000Y-80873600D02*
X158165800Y-82600800D01*
X162899999Y-49875801D02*
X159893000Y-52882800D01*
X162899999Y-49825001D02*
X162899999Y-49875801D01*
X159893000Y-52882800D02*
X159893000Y-80873600D01*
X154355800Y-82600800D02*
X152400000Y-80645000D01*
X165100000Y-47625000D02*
X162899999Y-49825001D01*
%TO.N,Net-(J3-Pad7)*%
X145110200Y-78359000D02*
X138734800Y-78359000D01*
X147751800Y-75717400D02*
X145110200Y-78359000D01*
X147751800Y-54813200D02*
X147751800Y-75717400D01*
X149860000Y-52705000D02*
X147751800Y-54813200D01*
X137505000Y-77129200D02*
X138734800Y-78359000D01*
X137505000Y-75565000D02*
X137505000Y-77129200D01*
%TO.N,Net-(J3-Pad6)*%
X134735000Y-76391200D02*
X134735000Y-75565000D01*
X142214600Y-83870800D02*
X134735000Y-76391200D01*
X161086800Y-56718200D02*
X161086800Y-81407000D01*
X158623000Y-83870800D02*
X142214600Y-83870800D01*
X161086800Y-81407000D02*
X158623000Y-83870800D01*
X165100000Y-52705000D02*
X161086800Y-56718200D01*
%TO.N,Net-(J3-Pad4)*%
X138561200Y-69926200D02*
X141660000Y-73025000D01*
X132130800Y-69926200D02*
X138561200Y-69926200D01*
X130454400Y-76174600D02*
X130454400Y-71602600D01*
X140233400Y-85953600D02*
X130454400Y-76174600D01*
X168249600Y-43180000D02*
X168249600Y-77749400D01*
X160045400Y-85953600D02*
X140233400Y-85953600D01*
X168249600Y-77749400D02*
X160045400Y-85953600D01*
X167900001Y-42830401D02*
X168249600Y-43180000D01*
X130454400Y-71602600D02*
X132130800Y-69926200D01*
X167900001Y-42805001D02*
X167900001Y-42830401D01*
X165100000Y-40005000D02*
X167900001Y-42805001D01*
%TO.N,Net-(J3-Pad3)*%
X132602100Y-71182100D02*
X137047100Y-71182100D01*
X131699000Y-75412600D02*
X131699000Y-72085200D01*
X141147800Y-84861400D02*
X131699000Y-75412600D01*
X137047100Y-71182100D02*
X138890000Y-73025000D01*
X159283400Y-84861400D02*
X141147800Y-84861400D01*
X166954200Y-44399200D02*
X166954200Y-58496200D01*
X162382200Y-81762600D02*
X159283400Y-84861400D01*
X162382200Y-63068200D02*
X162382200Y-81762600D01*
X131699000Y-72085200D02*
X132602100Y-71182100D01*
X166954200Y-58496200D02*
X162382200Y-63068200D01*
X165100000Y-42545000D02*
X166954200Y-44399200D01*
%TD*%
D16*
%TO.N,Net-(J1-Pad1)*%
X168250000Y-41903421D02*
X166528017Y-40181439D01*
X166535000Y-40146335D01*
X166535000Y-39863665D01*
X166479853Y-39586426D01*
X166371680Y-39325273D01*
X166214637Y-39090241D01*
X166014759Y-38890363D01*
X165782241Y-38735000D01*
X166014759Y-38579637D01*
X166214637Y-38379759D01*
X166371680Y-38144727D01*
X166479853Y-37883574D01*
X166535000Y-37606335D01*
X166535000Y-37323665D01*
X166479853Y-37046426D01*
X166371680Y-36785273D01*
X166214637Y-36550241D01*
X166014759Y-36350363D01*
X165782241Y-36195000D01*
X166014759Y-36039637D01*
X166214637Y-35839759D01*
X166371680Y-35604727D01*
X166479853Y-35343574D01*
X166535000Y-35066335D01*
X166535000Y-34783665D01*
X166479853Y-34506426D01*
X166371680Y-34245273D01*
X166214637Y-34010241D01*
X166014759Y-33810363D01*
X165780872Y-33654085D01*
X165841514Y-33621671D01*
X165913097Y-33377702D01*
X165100000Y-32564605D01*
X164286903Y-33377702D01*
X164358486Y-33621671D01*
X164422992Y-33652194D01*
X164420273Y-33653320D01*
X164185241Y-33810363D01*
X163985363Y-34010241D01*
X163828320Y-34245273D01*
X163720147Y-34506426D01*
X163665000Y-34783665D01*
X163665000Y-35066335D01*
X163720147Y-35343574D01*
X163828320Y-35604727D01*
X163985363Y-35839759D01*
X164185241Y-36039637D01*
X164417759Y-36195000D01*
X164185241Y-36350363D01*
X163985363Y-36550241D01*
X163828320Y-36785273D01*
X163720147Y-37046426D01*
X163665000Y-37323665D01*
X163665000Y-37606335D01*
X163720147Y-37883574D01*
X163828320Y-38144727D01*
X163985363Y-38379759D01*
X164185241Y-38579637D01*
X164417759Y-38735000D01*
X164185241Y-38890363D01*
X163985363Y-39090241D01*
X163828320Y-39325273D01*
X163720147Y-39586426D01*
X163665000Y-39863665D01*
X163665000Y-40146335D01*
X163720147Y-40423574D01*
X163828320Y-40684727D01*
X163985363Y-40919759D01*
X164185241Y-41119637D01*
X164417759Y-41275000D01*
X164185241Y-41430363D01*
X163985363Y-41630241D01*
X163828320Y-41865273D01*
X163720147Y-42126426D01*
X163665000Y-42403665D01*
X163665000Y-42686335D01*
X163720147Y-42963574D01*
X163828320Y-43224727D01*
X163985363Y-43459759D01*
X164185241Y-43659637D01*
X164417759Y-43815000D01*
X164185241Y-43970363D01*
X163985363Y-44170241D01*
X163828320Y-44405273D01*
X163720147Y-44666426D01*
X163665000Y-44943665D01*
X163665000Y-45226335D01*
X163720147Y-45503574D01*
X163828320Y-45764727D01*
X163985363Y-45999759D01*
X164185241Y-46199637D01*
X164417759Y-46355000D01*
X164185241Y-46510363D01*
X163985363Y-46710241D01*
X163828320Y-46945273D01*
X163720147Y-47206426D01*
X163665000Y-47483665D01*
X163665000Y-47766335D01*
X163671983Y-47801439D01*
X162304955Y-49168467D01*
X162271182Y-49196184D01*
X162160588Y-49330943D01*
X162123052Y-49401169D01*
X159297956Y-52226266D01*
X159264183Y-52253983D01*
X159153589Y-52388742D01*
X159071411Y-52542488D01*
X159036157Y-52658704D01*
X159022113Y-52705000D01*
X159020805Y-52709311D01*
X159008000Y-52839324D01*
X159008000Y-52839331D01*
X159003719Y-52882800D01*
X159008000Y-52926269D01*
X159008001Y-80507020D01*
X157799222Y-81715800D01*
X156771182Y-81715800D01*
X156937537Y-81466831D01*
X157068325Y-81151081D01*
X157135000Y-80815883D01*
X157135000Y-80474117D01*
X157068325Y-80138919D01*
X156937537Y-79823169D01*
X156747663Y-79539002D01*
X156505998Y-79297337D01*
X156221831Y-79107463D01*
X155906081Y-78976675D01*
X155570883Y-78910000D01*
X155229117Y-78910000D01*
X154893919Y-78976675D01*
X154578169Y-79107463D01*
X154294002Y-79297337D01*
X154052337Y-79539002D01*
X153900000Y-79766991D01*
X153747663Y-79539002D01*
X153505998Y-79297337D01*
X153221831Y-79107463D01*
X152906081Y-78976675D01*
X152570883Y-78910000D01*
X152229117Y-78910000D01*
X151893919Y-78976675D01*
X151578169Y-79107463D01*
X151294002Y-79297337D01*
X151052337Y-79539002D01*
X150862463Y-79823169D01*
X150731675Y-80138919D01*
X150665000Y-80474117D01*
X150665000Y-80815883D01*
X150731675Y-81151081D01*
X150862463Y-81466831D01*
X151052337Y-81750998D01*
X151294002Y-81992663D01*
X151578169Y-82182537D01*
X151893919Y-82313325D01*
X152229117Y-82380000D01*
X152570883Y-82380000D01*
X152831568Y-82328147D01*
X153489221Y-82985800D01*
X142581179Y-82985800D01*
X138839378Y-79244000D01*
X145066731Y-79244000D01*
X145110200Y-79248281D01*
X145153669Y-79244000D01*
X145153677Y-79244000D01*
X145283690Y-79231195D01*
X145450513Y-79180589D01*
X145604259Y-79098411D01*
X145739017Y-78987817D01*
X145766734Y-78954044D01*
X148246661Y-76474117D01*
X150665000Y-76474117D01*
X150665000Y-76815883D01*
X150731675Y-77151081D01*
X150862463Y-77466831D01*
X151052337Y-77750998D01*
X151294002Y-77992663D01*
X151578169Y-78182537D01*
X151893919Y-78313325D01*
X152229117Y-78380000D01*
X152570883Y-78380000D01*
X152906081Y-78313325D01*
X153221831Y-78182537D01*
X153505998Y-77992663D01*
X153747663Y-77750998D01*
X153900000Y-77523009D01*
X154052337Y-77750998D01*
X154294002Y-77992663D01*
X154578169Y-78182537D01*
X154893919Y-78313325D01*
X155229117Y-78380000D01*
X155570883Y-78380000D01*
X155906081Y-78313325D01*
X156221831Y-78182537D01*
X156505998Y-77992663D01*
X156747663Y-77750998D01*
X156937537Y-77466831D01*
X157068325Y-77151081D01*
X157135000Y-76815883D01*
X157135000Y-76474117D01*
X157068325Y-76138919D01*
X156937537Y-75823169D01*
X156747663Y-75539002D01*
X156505998Y-75297337D01*
X156221831Y-75107463D01*
X155906081Y-74976675D01*
X155570883Y-74910000D01*
X155229117Y-74910000D01*
X154893919Y-74976675D01*
X154578169Y-75107463D01*
X154294002Y-75297337D01*
X154052337Y-75539002D01*
X153900000Y-75766991D01*
X153747663Y-75539002D01*
X153505998Y-75297337D01*
X153221831Y-75107463D01*
X152906081Y-74976675D01*
X152570883Y-74910000D01*
X152229117Y-74910000D01*
X151893919Y-74976675D01*
X151578169Y-75107463D01*
X151294002Y-75297337D01*
X151052337Y-75539002D01*
X150862463Y-75823169D01*
X150731675Y-76138919D01*
X150665000Y-76474117D01*
X148246661Y-76474117D01*
X148346849Y-76373930D01*
X148380617Y-76346217D01*
X148417003Y-76301882D01*
X148491211Y-76211459D01*
X148573389Y-76057714D01*
X148623995Y-75890890D01*
X148636800Y-75760877D01*
X148636800Y-75760869D01*
X148641081Y-75717400D01*
X148636800Y-75673931D01*
X148636800Y-72138978D01*
X149737870Y-73240049D01*
X149765583Y-73273817D01*
X149799351Y-73301530D01*
X149799353Y-73301532D01*
X149900341Y-73384411D01*
X150054086Y-73466589D01*
X150220910Y-73517195D01*
X150350923Y-73530000D01*
X150350931Y-73530000D01*
X150394400Y-73534281D01*
X150437869Y-73530000D01*
X150904671Y-73530000D01*
X151052337Y-73750998D01*
X151294002Y-73992663D01*
X151578169Y-74182537D01*
X151893919Y-74313325D01*
X152229117Y-74380000D01*
X152570883Y-74380000D01*
X152906081Y-74313325D01*
X153221831Y-74182537D01*
X153505998Y-73992663D01*
X153747663Y-73750998D01*
X153900000Y-73523009D01*
X154052337Y-73750998D01*
X154294002Y-73992663D01*
X154578169Y-74182537D01*
X154893919Y-74313325D01*
X155229117Y-74380000D01*
X155570883Y-74380000D01*
X155906081Y-74313325D01*
X156221831Y-74182537D01*
X156505998Y-73992663D01*
X156747663Y-73750998D01*
X156937537Y-73466831D01*
X157068325Y-73151081D01*
X157135000Y-72815883D01*
X157135000Y-72474117D01*
X157068325Y-72138919D01*
X156937537Y-71823169D01*
X156747663Y-71539002D01*
X156505998Y-71297337D01*
X156221831Y-71107463D01*
X155906081Y-70976675D01*
X155570883Y-70910000D01*
X155229117Y-70910000D01*
X154893919Y-70976675D01*
X154578169Y-71107463D01*
X154294002Y-71297337D01*
X154052337Y-71539002D01*
X153900000Y-71766991D01*
X153747663Y-71539002D01*
X153505998Y-71297337D01*
X153221831Y-71107463D01*
X152906081Y-70976675D01*
X152570883Y-70910000D01*
X152229117Y-70910000D01*
X151893919Y-70976675D01*
X151578169Y-71107463D01*
X151294002Y-71297337D01*
X151052337Y-71539002D01*
X150904671Y-71760000D01*
X150760979Y-71760000D01*
X149906800Y-70905822D01*
X149906800Y-69851712D01*
X151372893Y-69851712D01*
X151480726Y-70126338D01*
X151787384Y-70277216D01*
X152117585Y-70365369D01*
X152458639Y-70387409D01*
X152797439Y-70342489D01*
X153120966Y-70232336D01*
X153319274Y-70126338D01*
X153427107Y-69851712D01*
X152400000Y-68824605D01*
X151372893Y-69851712D01*
X149906800Y-69851712D01*
X149906800Y-68703639D01*
X150657591Y-68703639D01*
X150702511Y-69042439D01*
X150812664Y-69365966D01*
X150918662Y-69564274D01*
X151193288Y-69672107D01*
X152220395Y-68645000D01*
X152579605Y-68645000D01*
X153606712Y-69672107D01*
X153881338Y-69564274D01*
X154032216Y-69257616D01*
X154120369Y-68927415D01*
X154142409Y-68586361D01*
X154097489Y-68247561D01*
X153987336Y-67924034D01*
X153881338Y-67725726D01*
X153606712Y-67617893D01*
X152579605Y-68645000D01*
X152220395Y-68645000D01*
X151193288Y-67617893D01*
X150918662Y-67725726D01*
X150767784Y-68032384D01*
X150679631Y-68362585D01*
X150657591Y-68703639D01*
X149906800Y-68703639D01*
X149906800Y-67438288D01*
X151372893Y-67438288D01*
X152400000Y-68465395D01*
X153427107Y-67438288D01*
X153319274Y-67163662D01*
X153012616Y-67012784D01*
X152682415Y-66924631D01*
X152341361Y-66902591D01*
X152002561Y-66947511D01*
X151679034Y-67057664D01*
X151480726Y-67163662D01*
X151372893Y-67438288D01*
X149906800Y-67438288D01*
X149906800Y-62494978D01*
X152461649Y-59940130D01*
X152495417Y-59912417D01*
X152606011Y-59777659D01*
X152688189Y-59623913D01*
X152738795Y-59457090D01*
X152751600Y-59327077D01*
X152751600Y-59327069D01*
X152755881Y-59283600D01*
X152751600Y-59240131D01*
X152751600Y-44595069D01*
X152755881Y-44551600D01*
X152751600Y-44508131D01*
X152751600Y-44508123D01*
X152738795Y-44378110D01*
X152688189Y-44211287D01*
X152606011Y-44057541D01*
X152560092Y-44001589D01*
X152523132Y-43956553D01*
X152523130Y-43956551D01*
X152495417Y-43922783D01*
X152461650Y-43895071D01*
X151288017Y-42721439D01*
X151295000Y-42686335D01*
X151295000Y-42403665D01*
X151239853Y-42126426D01*
X151131680Y-41865273D01*
X150974637Y-41630241D01*
X150774759Y-41430363D01*
X150542241Y-41275000D01*
X150774759Y-41119637D01*
X150974637Y-40919759D01*
X151131680Y-40684727D01*
X151239853Y-40423574D01*
X151295000Y-40146335D01*
X151295000Y-39863665D01*
X151239853Y-39586426D01*
X151131680Y-39325273D01*
X150974637Y-39090241D01*
X150774759Y-38890363D01*
X150540872Y-38734085D01*
X150601514Y-38701671D01*
X150673097Y-38457702D01*
X149860000Y-37644605D01*
X149046903Y-38457702D01*
X149118486Y-38701671D01*
X149182992Y-38732194D01*
X149180273Y-38733320D01*
X149057999Y-38815020D01*
X147778491Y-37535512D01*
X148419783Y-37535512D01*
X148461213Y-37815130D01*
X148556397Y-38081292D01*
X148623329Y-38206514D01*
X148867298Y-38278097D01*
X149680395Y-37465000D01*
X150039605Y-37465000D01*
X150852702Y-38278097D01*
X151096671Y-38206514D01*
X151217571Y-37951004D01*
X151286300Y-37676816D01*
X151300217Y-37394488D01*
X151258787Y-37114870D01*
X151163603Y-36848708D01*
X151096671Y-36723486D01*
X150852702Y-36651903D01*
X150039605Y-37465000D01*
X149680395Y-37465000D01*
X148867298Y-36651903D01*
X148623329Y-36723486D01*
X148502429Y-36978996D01*
X148433700Y-37253184D01*
X148419783Y-37535512D01*
X147778491Y-37535512D01*
X146554000Y-36311022D01*
X146554000Y-35917702D01*
X149046903Y-35917702D01*
X149118486Y-36161671D01*
X149184636Y-36192971D01*
X149118486Y-36228329D01*
X149046903Y-36472298D01*
X149860000Y-37285395D01*
X150673097Y-36472298D01*
X150601514Y-36228329D01*
X150535364Y-36197029D01*
X150601514Y-36161671D01*
X150673097Y-35917702D01*
X149860000Y-35104605D01*
X149046903Y-35917702D01*
X146554000Y-35917702D01*
X146554000Y-34995512D01*
X148419783Y-34995512D01*
X148461213Y-35275130D01*
X148556397Y-35541292D01*
X148623329Y-35666514D01*
X148867298Y-35738097D01*
X149680395Y-34925000D01*
X150039605Y-34925000D01*
X150852702Y-35738097D01*
X151096671Y-35666514D01*
X151217571Y-35411004D01*
X151286300Y-35136816D01*
X151300217Y-34854488D01*
X151258787Y-34574870D01*
X151163603Y-34308708D01*
X151096671Y-34183486D01*
X150852702Y-34111903D01*
X150039605Y-34925000D01*
X149680395Y-34925000D01*
X148867298Y-34111903D01*
X148623329Y-34183486D01*
X148502429Y-34438996D01*
X148433700Y-34713184D01*
X148419783Y-34995512D01*
X146554000Y-34995512D01*
X146554000Y-33088865D01*
X146558281Y-33045399D01*
X146554000Y-33001933D01*
X146554000Y-33001923D01*
X146541195Y-32871910D01*
X146490589Y-32705087D01*
X146408411Y-32551341D01*
X146376124Y-32512000D01*
X146325532Y-32450353D01*
X146325530Y-32450351D01*
X146297817Y-32416583D01*
X146264049Y-32388870D01*
X144801534Y-30926356D01*
X144773817Y-30892583D01*
X144639059Y-30781989D01*
X144485313Y-30699811D01*
X144318490Y-30649205D01*
X144188477Y-30636400D01*
X144188469Y-30636400D01*
X144145000Y-30632119D01*
X144101531Y-30636400D01*
X141445269Y-30636400D01*
X141401800Y-30632119D01*
X141358331Y-30636400D01*
X141358323Y-30636400D01*
X141243106Y-30647748D01*
X141228309Y-30649205D01*
X141177703Y-30664557D01*
X141061487Y-30699811D01*
X140907741Y-30781989D01*
X140907739Y-30781990D01*
X140907740Y-30781990D01*
X140806753Y-30864868D01*
X140806751Y-30864870D01*
X140772983Y-30892583D01*
X140745270Y-30926351D01*
X139816156Y-31855466D01*
X139782383Y-31883183D01*
X139671789Y-32017942D01*
X139589611Y-32171688D01*
X139554357Y-32287904D01*
X139548871Y-32305989D01*
X139539005Y-32338511D01*
X139526200Y-32468524D01*
X139526200Y-32468531D01*
X139521919Y-32512000D01*
X139526200Y-32555469D01*
X139526201Y-39782721D01*
X139521919Y-39826200D01*
X139539005Y-39999690D01*
X139589612Y-40166513D01*
X139671790Y-40320259D01*
X139754668Y-40421246D01*
X139754671Y-40421249D01*
X139782384Y-40455017D01*
X139816151Y-40482729D01*
X140874363Y-41540942D01*
X140822047Y-41667244D01*
X140740000Y-42079721D01*
X140740000Y-42500279D01*
X140822047Y-42912756D01*
X140982988Y-43301302D01*
X141216637Y-43650983D01*
X141514017Y-43948363D01*
X141863698Y-44182012D01*
X142124404Y-44290000D01*
X141863698Y-44397988D01*
X141514017Y-44631637D01*
X141216637Y-44929017D01*
X140982988Y-45278698D01*
X140822047Y-45667244D01*
X140740000Y-46079721D01*
X140740000Y-46500279D01*
X140822047Y-46912756D01*
X140982988Y-47301302D01*
X141216637Y-47650983D01*
X141514017Y-47948363D01*
X141863698Y-48182012D01*
X142252244Y-48342953D01*
X142664721Y-48425000D01*
X143085279Y-48425000D01*
X143497756Y-48342953D01*
X143624058Y-48290637D01*
X144860201Y-49526780D01*
X144860201Y-52003676D01*
X144767012Y-51778698D01*
X144533363Y-51429017D01*
X144235983Y-51131637D01*
X143886302Y-50897988D01*
X143497756Y-50737047D01*
X143085279Y-50655000D01*
X142664721Y-50655000D01*
X142252244Y-50737047D01*
X141863698Y-50897988D01*
X141514017Y-51131637D01*
X141216637Y-51429017D01*
X140982988Y-51778698D01*
X140822047Y-52167244D01*
X140740000Y-52579721D01*
X140740000Y-53000279D01*
X140822047Y-53412756D01*
X140982988Y-53801302D01*
X141216637Y-54150983D01*
X141514017Y-54448363D01*
X141863698Y-54682012D01*
X142124404Y-54790000D01*
X141863698Y-54897988D01*
X141514017Y-55131637D01*
X141216637Y-55429017D01*
X140982988Y-55778698D01*
X140822047Y-56167244D01*
X140740000Y-56579721D01*
X140740000Y-57000279D01*
X140822047Y-57412756D01*
X140982988Y-57801302D01*
X141216637Y-58150983D01*
X141514017Y-58448363D01*
X141863698Y-58682012D01*
X142123113Y-58789465D01*
X142014617Y-58824757D01*
X141718962Y-58982786D01*
X141562952Y-59298347D01*
X142875000Y-60610395D01*
X144187048Y-59298347D01*
X144031038Y-58982786D01*
X143656255Y-58791980D01*
X143635161Y-58786038D01*
X143886302Y-58682012D01*
X144235983Y-58448363D01*
X144533363Y-58150983D01*
X144767012Y-57801302D01*
X144860200Y-57576325D01*
X144860200Y-59990971D01*
X144840243Y-59929617D01*
X144682214Y-59633962D01*
X144366653Y-59477952D01*
X143054605Y-60790000D01*
X144366653Y-62102048D01*
X144682214Y-61946038D01*
X144860200Y-61596436D01*
X144860200Y-64460146D01*
X144827995Y-64508344D01*
X144749974Y-64696702D01*
X144710200Y-64896661D01*
X144710200Y-65100539D01*
X144749974Y-65300498D01*
X144827995Y-65488856D01*
X144941263Y-65658374D01*
X145085426Y-65802537D01*
X145254944Y-65915805D01*
X145443302Y-65993826D01*
X145643261Y-66033600D01*
X145847139Y-66033600D01*
X146047098Y-65993826D01*
X146235456Y-65915805D01*
X146404974Y-65802537D01*
X146549137Y-65658374D01*
X146662405Y-65488856D01*
X146740426Y-65300498D01*
X146780200Y-65100539D01*
X146780200Y-64896661D01*
X146740426Y-64696702D01*
X146662405Y-64508344D01*
X146630200Y-64460146D01*
X146630200Y-49203669D01*
X146634481Y-49160200D01*
X146630200Y-49116731D01*
X146630200Y-49116723D01*
X146617395Y-48986710D01*
X146566789Y-48819887D01*
X146484611Y-48666141D01*
X146374017Y-48531383D01*
X146340249Y-48503670D01*
X144875637Y-47039058D01*
X144927953Y-46912756D01*
X145010000Y-46500279D01*
X145010000Y-46079721D01*
X144927953Y-45667244D01*
X144767012Y-45278698D01*
X144533363Y-44929017D01*
X144235983Y-44631637D01*
X143886302Y-44397988D01*
X143625596Y-44290000D01*
X143886302Y-44182012D01*
X144235983Y-43948363D01*
X144533363Y-43650983D01*
X144767012Y-43301302D01*
X144927953Y-42912756D01*
X145010000Y-42500279D01*
X145010000Y-42079721D01*
X144927953Y-41667244D01*
X144767012Y-41278698D01*
X144533363Y-40929017D01*
X144235983Y-40631637D01*
X143886302Y-40397988D01*
X143625596Y-40290000D01*
X143886302Y-40182012D01*
X144235983Y-39948363D01*
X144533363Y-39650983D01*
X144767012Y-39301302D01*
X144819328Y-39175000D01*
X145238422Y-39175000D01*
X148431983Y-42368561D01*
X148425000Y-42403665D01*
X148425000Y-42686335D01*
X148480147Y-42963574D01*
X148588320Y-43224727D01*
X148745363Y-43459759D01*
X148945241Y-43659637D01*
X149177759Y-43815000D01*
X148945241Y-43970363D01*
X148745363Y-44170241D01*
X148588320Y-44405273D01*
X148480147Y-44666426D01*
X148425000Y-44943665D01*
X148425000Y-45226335D01*
X148480147Y-45503574D01*
X148588320Y-45764727D01*
X148745363Y-45999759D01*
X148945241Y-46199637D01*
X149177759Y-46355000D01*
X148945241Y-46510363D01*
X148745363Y-46710241D01*
X148588320Y-46945273D01*
X148480147Y-47206426D01*
X148425000Y-47483665D01*
X148425000Y-47766335D01*
X148480147Y-48043574D01*
X148588320Y-48304727D01*
X148745363Y-48539759D01*
X148945241Y-48739637D01*
X149177759Y-48895000D01*
X148945241Y-49050363D01*
X148745363Y-49250241D01*
X148588320Y-49485273D01*
X148480147Y-49746426D01*
X148425000Y-50023665D01*
X148425000Y-50306335D01*
X148480147Y-50583574D01*
X148588320Y-50844727D01*
X148745363Y-51079759D01*
X148945241Y-51279637D01*
X149177759Y-51435000D01*
X148945241Y-51590363D01*
X148745363Y-51790241D01*
X148588320Y-52025273D01*
X148480147Y-52286426D01*
X148425000Y-52563665D01*
X148425000Y-52846335D01*
X148431983Y-52881439D01*
X147156756Y-54156666D01*
X147122983Y-54184383D01*
X147012389Y-54319142D01*
X146930211Y-54472888D01*
X146879605Y-54639711D01*
X146866800Y-54769724D01*
X146866800Y-54769731D01*
X146862519Y-54813200D01*
X146866800Y-54856669D01*
X146866801Y-75350820D01*
X144743622Y-77474000D01*
X139101379Y-77474000D01*
X138390000Y-76762622D01*
X138390000Y-76699521D01*
X138419759Y-76679637D01*
X138541694Y-76557702D01*
X139461903Y-76557702D01*
X139533486Y-76801671D01*
X139788996Y-76922571D01*
X140063184Y-76991300D01*
X140345512Y-77005217D01*
X140625130Y-76963787D01*
X140891292Y-76868603D01*
X141016514Y-76801671D01*
X141088097Y-76557702D01*
X140275000Y-75744605D01*
X139461903Y-76557702D01*
X138541694Y-76557702D01*
X138619637Y-76479759D01*
X138776680Y-76244727D01*
X138884853Y-75983574D01*
X138890513Y-75955118D01*
X138971397Y-76181292D01*
X139038329Y-76306514D01*
X139282298Y-76378097D01*
X140095395Y-75565000D01*
X140454605Y-75565000D01*
X141267702Y-76378097D01*
X141511671Y-76306514D01*
X141632571Y-76051004D01*
X141658212Y-75948711D01*
X141665147Y-75983574D01*
X141773320Y-76244727D01*
X141930363Y-76479759D01*
X142130241Y-76679637D01*
X142365273Y-76836680D01*
X142626426Y-76944853D01*
X142903665Y-77000000D01*
X143186335Y-77000000D01*
X143463574Y-76944853D01*
X143724727Y-76836680D01*
X143959759Y-76679637D01*
X144159637Y-76479759D01*
X144316680Y-76244727D01*
X144424853Y-75983574D01*
X144480000Y-75706335D01*
X144480000Y-75423665D01*
X144424853Y-75146426D01*
X144316680Y-74885273D01*
X144159637Y-74650241D01*
X143959759Y-74450363D01*
X143724727Y-74293320D01*
X143463574Y-74185147D01*
X143186335Y-74130000D01*
X142903665Y-74130000D01*
X142626426Y-74185147D01*
X142365273Y-74293320D01*
X142130241Y-74450363D01*
X141930363Y-74650241D01*
X141773320Y-74885273D01*
X141665147Y-75146426D01*
X141659487Y-75174882D01*
X141578603Y-74948708D01*
X141511671Y-74823486D01*
X141267702Y-74751903D01*
X140454605Y-75565000D01*
X140095395Y-75565000D01*
X139282298Y-74751903D01*
X139038329Y-74823486D01*
X138917429Y-75078996D01*
X138891788Y-75181289D01*
X138884853Y-75146426D01*
X138776680Y-74885273D01*
X138619637Y-74650241D01*
X138541694Y-74572298D01*
X139461903Y-74572298D01*
X140275000Y-75385395D01*
X141088097Y-74572298D01*
X141016514Y-74328329D01*
X140761004Y-74207429D01*
X140486816Y-74138700D01*
X140204488Y-74124783D01*
X139924870Y-74166213D01*
X139658708Y-74261397D01*
X139533486Y-74328329D01*
X139461903Y-74572298D01*
X138541694Y-74572298D01*
X138419759Y-74450363D01*
X138184727Y-74293320D01*
X137923574Y-74185147D01*
X137646335Y-74130000D01*
X137363665Y-74130000D01*
X137086426Y-74185147D01*
X136825273Y-74293320D01*
X136590241Y-74450363D01*
X136390363Y-74650241D01*
X136233320Y-74885273D01*
X136125147Y-75146426D01*
X136120000Y-75172301D01*
X136114853Y-75146426D01*
X136006680Y-74885273D01*
X135849637Y-74650241D01*
X135649759Y-74450363D01*
X135414727Y-74293320D01*
X135153574Y-74185147D01*
X134876335Y-74130000D01*
X134706993Y-74130000D01*
X134739502Y-74069180D01*
X134775812Y-73949482D01*
X134788072Y-73825000D01*
X134788072Y-73559275D01*
X134848320Y-73704727D01*
X135005363Y-73939759D01*
X135205241Y-74139637D01*
X135440273Y-74296680D01*
X135701426Y-74404853D01*
X135978665Y-74460000D01*
X136261335Y-74460000D01*
X136538574Y-74404853D01*
X136799727Y-74296680D01*
X137034759Y-74139637D01*
X137234637Y-73939759D01*
X137391680Y-73704727D01*
X137499853Y-73443574D01*
X137505000Y-73417699D01*
X137510147Y-73443574D01*
X137618320Y-73704727D01*
X137775363Y-73939759D01*
X137975241Y-74139637D01*
X138210273Y-74296680D01*
X138471426Y-74404853D01*
X138748665Y-74460000D01*
X139031335Y-74460000D01*
X139308574Y-74404853D01*
X139569727Y-74296680D01*
X139804759Y-74139637D01*
X140004637Y-73939759D01*
X140161680Y-73704727D01*
X140269853Y-73443574D01*
X140275000Y-73417699D01*
X140280147Y-73443574D01*
X140388320Y-73704727D01*
X140545363Y-73939759D01*
X140745241Y-74139637D01*
X140980273Y-74296680D01*
X141241426Y-74404853D01*
X141518665Y-74460000D01*
X141801335Y-74460000D01*
X142078574Y-74404853D01*
X142339727Y-74296680D01*
X142574759Y-74139637D01*
X142774637Y-73939759D01*
X142931680Y-73704727D01*
X143039853Y-73443574D01*
X143045000Y-73417699D01*
X143050147Y-73443574D01*
X143158320Y-73704727D01*
X143315363Y-73939759D01*
X143515241Y-74139637D01*
X143750273Y-74296680D01*
X144011426Y-74404853D01*
X144288665Y-74460000D01*
X144571335Y-74460000D01*
X144848574Y-74404853D01*
X145109727Y-74296680D01*
X145344759Y-74139637D01*
X145544637Y-73939759D01*
X145701680Y-73704727D01*
X145809853Y-73443574D01*
X145865000Y-73166335D01*
X145865000Y-72883665D01*
X145809853Y-72606426D01*
X145701680Y-72345273D01*
X145544637Y-72110241D01*
X145344759Y-71910363D01*
X145109727Y-71753320D01*
X144848574Y-71645147D01*
X144571335Y-71590000D01*
X144288665Y-71590000D01*
X144011426Y-71645147D01*
X143750273Y-71753320D01*
X143515241Y-71910363D01*
X143315363Y-72110241D01*
X143158320Y-72345273D01*
X143050147Y-72606426D01*
X143045000Y-72632301D01*
X143039853Y-72606426D01*
X142931680Y-72345273D01*
X142774637Y-72110241D01*
X142574759Y-71910363D01*
X142339727Y-71753320D01*
X142078574Y-71645147D01*
X141801335Y-71590000D01*
X141518665Y-71590000D01*
X141483561Y-71596983D01*
X139217734Y-69331156D01*
X139190017Y-69297383D01*
X139055259Y-69186789D01*
X138901513Y-69104611D01*
X138734690Y-69054005D01*
X138604677Y-69041200D01*
X138604669Y-69041200D01*
X138561200Y-69036919D01*
X138517731Y-69041200D01*
X132174269Y-69041200D01*
X132130800Y-69036919D01*
X132087331Y-69041200D01*
X132087323Y-69041200D01*
X131957310Y-69054005D01*
X131790486Y-69104611D01*
X131636741Y-69186789D01*
X131535753Y-69269668D01*
X131535751Y-69269670D01*
X131501983Y-69297383D01*
X131474270Y-69331151D01*
X129859351Y-70946071D01*
X129825584Y-70973783D01*
X129797871Y-71007551D01*
X129797868Y-71007554D01*
X129714990Y-71108541D01*
X129632812Y-71262287D01*
X129582205Y-71429110D01*
X129565119Y-71602600D01*
X129569401Y-71646079D01*
X129569400Y-76131131D01*
X129565119Y-76174600D01*
X129569400Y-76218069D01*
X129569400Y-76218076D01*
X129582205Y-76348089D01*
X129632811Y-76514912D01*
X129714989Y-76668658D01*
X129825583Y-76803417D01*
X129859356Y-76831134D01*
X139576870Y-86548649D01*
X139604583Y-86582417D01*
X139638351Y-86610130D01*
X139638353Y-86610132D01*
X139709852Y-86668810D01*
X139739341Y-86693011D01*
X139893087Y-86775189D01*
X140059910Y-86825795D01*
X140189923Y-86838600D01*
X140189933Y-86838600D01*
X140233399Y-86842881D01*
X140276865Y-86838600D01*
X160001931Y-86838600D01*
X160045400Y-86842881D01*
X160088869Y-86838600D01*
X160088877Y-86838600D01*
X160218890Y-86825795D01*
X160385713Y-86775189D01*
X160539459Y-86693011D01*
X160674217Y-86582417D01*
X160701934Y-86548644D01*
X162988582Y-84261996D01*
X162965000Y-84380551D01*
X162965000Y-84909449D01*
X163068183Y-85428186D01*
X163270583Y-85916825D01*
X163564424Y-86356588D01*
X163938412Y-86730576D01*
X164378175Y-87024417D01*
X164866814Y-87226817D01*
X165385551Y-87330000D01*
X165914449Y-87330000D01*
X166433186Y-87226817D01*
X166921825Y-87024417D01*
X167361588Y-86730576D01*
X167735576Y-86356588D01*
X168029417Y-85916825D01*
X168231817Y-85428186D01*
X168250001Y-85336769D01*
X168250001Y-90780000D01*
X128930000Y-90780000D01*
X128930000Y-62281653D01*
X141562952Y-62281653D01*
X141718962Y-62597214D01*
X142093745Y-62788020D01*
X142498551Y-62902044D01*
X142917824Y-62934902D01*
X143335451Y-62885334D01*
X143735383Y-62755243D01*
X144031038Y-62597214D01*
X144187048Y-62281653D01*
X142875000Y-60969605D01*
X141562952Y-62281653D01*
X128930000Y-62281653D01*
X128930000Y-60832824D01*
X140730098Y-60832824D01*
X140779666Y-61250451D01*
X140909757Y-61650383D01*
X141067786Y-61946038D01*
X141383347Y-62102048D01*
X142695395Y-60790000D01*
X141383347Y-59477952D01*
X141067786Y-59633962D01*
X140876980Y-60008745D01*
X140762956Y-60413551D01*
X140730098Y-60832824D01*
X128930000Y-60832824D01*
X128930000Y-29045000D01*
X148421928Y-29045000D01*
X148421928Y-30645000D01*
X148434188Y-30769482D01*
X148470498Y-30889180D01*
X148529463Y-30999494D01*
X148608815Y-31096185D01*
X148705506Y-31175537D01*
X148815820Y-31234502D01*
X148935518Y-31270812D01*
X148943961Y-31271643D01*
X148745363Y-31470241D01*
X148588320Y-31705273D01*
X148480147Y-31966426D01*
X148425000Y-32243665D01*
X148425000Y-32526335D01*
X148480147Y-32803574D01*
X148588320Y-33064727D01*
X148745363Y-33299759D01*
X148945241Y-33499637D01*
X149179128Y-33655915D01*
X149118486Y-33688329D01*
X149046903Y-33932298D01*
X149860000Y-34745395D01*
X150673097Y-33932298D01*
X150601514Y-33688329D01*
X150537008Y-33657806D01*
X150539727Y-33656680D01*
X150774759Y-33499637D01*
X150974637Y-33299759D01*
X151131680Y-33064727D01*
X151239853Y-32803574D01*
X151295000Y-32526335D01*
X151295000Y-32455512D01*
X163659783Y-32455512D01*
X163701213Y-32735130D01*
X163796397Y-33001292D01*
X163863329Y-33126514D01*
X164107298Y-33198097D01*
X164920395Y-32385000D01*
X165279605Y-32385000D01*
X166092702Y-33198097D01*
X166336671Y-33126514D01*
X166457571Y-32871004D01*
X166526300Y-32596816D01*
X166540217Y-32314488D01*
X166498787Y-32034870D01*
X166403603Y-31768708D01*
X166336671Y-31643486D01*
X166092702Y-31571903D01*
X165279605Y-32385000D01*
X164920395Y-32385000D01*
X164107298Y-31571903D01*
X163863329Y-31643486D01*
X163742429Y-31898996D01*
X163673700Y-32173184D01*
X163659783Y-32455512D01*
X151295000Y-32455512D01*
X151295000Y-32243665D01*
X151239853Y-31966426D01*
X151131680Y-31705273D01*
X150974637Y-31470241D01*
X150776039Y-31271643D01*
X150784482Y-31270812D01*
X150904180Y-31234502D01*
X151014494Y-31175537D01*
X151111185Y-31096185D01*
X151190537Y-30999494D01*
X151249502Y-30889180D01*
X151285812Y-30769482D01*
X151298072Y-30645000D01*
X151298072Y-29703665D01*
X163665000Y-29703665D01*
X163665000Y-29986335D01*
X163720147Y-30263574D01*
X163828320Y-30524727D01*
X163985363Y-30759759D01*
X164185241Y-30959637D01*
X164419128Y-31115915D01*
X164358486Y-31148329D01*
X164286903Y-31392298D01*
X165100000Y-32205395D01*
X165913097Y-31392298D01*
X165841514Y-31148329D01*
X165777008Y-31117806D01*
X165779727Y-31116680D01*
X166014759Y-30959637D01*
X166214637Y-30759759D01*
X166371680Y-30524727D01*
X166479853Y-30263574D01*
X166535000Y-29986335D01*
X166535000Y-29703665D01*
X166479853Y-29426426D01*
X166371680Y-29165273D01*
X166214637Y-28930241D01*
X166014759Y-28730363D01*
X165779727Y-28573320D01*
X165518574Y-28465147D01*
X165241335Y-28410000D01*
X164958665Y-28410000D01*
X164681426Y-28465147D01*
X164420273Y-28573320D01*
X164185241Y-28730363D01*
X163985363Y-28930241D01*
X163828320Y-29165273D01*
X163720147Y-29426426D01*
X163665000Y-29703665D01*
X151298072Y-29703665D01*
X151298072Y-29045000D01*
X151285812Y-28920518D01*
X151249502Y-28800820D01*
X151190537Y-28690506D01*
X151111185Y-28593815D01*
X151014494Y-28514463D01*
X150904180Y-28455498D01*
X150784482Y-28419188D01*
X150660000Y-28406928D01*
X149060000Y-28406928D01*
X148935518Y-28419188D01*
X148815820Y-28455498D01*
X148705506Y-28514463D01*
X148608815Y-28593815D01*
X148529463Y-28690506D01*
X148470498Y-28800820D01*
X148434188Y-28920518D01*
X148421928Y-29045000D01*
X128930000Y-29045000D01*
X128930000Y-27330000D01*
X168250000Y-27330000D01*
X168250000Y-41903421D01*
%TA.AperFunction,Conductor*%
D17*
G36*
X168250000Y-41903421D02*
G01*
X166528017Y-40181439D01*
X166535000Y-40146335D01*
X166535000Y-39863665D01*
X166479853Y-39586426D01*
X166371680Y-39325273D01*
X166214637Y-39090241D01*
X166014759Y-38890363D01*
X165782241Y-38735000D01*
X166014759Y-38579637D01*
X166214637Y-38379759D01*
X166371680Y-38144727D01*
X166479853Y-37883574D01*
X166535000Y-37606335D01*
X166535000Y-37323665D01*
X166479853Y-37046426D01*
X166371680Y-36785273D01*
X166214637Y-36550241D01*
X166014759Y-36350363D01*
X165782241Y-36195000D01*
X166014759Y-36039637D01*
X166214637Y-35839759D01*
X166371680Y-35604727D01*
X166479853Y-35343574D01*
X166535000Y-35066335D01*
X166535000Y-34783665D01*
X166479853Y-34506426D01*
X166371680Y-34245273D01*
X166214637Y-34010241D01*
X166014759Y-33810363D01*
X165780872Y-33654085D01*
X165841514Y-33621671D01*
X165913097Y-33377702D01*
X165100000Y-32564605D01*
X164286903Y-33377702D01*
X164358486Y-33621671D01*
X164422992Y-33652194D01*
X164420273Y-33653320D01*
X164185241Y-33810363D01*
X163985363Y-34010241D01*
X163828320Y-34245273D01*
X163720147Y-34506426D01*
X163665000Y-34783665D01*
X163665000Y-35066335D01*
X163720147Y-35343574D01*
X163828320Y-35604727D01*
X163985363Y-35839759D01*
X164185241Y-36039637D01*
X164417759Y-36195000D01*
X164185241Y-36350363D01*
X163985363Y-36550241D01*
X163828320Y-36785273D01*
X163720147Y-37046426D01*
X163665000Y-37323665D01*
X163665000Y-37606335D01*
X163720147Y-37883574D01*
X163828320Y-38144727D01*
X163985363Y-38379759D01*
X164185241Y-38579637D01*
X164417759Y-38735000D01*
X164185241Y-38890363D01*
X163985363Y-39090241D01*
X163828320Y-39325273D01*
X163720147Y-39586426D01*
X163665000Y-39863665D01*
X163665000Y-40146335D01*
X163720147Y-40423574D01*
X163828320Y-40684727D01*
X163985363Y-40919759D01*
X164185241Y-41119637D01*
X164417759Y-41275000D01*
X164185241Y-41430363D01*
X163985363Y-41630241D01*
X163828320Y-41865273D01*
X163720147Y-42126426D01*
X163665000Y-42403665D01*
X163665000Y-42686335D01*
X163720147Y-42963574D01*
X163828320Y-43224727D01*
X163985363Y-43459759D01*
X164185241Y-43659637D01*
X164417759Y-43815000D01*
X164185241Y-43970363D01*
X163985363Y-44170241D01*
X163828320Y-44405273D01*
X163720147Y-44666426D01*
X163665000Y-44943665D01*
X163665000Y-45226335D01*
X163720147Y-45503574D01*
X163828320Y-45764727D01*
X163985363Y-45999759D01*
X164185241Y-46199637D01*
X164417759Y-46355000D01*
X164185241Y-46510363D01*
X163985363Y-46710241D01*
X163828320Y-46945273D01*
X163720147Y-47206426D01*
X163665000Y-47483665D01*
X163665000Y-47766335D01*
X163671983Y-47801439D01*
X162304955Y-49168467D01*
X162271182Y-49196184D01*
X162160588Y-49330943D01*
X162123052Y-49401169D01*
X159297956Y-52226266D01*
X159264183Y-52253983D01*
X159153589Y-52388742D01*
X159071411Y-52542488D01*
X159036157Y-52658704D01*
X159022113Y-52705000D01*
X159020805Y-52709311D01*
X159008000Y-52839324D01*
X159008000Y-52839331D01*
X159003719Y-52882800D01*
X159008000Y-52926269D01*
X159008001Y-80507020D01*
X157799222Y-81715800D01*
X156771182Y-81715800D01*
X156937537Y-81466831D01*
X157068325Y-81151081D01*
X157135000Y-80815883D01*
X157135000Y-80474117D01*
X157068325Y-80138919D01*
X156937537Y-79823169D01*
X156747663Y-79539002D01*
X156505998Y-79297337D01*
X156221831Y-79107463D01*
X155906081Y-78976675D01*
X155570883Y-78910000D01*
X155229117Y-78910000D01*
X154893919Y-78976675D01*
X154578169Y-79107463D01*
X154294002Y-79297337D01*
X154052337Y-79539002D01*
X153900000Y-79766991D01*
X153747663Y-79539002D01*
X153505998Y-79297337D01*
X153221831Y-79107463D01*
X152906081Y-78976675D01*
X152570883Y-78910000D01*
X152229117Y-78910000D01*
X151893919Y-78976675D01*
X151578169Y-79107463D01*
X151294002Y-79297337D01*
X151052337Y-79539002D01*
X150862463Y-79823169D01*
X150731675Y-80138919D01*
X150665000Y-80474117D01*
X150665000Y-80815883D01*
X150731675Y-81151081D01*
X150862463Y-81466831D01*
X151052337Y-81750998D01*
X151294002Y-81992663D01*
X151578169Y-82182537D01*
X151893919Y-82313325D01*
X152229117Y-82380000D01*
X152570883Y-82380000D01*
X152831568Y-82328147D01*
X153489221Y-82985800D01*
X142581179Y-82985800D01*
X138839378Y-79244000D01*
X145066731Y-79244000D01*
X145110200Y-79248281D01*
X145153669Y-79244000D01*
X145153677Y-79244000D01*
X145283690Y-79231195D01*
X145450513Y-79180589D01*
X145604259Y-79098411D01*
X145739017Y-78987817D01*
X145766734Y-78954044D01*
X148246661Y-76474117D01*
X150665000Y-76474117D01*
X150665000Y-76815883D01*
X150731675Y-77151081D01*
X150862463Y-77466831D01*
X151052337Y-77750998D01*
X151294002Y-77992663D01*
X151578169Y-78182537D01*
X151893919Y-78313325D01*
X152229117Y-78380000D01*
X152570883Y-78380000D01*
X152906081Y-78313325D01*
X153221831Y-78182537D01*
X153505998Y-77992663D01*
X153747663Y-77750998D01*
X153900000Y-77523009D01*
X154052337Y-77750998D01*
X154294002Y-77992663D01*
X154578169Y-78182537D01*
X154893919Y-78313325D01*
X155229117Y-78380000D01*
X155570883Y-78380000D01*
X155906081Y-78313325D01*
X156221831Y-78182537D01*
X156505998Y-77992663D01*
X156747663Y-77750998D01*
X156937537Y-77466831D01*
X157068325Y-77151081D01*
X157135000Y-76815883D01*
X157135000Y-76474117D01*
X157068325Y-76138919D01*
X156937537Y-75823169D01*
X156747663Y-75539002D01*
X156505998Y-75297337D01*
X156221831Y-75107463D01*
X155906081Y-74976675D01*
X155570883Y-74910000D01*
X155229117Y-74910000D01*
X154893919Y-74976675D01*
X154578169Y-75107463D01*
X154294002Y-75297337D01*
X154052337Y-75539002D01*
X153900000Y-75766991D01*
X153747663Y-75539002D01*
X153505998Y-75297337D01*
X153221831Y-75107463D01*
X152906081Y-74976675D01*
X152570883Y-74910000D01*
X152229117Y-74910000D01*
X151893919Y-74976675D01*
X151578169Y-75107463D01*
X151294002Y-75297337D01*
X151052337Y-75539002D01*
X150862463Y-75823169D01*
X150731675Y-76138919D01*
X150665000Y-76474117D01*
X148246661Y-76474117D01*
X148346849Y-76373930D01*
X148380617Y-76346217D01*
X148417003Y-76301882D01*
X148491211Y-76211459D01*
X148573389Y-76057714D01*
X148623995Y-75890890D01*
X148636800Y-75760877D01*
X148636800Y-75760869D01*
X148641081Y-75717400D01*
X148636800Y-75673931D01*
X148636800Y-72138978D01*
X149737870Y-73240049D01*
X149765583Y-73273817D01*
X149799351Y-73301530D01*
X149799353Y-73301532D01*
X149900341Y-73384411D01*
X150054086Y-73466589D01*
X150220910Y-73517195D01*
X150350923Y-73530000D01*
X150350931Y-73530000D01*
X150394400Y-73534281D01*
X150437869Y-73530000D01*
X150904671Y-73530000D01*
X151052337Y-73750998D01*
X151294002Y-73992663D01*
X151578169Y-74182537D01*
X151893919Y-74313325D01*
X152229117Y-74380000D01*
X152570883Y-74380000D01*
X152906081Y-74313325D01*
X153221831Y-74182537D01*
X153505998Y-73992663D01*
X153747663Y-73750998D01*
X153900000Y-73523009D01*
X154052337Y-73750998D01*
X154294002Y-73992663D01*
X154578169Y-74182537D01*
X154893919Y-74313325D01*
X155229117Y-74380000D01*
X155570883Y-74380000D01*
X155906081Y-74313325D01*
X156221831Y-74182537D01*
X156505998Y-73992663D01*
X156747663Y-73750998D01*
X156937537Y-73466831D01*
X157068325Y-73151081D01*
X157135000Y-72815883D01*
X157135000Y-72474117D01*
X157068325Y-72138919D01*
X156937537Y-71823169D01*
X156747663Y-71539002D01*
X156505998Y-71297337D01*
X156221831Y-71107463D01*
X155906081Y-70976675D01*
X155570883Y-70910000D01*
X155229117Y-70910000D01*
X154893919Y-70976675D01*
X154578169Y-71107463D01*
X154294002Y-71297337D01*
X154052337Y-71539002D01*
X153900000Y-71766991D01*
X153747663Y-71539002D01*
X153505998Y-71297337D01*
X153221831Y-71107463D01*
X152906081Y-70976675D01*
X152570883Y-70910000D01*
X152229117Y-70910000D01*
X151893919Y-70976675D01*
X151578169Y-71107463D01*
X151294002Y-71297337D01*
X151052337Y-71539002D01*
X150904671Y-71760000D01*
X150760979Y-71760000D01*
X149906800Y-70905822D01*
X149906800Y-69851712D01*
X151372893Y-69851712D01*
X151480726Y-70126338D01*
X151787384Y-70277216D01*
X152117585Y-70365369D01*
X152458639Y-70387409D01*
X152797439Y-70342489D01*
X153120966Y-70232336D01*
X153319274Y-70126338D01*
X153427107Y-69851712D01*
X152400000Y-68824605D01*
X151372893Y-69851712D01*
X149906800Y-69851712D01*
X149906800Y-68703639D01*
X150657591Y-68703639D01*
X150702511Y-69042439D01*
X150812664Y-69365966D01*
X150918662Y-69564274D01*
X151193288Y-69672107D01*
X152220395Y-68645000D01*
X152579605Y-68645000D01*
X153606712Y-69672107D01*
X153881338Y-69564274D01*
X154032216Y-69257616D01*
X154120369Y-68927415D01*
X154142409Y-68586361D01*
X154097489Y-68247561D01*
X153987336Y-67924034D01*
X153881338Y-67725726D01*
X153606712Y-67617893D01*
X152579605Y-68645000D01*
X152220395Y-68645000D01*
X151193288Y-67617893D01*
X150918662Y-67725726D01*
X150767784Y-68032384D01*
X150679631Y-68362585D01*
X150657591Y-68703639D01*
X149906800Y-68703639D01*
X149906800Y-67438288D01*
X151372893Y-67438288D01*
X152400000Y-68465395D01*
X153427107Y-67438288D01*
X153319274Y-67163662D01*
X153012616Y-67012784D01*
X152682415Y-66924631D01*
X152341361Y-66902591D01*
X152002561Y-66947511D01*
X151679034Y-67057664D01*
X151480726Y-67163662D01*
X151372893Y-67438288D01*
X149906800Y-67438288D01*
X149906800Y-62494978D01*
X152461649Y-59940130D01*
X152495417Y-59912417D01*
X152606011Y-59777659D01*
X152688189Y-59623913D01*
X152738795Y-59457090D01*
X152751600Y-59327077D01*
X152751600Y-59327069D01*
X152755881Y-59283600D01*
X152751600Y-59240131D01*
X152751600Y-44595069D01*
X152755881Y-44551600D01*
X152751600Y-44508131D01*
X152751600Y-44508123D01*
X152738795Y-44378110D01*
X152688189Y-44211287D01*
X152606011Y-44057541D01*
X152560092Y-44001589D01*
X152523132Y-43956553D01*
X152523130Y-43956551D01*
X152495417Y-43922783D01*
X152461650Y-43895071D01*
X151288017Y-42721439D01*
X151295000Y-42686335D01*
X151295000Y-42403665D01*
X151239853Y-42126426D01*
X151131680Y-41865273D01*
X150974637Y-41630241D01*
X150774759Y-41430363D01*
X150542241Y-41275000D01*
X150774759Y-41119637D01*
X150974637Y-40919759D01*
X151131680Y-40684727D01*
X151239853Y-40423574D01*
X151295000Y-40146335D01*
X151295000Y-39863665D01*
X151239853Y-39586426D01*
X151131680Y-39325273D01*
X150974637Y-39090241D01*
X150774759Y-38890363D01*
X150540872Y-38734085D01*
X150601514Y-38701671D01*
X150673097Y-38457702D01*
X149860000Y-37644605D01*
X149046903Y-38457702D01*
X149118486Y-38701671D01*
X149182992Y-38732194D01*
X149180273Y-38733320D01*
X149057999Y-38815020D01*
X147778491Y-37535512D01*
X148419783Y-37535512D01*
X148461213Y-37815130D01*
X148556397Y-38081292D01*
X148623329Y-38206514D01*
X148867298Y-38278097D01*
X149680395Y-37465000D01*
X150039605Y-37465000D01*
X150852702Y-38278097D01*
X151096671Y-38206514D01*
X151217571Y-37951004D01*
X151286300Y-37676816D01*
X151300217Y-37394488D01*
X151258787Y-37114870D01*
X151163603Y-36848708D01*
X151096671Y-36723486D01*
X150852702Y-36651903D01*
X150039605Y-37465000D01*
X149680395Y-37465000D01*
X148867298Y-36651903D01*
X148623329Y-36723486D01*
X148502429Y-36978996D01*
X148433700Y-37253184D01*
X148419783Y-37535512D01*
X147778491Y-37535512D01*
X146554000Y-36311022D01*
X146554000Y-35917702D01*
X149046903Y-35917702D01*
X149118486Y-36161671D01*
X149184636Y-36192971D01*
X149118486Y-36228329D01*
X149046903Y-36472298D01*
X149860000Y-37285395D01*
X150673097Y-36472298D01*
X150601514Y-36228329D01*
X150535364Y-36197029D01*
X150601514Y-36161671D01*
X150673097Y-35917702D01*
X149860000Y-35104605D01*
X149046903Y-35917702D01*
X146554000Y-35917702D01*
X146554000Y-34995512D01*
X148419783Y-34995512D01*
X148461213Y-35275130D01*
X148556397Y-35541292D01*
X148623329Y-35666514D01*
X148867298Y-35738097D01*
X149680395Y-34925000D01*
X150039605Y-34925000D01*
X150852702Y-35738097D01*
X151096671Y-35666514D01*
X151217571Y-35411004D01*
X151286300Y-35136816D01*
X151300217Y-34854488D01*
X151258787Y-34574870D01*
X151163603Y-34308708D01*
X151096671Y-34183486D01*
X150852702Y-34111903D01*
X150039605Y-34925000D01*
X149680395Y-34925000D01*
X148867298Y-34111903D01*
X148623329Y-34183486D01*
X148502429Y-34438996D01*
X148433700Y-34713184D01*
X148419783Y-34995512D01*
X146554000Y-34995512D01*
X146554000Y-33088865D01*
X146558281Y-33045399D01*
X146554000Y-33001933D01*
X146554000Y-33001923D01*
X146541195Y-32871910D01*
X146490589Y-32705087D01*
X146408411Y-32551341D01*
X146376124Y-32512000D01*
X146325532Y-32450353D01*
X146325530Y-32450351D01*
X146297817Y-32416583D01*
X146264049Y-32388870D01*
X144801534Y-30926356D01*
X144773817Y-30892583D01*
X144639059Y-30781989D01*
X144485313Y-30699811D01*
X144318490Y-30649205D01*
X144188477Y-30636400D01*
X144188469Y-30636400D01*
X144145000Y-30632119D01*
X144101531Y-30636400D01*
X141445269Y-30636400D01*
X141401800Y-30632119D01*
X141358331Y-30636400D01*
X141358323Y-30636400D01*
X141243106Y-30647748D01*
X141228309Y-30649205D01*
X141177703Y-30664557D01*
X141061487Y-30699811D01*
X140907741Y-30781989D01*
X140907739Y-30781990D01*
X140907740Y-30781990D01*
X140806753Y-30864868D01*
X140806751Y-30864870D01*
X140772983Y-30892583D01*
X140745270Y-30926351D01*
X139816156Y-31855466D01*
X139782383Y-31883183D01*
X139671789Y-32017942D01*
X139589611Y-32171688D01*
X139554357Y-32287904D01*
X139548871Y-32305989D01*
X139539005Y-32338511D01*
X139526200Y-32468524D01*
X139526200Y-32468531D01*
X139521919Y-32512000D01*
X139526200Y-32555469D01*
X139526201Y-39782721D01*
X139521919Y-39826200D01*
X139539005Y-39999690D01*
X139589612Y-40166513D01*
X139671790Y-40320259D01*
X139754668Y-40421246D01*
X139754671Y-40421249D01*
X139782384Y-40455017D01*
X139816151Y-40482729D01*
X140874363Y-41540942D01*
X140822047Y-41667244D01*
X140740000Y-42079721D01*
X140740000Y-42500279D01*
X140822047Y-42912756D01*
X140982988Y-43301302D01*
X141216637Y-43650983D01*
X141514017Y-43948363D01*
X141863698Y-44182012D01*
X142124404Y-44290000D01*
X141863698Y-44397988D01*
X141514017Y-44631637D01*
X141216637Y-44929017D01*
X140982988Y-45278698D01*
X140822047Y-45667244D01*
X140740000Y-46079721D01*
X140740000Y-46500279D01*
X140822047Y-46912756D01*
X140982988Y-47301302D01*
X141216637Y-47650983D01*
X141514017Y-47948363D01*
X141863698Y-48182012D01*
X142252244Y-48342953D01*
X142664721Y-48425000D01*
X143085279Y-48425000D01*
X143497756Y-48342953D01*
X143624058Y-48290637D01*
X144860201Y-49526780D01*
X144860201Y-52003676D01*
X144767012Y-51778698D01*
X144533363Y-51429017D01*
X144235983Y-51131637D01*
X143886302Y-50897988D01*
X143497756Y-50737047D01*
X143085279Y-50655000D01*
X142664721Y-50655000D01*
X142252244Y-50737047D01*
X141863698Y-50897988D01*
X141514017Y-51131637D01*
X141216637Y-51429017D01*
X140982988Y-51778698D01*
X140822047Y-52167244D01*
X140740000Y-52579721D01*
X140740000Y-53000279D01*
X140822047Y-53412756D01*
X140982988Y-53801302D01*
X141216637Y-54150983D01*
X141514017Y-54448363D01*
X141863698Y-54682012D01*
X142124404Y-54790000D01*
X141863698Y-54897988D01*
X141514017Y-55131637D01*
X141216637Y-55429017D01*
X140982988Y-55778698D01*
X140822047Y-56167244D01*
X140740000Y-56579721D01*
X140740000Y-57000279D01*
X140822047Y-57412756D01*
X140982988Y-57801302D01*
X141216637Y-58150983D01*
X141514017Y-58448363D01*
X141863698Y-58682012D01*
X142123113Y-58789465D01*
X142014617Y-58824757D01*
X141718962Y-58982786D01*
X141562952Y-59298347D01*
X142875000Y-60610395D01*
X144187048Y-59298347D01*
X144031038Y-58982786D01*
X143656255Y-58791980D01*
X143635161Y-58786038D01*
X143886302Y-58682012D01*
X144235983Y-58448363D01*
X144533363Y-58150983D01*
X144767012Y-57801302D01*
X144860200Y-57576325D01*
X144860200Y-59990971D01*
X144840243Y-59929617D01*
X144682214Y-59633962D01*
X144366653Y-59477952D01*
X143054605Y-60790000D01*
X144366653Y-62102048D01*
X144682214Y-61946038D01*
X144860200Y-61596436D01*
X144860200Y-64460146D01*
X144827995Y-64508344D01*
X144749974Y-64696702D01*
X144710200Y-64896661D01*
X144710200Y-65100539D01*
X144749974Y-65300498D01*
X144827995Y-65488856D01*
X144941263Y-65658374D01*
X145085426Y-65802537D01*
X145254944Y-65915805D01*
X145443302Y-65993826D01*
X145643261Y-66033600D01*
X145847139Y-66033600D01*
X146047098Y-65993826D01*
X146235456Y-65915805D01*
X146404974Y-65802537D01*
X146549137Y-65658374D01*
X146662405Y-65488856D01*
X146740426Y-65300498D01*
X146780200Y-65100539D01*
X146780200Y-64896661D01*
X146740426Y-64696702D01*
X146662405Y-64508344D01*
X146630200Y-64460146D01*
X146630200Y-49203669D01*
X146634481Y-49160200D01*
X146630200Y-49116731D01*
X146630200Y-49116723D01*
X146617395Y-48986710D01*
X146566789Y-48819887D01*
X146484611Y-48666141D01*
X146374017Y-48531383D01*
X146340249Y-48503670D01*
X144875637Y-47039058D01*
X144927953Y-46912756D01*
X145010000Y-46500279D01*
X145010000Y-46079721D01*
X144927953Y-45667244D01*
X144767012Y-45278698D01*
X144533363Y-44929017D01*
X144235983Y-44631637D01*
X143886302Y-44397988D01*
X143625596Y-44290000D01*
X143886302Y-44182012D01*
X144235983Y-43948363D01*
X144533363Y-43650983D01*
X144767012Y-43301302D01*
X144927953Y-42912756D01*
X145010000Y-42500279D01*
X145010000Y-42079721D01*
X144927953Y-41667244D01*
X144767012Y-41278698D01*
X144533363Y-40929017D01*
X144235983Y-40631637D01*
X143886302Y-40397988D01*
X143625596Y-40290000D01*
X143886302Y-40182012D01*
X144235983Y-39948363D01*
X144533363Y-39650983D01*
X144767012Y-39301302D01*
X144819328Y-39175000D01*
X145238422Y-39175000D01*
X148431983Y-42368561D01*
X148425000Y-42403665D01*
X148425000Y-42686335D01*
X148480147Y-42963574D01*
X148588320Y-43224727D01*
X148745363Y-43459759D01*
X148945241Y-43659637D01*
X149177759Y-43815000D01*
X148945241Y-43970363D01*
X148745363Y-44170241D01*
X148588320Y-44405273D01*
X148480147Y-44666426D01*
X148425000Y-44943665D01*
X148425000Y-45226335D01*
X148480147Y-45503574D01*
X148588320Y-45764727D01*
X148745363Y-45999759D01*
X148945241Y-46199637D01*
X149177759Y-46355000D01*
X148945241Y-46510363D01*
X148745363Y-46710241D01*
X148588320Y-46945273D01*
X148480147Y-47206426D01*
X148425000Y-47483665D01*
X148425000Y-47766335D01*
X148480147Y-48043574D01*
X148588320Y-48304727D01*
X148745363Y-48539759D01*
X148945241Y-48739637D01*
X149177759Y-48895000D01*
X148945241Y-49050363D01*
X148745363Y-49250241D01*
X148588320Y-49485273D01*
X148480147Y-49746426D01*
X148425000Y-50023665D01*
X148425000Y-50306335D01*
X148480147Y-50583574D01*
X148588320Y-50844727D01*
X148745363Y-51079759D01*
X148945241Y-51279637D01*
X149177759Y-51435000D01*
X148945241Y-51590363D01*
X148745363Y-51790241D01*
X148588320Y-52025273D01*
X148480147Y-52286426D01*
X148425000Y-52563665D01*
X148425000Y-52846335D01*
X148431983Y-52881439D01*
X147156756Y-54156666D01*
X147122983Y-54184383D01*
X147012389Y-54319142D01*
X146930211Y-54472888D01*
X146879605Y-54639711D01*
X146866800Y-54769724D01*
X146866800Y-54769731D01*
X146862519Y-54813200D01*
X146866800Y-54856669D01*
X146866801Y-75350820D01*
X144743622Y-77474000D01*
X139101379Y-77474000D01*
X138390000Y-76762622D01*
X138390000Y-76699521D01*
X138419759Y-76679637D01*
X138541694Y-76557702D01*
X139461903Y-76557702D01*
X139533486Y-76801671D01*
X139788996Y-76922571D01*
X140063184Y-76991300D01*
X140345512Y-77005217D01*
X140625130Y-76963787D01*
X140891292Y-76868603D01*
X141016514Y-76801671D01*
X141088097Y-76557702D01*
X140275000Y-75744605D01*
X139461903Y-76557702D01*
X138541694Y-76557702D01*
X138619637Y-76479759D01*
X138776680Y-76244727D01*
X138884853Y-75983574D01*
X138890513Y-75955118D01*
X138971397Y-76181292D01*
X139038329Y-76306514D01*
X139282298Y-76378097D01*
X140095395Y-75565000D01*
X140454605Y-75565000D01*
X141267702Y-76378097D01*
X141511671Y-76306514D01*
X141632571Y-76051004D01*
X141658212Y-75948711D01*
X141665147Y-75983574D01*
X141773320Y-76244727D01*
X141930363Y-76479759D01*
X142130241Y-76679637D01*
X142365273Y-76836680D01*
X142626426Y-76944853D01*
X142903665Y-77000000D01*
X143186335Y-77000000D01*
X143463574Y-76944853D01*
X143724727Y-76836680D01*
X143959759Y-76679637D01*
X144159637Y-76479759D01*
X144316680Y-76244727D01*
X144424853Y-75983574D01*
X144480000Y-75706335D01*
X144480000Y-75423665D01*
X144424853Y-75146426D01*
X144316680Y-74885273D01*
X144159637Y-74650241D01*
X143959759Y-74450363D01*
X143724727Y-74293320D01*
X143463574Y-74185147D01*
X143186335Y-74130000D01*
X142903665Y-74130000D01*
X142626426Y-74185147D01*
X142365273Y-74293320D01*
X142130241Y-74450363D01*
X141930363Y-74650241D01*
X141773320Y-74885273D01*
X141665147Y-75146426D01*
X141659487Y-75174882D01*
X141578603Y-74948708D01*
X141511671Y-74823486D01*
X141267702Y-74751903D01*
X140454605Y-75565000D01*
X140095395Y-75565000D01*
X139282298Y-74751903D01*
X139038329Y-74823486D01*
X138917429Y-75078996D01*
X138891788Y-75181289D01*
X138884853Y-75146426D01*
X138776680Y-74885273D01*
X138619637Y-74650241D01*
X138541694Y-74572298D01*
X139461903Y-74572298D01*
X140275000Y-75385395D01*
X141088097Y-74572298D01*
X141016514Y-74328329D01*
X140761004Y-74207429D01*
X140486816Y-74138700D01*
X140204488Y-74124783D01*
X139924870Y-74166213D01*
X139658708Y-74261397D01*
X139533486Y-74328329D01*
X139461903Y-74572298D01*
X138541694Y-74572298D01*
X138419759Y-74450363D01*
X138184727Y-74293320D01*
X137923574Y-74185147D01*
X137646335Y-74130000D01*
X137363665Y-74130000D01*
X137086426Y-74185147D01*
X136825273Y-74293320D01*
X136590241Y-74450363D01*
X136390363Y-74650241D01*
X136233320Y-74885273D01*
X136125147Y-75146426D01*
X136120000Y-75172301D01*
X136114853Y-75146426D01*
X136006680Y-74885273D01*
X135849637Y-74650241D01*
X135649759Y-74450363D01*
X135414727Y-74293320D01*
X135153574Y-74185147D01*
X134876335Y-74130000D01*
X134706993Y-74130000D01*
X134739502Y-74069180D01*
X134775812Y-73949482D01*
X134788072Y-73825000D01*
X134788072Y-73559275D01*
X134848320Y-73704727D01*
X135005363Y-73939759D01*
X135205241Y-74139637D01*
X135440273Y-74296680D01*
X135701426Y-74404853D01*
X135978665Y-74460000D01*
X136261335Y-74460000D01*
X136538574Y-74404853D01*
X136799727Y-74296680D01*
X137034759Y-74139637D01*
X137234637Y-73939759D01*
X137391680Y-73704727D01*
X137499853Y-73443574D01*
X137505000Y-73417699D01*
X137510147Y-73443574D01*
X137618320Y-73704727D01*
X137775363Y-73939759D01*
X137975241Y-74139637D01*
X138210273Y-74296680D01*
X138471426Y-74404853D01*
X138748665Y-74460000D01*
X139031335Y-74460000D01*
X139308574Y-74404853D01*
X139569727Y-74296680D01*
X139804759Y-74139637D01*
X140004637Y-73939759D01*
X140161680Y-73704727D01*
X140269853Y-73443574D01*
X140275000Y-73417699D01*
X140280147Y-73443574D01*
X140388320Y-73704727D01*
X140545363Y-73939759D01*
X140745241Y-74139637D01*
X140980273Y-74296680D01*
X141241426Y-74404853D01*
X141518665Y-74460000D01*
X141801335Y-74460000D01*
X142078574Y-74404853D01*
X142339727Y-74296680D01*
X142574759Y-74139637D01*
X142774637Y-73939759D01*
X142931680Y-73704727D01*
X143039853Y-73443574D01*
X143045000Y-73417699D01*
X143050147Y-73443574D01*
X143158320Y-73704727D01*
X143315363Y-73939759D01*
X143515241Y-74139637D01*
X143750273Y-74296680D01*
X144011426Y-74404853D01*
X144288665Y-74460000D01*
X144571335Y-74460000D01*
X144848574Y-74404853D01*
X145109727Y-74296680D01*
X145344759Y-74139637D01*
X145544637Y-73939759D01*
X145701680Y-73704727D01*
X145809853Y-73443574D01*
X145865000Y-73166335D01*
X145865000Y-72883665D01*
X145809853Y-72606426D01*
X145701680Y-72345273D01*
X145544637Y-72110241D01*
X145344759Y-71910363D01*
X145109727Y-71753320D01*
X144848574Y-71645147D01*
X144571335Y-71590000D01*
X144288665Y-71590000D01*
X144011426Y-71645147D01*
X143750273Y-71753320D01*
X143515241Y-71910363D01*
X143315363Y-72110241D01*
X143158320Y-72345273D01*
X143050147Y-72606426D01*
X143045000Y-72632301D01*
X143039853Y-72606426D01*
X142931680Y-72345273D01*
X142774637Y-72110241D01*
X142574759Y-71910363D01*
X142339727Y-71753320D01*
X142078574Y-71645147D01*
X141801335Y-71590000D01*
X141518665Y-71590000D01*
X141483561Y-71596983D01*
X139217734Y-69331156D01*
X139190017Y-69297383D01*
X139055259Y-69186789D01*
X138901513Y-69104611D01*
X138734690Y-69054005D01*
X138604677Y-69041200D01*
X138604669Y-69041200D01*
X138561200Y-69036919D01*
X138517731Y-69041200D01*
X132174269Y-69041200D01*
X132130800Y-69036919D01*
X132087331Y-69041200D01*
X132087323Y-69041200D01*
X131957310Y-69054005D01*
X131790486Y-69104611D01*
X131636741Y-69186789D01*
X131535753Y-69269668D01*
X131535751Y-69269670D01*
X131501983Y-69297383D01*
X131474270Y-69331151D01*
X129859351Y-70946071D01*
X129825584Y-70973783D01*
X129797871Y-71007551D01*
X129797868Y-71007554D01*
X129714990Y-71108541D01*
X129632812Y-71262287D01*
X129582205Y-71429110D01*
X129565119Y-71602600D01*
X129569401Y-71646079D01*
X129569400Y-76131131D01*
X129565119Y-76174600D01*
X129569400Y-76218069D01*
X129569400Y-76218076D01*
X129582205Y-76348089D01*
X129632811Y-76514912D01*
X129714989Y-76668658D01*
X129825583Y-76803417D01*
X129859356Y-76831134D01*
X139576870Y-86548649D01*
X139604583Y-86582417D01*
X139638351Y-86610130D01*
X139638353Y-86610132D01*
X139709852Y-86668810D01*
X139739341Y-86693011D01*
X139893087Y-86775189D01*
X140059910Y-86825795D01*
X140189923Y-86838600D01*
X140189933Y-86838600D01*
X140233399Y-86842881D01*
X140276865Y-86838600D01*
X160001931Y-86838600D01*
X160045400Y-86842881D01*
X160088869Y-86838600D01*
X160088877Y-86838600D01*
X160218890Y-86825795D01*
X160385713Y-86775189D01*
X160539459Y-86693011D01*
X160674217Y-86582417D01*
X160701934Y-86548644D01*
X162988582Y-84261996D01*
X162965000Y-84380551D01*
X162965000Y-84909449D01*
X163068183Y-85428186D01*
X163270583Y-85916825D01*
X163564424Y-86356588D01*
X163938412Y-86730576D01*
X164378175Y-87024417D01*
X164866814Y-87226817D01*
X165385551Y-87330000D01*
X165914449Y-87330000D01*
X166433186Y-87226817D01*
X166921825Y-87024417D01*
X167361588Y-86730576D01*
X167735576Y-86356588D01*
X168029417Y-85916825D01*
X168231817Y-85428186D01*
X168250001Y-85336769D01*
X168250001Y-90780000D01*
X128930000Y-90780000D01*
X128930000Y-62281653D01*
X141562952Y-62281653D01*
X141718962Y-62597214D01*
X142093745Y-62788020D01*
X142498551Y-62902044D01*
X142917824Y-62934902D01*
X143335451Y-62885334D01*
X143735383Y-62755243D01*
X144031038Y-62597214D01*
X144187048Y-62281653D01*
X142875000Y-60969605D01*
X141562952Y-62281653D01*
X128930000Y-62281653D01*
X128930000Y-60832824D01*
X140730098Y-60832824D01*
X140779666Y-61250451D01*
X140909757Y-61650383D01*
X141067786Y-61946038D01*
X141383347Y-62102048D01*
X142695395Y-60790000D01*
X141383347Y-59477952D01*
X141067786Y-59633962D01*
X140876980Y-60008745D01*
X140762956Y-60413551D01*
X140730098Y-60832824D01*
X128930000Y-60832824D01*
X128930000Y-29045000D01*
X148421928Y-29045000D01*
X148421928Y-30645000D01*
X148434188Y-30769482D01*
X148470498Y-30889180D01*
X148529463Y-30999494D01*
X148608815Y-31096185D01*
X148705506Y-31175537D01*
X148815820Y-31234502D01*
X148935518Y-31270812D01*
X148943961Y-31271643D01*
X148745363Y-31470241D01*
X148588320Y-31705273D01*
X148480147Y-31966426D01*
X148425000Y-32243665D01*
X148425000Y-32526335D01*
X148480147Y-32803574D01*
X148588320Y-33064727D01*
X148745363Y-33299759D01*
X148945241Y-33499637D01*
X149179128Y-33655915D01*
X149118486Y-33688329D01*
X149046903Y-33932298D01*
X149860000Y-34745395D01*
X150673097Y-33932298D01*
X150601514Y-33688329D01*
X150537008Y-33657806D01*
X150539727Y-33656680D01*
X150774759Y-33499637D01*
X150974637Y-33299759D01*
X151131680Y-33064727D01*
X151239853Y-32803574D01*
X151295000Y-32526335D01*
X151295000Y-32455512D01*
X163659783Y-32455512D01*
X163701213Y-32735130D01*
X163796397Y-33001292D01*
X163863329Y-33126514D01*
X164107298Y-33198097D01*
X164920395Y-32385000D01*
X165279605Y-32385000D01*
X166092702Y-33198097D01*
X166336671Y-33126514D01*
X166457571Y-32871004D01*
X166526300Y-32596816D01*
X166540217Y-32314488D01*
X166498787Y-32034870D01*
X166403603Y-31768708D01*
X166336671Y-31643486D01*
X166092702Y-31571903D01*
X165279605Y-32385000D01*
X164920395Y-32385000D01*
X164107298Y-31571903D01*
X163863329Y-31643486D01*
X163742429Y-31898996D01*
X163673700Y-32173184D01*
X163659783Y-32455512D01*
X151295000Y-32455512D01*
X151295000Y-32243665D01*
X151239853Y-31966426D01*
X151131680Y-31705273D01*
X150974637Y-31470241D01*
X150776039Y-31271643D01*
X150784482Y-31270812D01*
X150904180Y-31234502D01*
X151014494Y-31175537D01*
X151111185Y-31096185D01*
X151190537Y-30999494D01*
X151249502Y-30889180D01*
X151285812Y-30769482D01*
X151298072Y-30645000D01*
X151298072Y-29703665D01*
X163665000Y-29703665D01*
X163665000Y-29986335D01*
X163720147Y-30263574D01*
X163828320Y-30524727D01*
X163985363Y-30759759D01*
X164185241Y-30959637D01*
X164419128Y-31115915D01*
X164358486Y-31148329D01*
X164286903Y-31392298D01*
X165100000Y-32205395D01*
X165913097Y-31392298D01*
X165841514Y-31148329D01*
X165777008Y-31117806D01*
X165779727Y-31116680D01*
X166014759Y-30959637D01*
X166214637Y-30759759D01*
X166371680Y-30524727D01*
X166479853Y-30263574D01*
X166535000Y-29986335D01*
X166535000Y-29703665D01*
X166479853Y-29426426D01*
X166371680Y-29165273D01*
X166214637Y-28930241D01*
X166014759Y-28730363D01*
X165779727Y-28573320D01*
X165518574Y-28465147D01*
X165241335Y-28410000D01*
X164958665Y-28410000D01*
X164681426Y-28465147D01*
X164420273Y-28573320D01*
X164185241Y-28730363D01*
X163985363Y-28930241D01*
X163828320Y-29165273D01*
X163720147Y-29426426D01*
X163665000Y-29703665D01*
X151298072Y-29703665D01*
X151298072Y-29045000D01*
X151285812Y-28920518D01*
X151249502Y-28800820D01*
X151190537Y-28690506D01*
X151111185Y-28593815D01*
X151014494Y-28514463D01*
X150904180Y-28455498D01*
X150784482Y-28419188D01*
X150660000Y-28406928D01*
X149060000Y-28406928D01*
X148935518Y-28419188D01*
X148815820Y-28455498D01*
X148705506Y-28514463D01*
X148608815Y-28593815D01*
X148529463Y-28690506D01*
X148470498Y-28800820D01*
X148434188Y-28920518D01*
X148421928Y-29045000D01*
X128930000Y-29045000D01*
X128930000Y-27330000D01*
X168250000Y-27330000D01*
X168250000Y-41903421D01*
G37*
%TD.AperFunction*%
%TD*%
M02*
