M48
; DRILL file {KiCad (5.1.10-1-10_14)} date Tuesday, September 07, 2021 at 09:23:46 PM
; FORMAT={-:-/ absolute / inch / decimal}
; #@! TF.CreationDate,2021-09-07T21:23:46-04:00
; #@! TF.GenerationSoftware,Kicad,Pcbnew,(5.1.10-1-10_14)
; #@! TF.FileFunction,Plated,1,2,PTH
FMAT,2
INCH
T1C0.0157
T2C0.0394
T3C0.0433
T4C0.0472
T5C0.0787
%
G90
G05
T1
X5.738Y-2.559
T2
X5.25Y-2.875
X5.3045Y-2.975
X5.3591Y-2.875
X5.4136Y-2.975
X5.4681Y-2.875
X5.5226Y-2.975
X5.5772Y-2.875
X5.6317Y-2.975
X5.6862Y-2.875
T3
X5.9Y-1.175
X5.9Y-1.275
X5.9Y-1.375
X5.9Y-1.475
X5.9Y-1.575
X5.9Y-1.675
X5.9Y-1.775
X5.9Y-1.875
X5.9Y-1.975
X5.9Y-2.075
X5.9Y-2.175
X5.9Y-2.275
X6.5Y-1.175
X6.5Y-1.275
X6.5Y-1.375
X6.5Y-1.475
X6.5Y-1.575
X6.5Y-1.675
X6.5Y-1.775
X6.5Y-1.875
X6.5Y-1.975
X6.5Y-2.075
X6.5Y-2.175
X6.5Y-2.275
T4
X6.0Y-2.7026
X6.0Y-2.86
X6.0Y-3.0175
X6.0Y-3.175
X6.1181Y-2.86
X6.1181Y-3.0175
X6.1181Y-3.175
T5
X5.625Y-1.35
X5.625Y-1.5075
X5.625Y-1.665
X5.625Y-1.8224
X5.625Y-2.0783
X5.625Y-2.2358
X5.625Y-2.3933
T0
M30
